<svg width="287" height="85" viewBox="0 0 287 85" fill="none" xmlns="http://www.w3.org/2000/svg">
<g clip-path="url(#clip0_1027_102099)">
<path d="M166.352 11.5993C166.324 12.0552 166.196 12.4993 165.975 12.8991C165.636 13.487 165.153 13.9791 164.571 14.329C163.986 14.666 163.323 14.8452 162.647 14.8489H162.413C161.993 14.8085 161.584 14.694 161.204 14.511C160.853 14.3287 160.54 14.0817 160.281 13.783C160.021 13.4793 159.827 13.1254 159.709 12.7431C159.573 12.3242 159.529 11.8809 159.579 11.4433C159.633 10.9871 159.774 10.5457 159.995 10.1434C160.21 9.7733 160.487 9.4434 160.814 9.1685C161.152 8.88295 161.54 8.66257 161.958 8.51856C162.375 8.37164 162.816 8.30119 163.258 8.31058H163.453C163.668 8.33582 163.88 8.3749 164.09 8.42757C164.675 8.58382 165.202 8.90406 165.611 9.35048C165.885 9.63828 166.09 9.98514 166.209 10.3644C166.349 10.7598 166.398 11.1821 166.352 11.5993Z" fill="white"/>
<path d="M268.911 30.5514C268.51 31.1173 268.076 31.6598 267.612 32.1762C267.118 32.7091 266.767 33.2421 266.312 33.762C265.412 34.8119 264.405 35.7658 263.309 36.6087C262.246 37.4301 261.09 38.1238 259.864 38.6755C259.476 38.856 259.076 39.0123 258.669 39.1435C257.874 39.4081 257.055 39.5953 256.225 39.7024C255.391 39.7934 254.55 39.7934 253.716 39.7024C252.669 39.6125 251.635 39.4032 250.635 39.0785C249.518 38.5693 248.46 37.9418 247.477 37.2067L248.439 36.6607C249.335 36.1538 250.102 35.7248 250.882 35.3609C250.958 35.3351 251.04 35.3351 251.116 35.3609C251.316 35.3897 251.509 35.4512 251.688 35.5429C251.869 35.6341 252.055 35.7123 252.247 35.7768C252.42 35.8314 252.599 35.8663 252.78 35.8808C253.242 35.9237 253.705 35.8045 254.09 35.5437C254.474 35.2828 254.755 34.8965 254.886 34.451C255.156 33.7044 255.357 32.9341 255.484 32.1502C255.562 31.6376 255.614 31.1213 255.64 30.6034C255.783 28.7575 255.926 26.9117 256.082 25.0659L255.744 24.9879C255.549 25.2739 255.367 25.5599 255.159 25.8458C254.093 27.3667 253.04 28.9135 251.974 30.4474C250.908 31.9812 249.816 33.4891 248.66 34.9709C247.53 36.3205 246.217 37.5061 244.76 38.4936C244.438 38.7373 244.094 38.9505 243.733 39.1305C243.037 39.4817 242.285 39.7061 241.51 39.7934C241.121 39.8324 240.729 39.8324 240.34 39.7934L239.82 39.7154C239.61 39.6892 239.402 39.6501 239.196 39.5984C238.8 39.5058 238.423 39.3476 238.079 39.1305C237.595 38.846 237.195 38.4377 236.922 37.9476C236.816 37.739 236.729 37.5215 236.662 37.2977C236.56 36.9732 236.504 36.6365 236.493 36.2968C236.466 35.3045 236.612 34.3151 236.922 33.3721C237.243 32.4156 237.639 31.4856 238.105 30.5904C238.676 29.4465 239.235 28.2766 239.885 27.1587C240.05 26.9387 240.165 26.686 240.223 26.4178C240.282 26.1523 240.282 25.8773 240.223 25.6119C240.172 25.346 240.065 25.0937 239.911 24.8709C239.756 24.6467 239.557 24.4565 239.326 24.312C239.04 24.091 238.78 23.844 238.456 23.5711C237.247 25.4689 236.129 27.3667 234.868 29.1865C232.629 32.7082 229.569 35.6342 225.951 37.7136C225.233 38.0952 224.495 38.438 223.741 38.7405C222.644 39.1681 221.501 39.469 220.335 39.6374C219.952 39.6659 219.57 39.7136 219.191 39.7804C218.413 39.8454 217.63 39.8454 216.852 39.7804C216.414 39.7618 215.978 39.7008 215.552 39.5984H215.383C215.045 39.5335 214.72 39.4555 214.395 39.3645C213.808 39.1913 213.248 38.9376 212.731 38.6105C211.747 37.9879 211.026 37.0259 210.703 35.9068C210.61 35.5954 210.536 35.2785 210.482 34.9579C210.5 34.7906 210.463 34.6222 210.378 34.477C210.329 34.402 210.273 34.3323 210.209 34.269C206.31 37.9866 201.838 40.2094 196.379 39.7804H196.119C195.651 39.7332 195.187 39.6594 194.728 39.5595C193.352 39.2756 192.13 38.4932 191.296 37.3627L193.246 35.7508C193.733 36.0466 194.271 36.2494 194.832 36.3488C195.122 36.3517 195.41 36.2941 195.677 36.1798C195.947 36.061 196.186 35.8834 196.379 35.6598C196.561 35.4779 196.769 35.2699 196.977 35.0229C197.64 34.2796 198.265 33.503 198.848 32.6961C199.97 31.1251 200.896 29.4226 201.604 27.6266C201.956 26.7304 202.255 25.8146 202.501 24.8839C202.54 24.704 202.566 24.5216 202.579 24.338V23.792C202.501 23.0641 202.176 22.6611 201.604 22.6221C201.345 22.6067 201.085 22.6375 200.837 22.7131C199.814 23.0019 198.861 23.4968 198.036 24.1674C197.211 24.838 196.532 25.6702 196.041 26.6127C193.441 31.5133 190.997 36.4398 188.502 41.3793L186.006 46.3188C185.931 46.4782 185.834 46.6268 185.72 46.7607C185.568 46.9515 185.365 47.0957 185.135 47.1767C184.902 47.248 184.653 47.248 184.42 47.1767H179.454C180.338 45.4089 181.222 43.68 182.054 41.9772L184.654 36.7777C183.817 37.2676 182.948 37.7018 182.054 38.0776C180.807 38.6775 179.5 39.1437 178.155 39.4685C176.879 39.7778 175.564 39.8874 174.255 39.7934C172.091 39.5955 170.025 38.7988 168.289 37.4927L169.042 36.8817L169.601 36.4138L170.576 35.6208C170.844 35.805 171.122 35.9742 171.408 36.1278C171.622 36.2301 171.85 36.3001 172.084 36.3358C172.223 36.3488 172.362 36.3488 172.5 36.3358C173.01 36.1276 173.457 35.7919 173.8 35.3609C174.917 34.2097 175.919 32.9514 176.79 31.6042C177.633 30.2961 178.335 28.9017 178.882 27.4447C179.236 26.4709 179.531 25.4769 179.766 24.468C179.831 24.2 179.857 23.9243 179.844 23.649C179.842 23.4374 179.793 23.2289 179.701 23.0381C179.612 22.8706 179.482 22.7278 179.324 22.6221C179.164 22.524 178.98 22.4702 178.792 22.4662C178.267 22.4523 177.748 22.5732 177.284 22.8171C175.528 23.5865 174.095 24.942 173.228 26.6517L168.185 36.5308C166.521 39.8324 164.857 43.1211 163.206 46.4358C163.127 46.6078 163.026 46.7694 162.907 46.9167C162.812 47.0394 162.692 47.1412 162.556 47.2157C162.426 47.2959 162.279 47.3448 162.127 47.3587C161.95 47.3846 161.771 47.3846 161.594 47.3587H156.694L160.385 40.0664L161.685 37.5447L160.879 38.0516L160.242 38.4416C159.102 39.1701 157.823 39.6526 156.486 39.8584C156.053 39.8974 155.618 39.8974 155.186 39.8584C154.247 39.8628 153.343 39.5041 152.662 38.8573C151.981 38.2105 151.577 37.3257 151.533 36.3878C151.052 36.7647 150.597 37.1417 150.155 37.5057L148.855 38.5456C147.868 39.2333 146.733 39.6786 145.541 39.8454C145.151 39.8714 144.76 39.8714 144.371 39.8454C143.985 39.8089 143.603 39.7438 143.227 39.6504C142.449 39.479 141.755 39.0425 141.264 38.4156C140.77 37.7965 140.508 37.0239 140.523 36.2318C140.588 34.1584 141.159 32.1323 142.187 30.3304C142.772 29.1345 143.344 27.9386 143.981 26.7817C144.062 26.6384 144.136 26.4909 144.202 26.3398C144.308 26.079 144.37 25.8021 144.384 25.5209C144.388 25.2708 144.34 25.0227 144.241 24.7929C144.062 24.4142 143.795 24.0842 143.461 23.831C143.175 23.5971 142.915 23.3501 142.551 23.0121C142.265 23.4931 142.005 23.922 141.758 24.312C141.23 25.2392 140.684 26.1621 140.12 27.0807C138.701 29.4223 137.092 31.6438 135.311 33.723C134.973 34.113 134.661 34.503 134.31 34.8669C133.629 35.5825 132.909 36.2595 132.152 36.8947C131.739 37.258 131.305 37.5966 130.852 37.9086C130.217 38.3356 129.542 38.7012 128.837 39.0005C128.104 39.2997 127.342 39.5219 126.563 39.6634C126.218 39.718 125.871 39.7527 125.523 39.7674C125.177 39.7934 124.829 39.7934 124.483 39.7674L123.885 39.6504C123.611 39.6116 123.341 39.5463 123.079 39.4555C122.599 39.3265 122.155 39.091 121.779 38.7665C121.359 38.3321 121.036 37.8138 120.83 37.2457C120.622 36.6764 120.533 36.0701 120.57 35.4649L119.478 36.4138L118.439 37.2847C117.308 38.2201 116.012 38.9344 114.617 39.3905C114.148 39.531 113.67 39.6395 113.187 39.7154L112.329 39.7934C112.065 39.8194 111.8 39.8194 111.536 39.7934C111.092 39.7679 110.654 39.6758 110.236 39.5205C109.865 39.3708 109.518 39.1647 109.209 38.9095C109.054 38.7753 108.91 38.6274 108.781 38.4676C108.34 37.9215 108.001 37.3007 107.78 36.6347C107.247 36.9987 106.727 37.4017 106.207 37.7656C105.684 38.1468 105.136 38.4942 104.569 38.8055C103.393 39.5079 102.038 39.8555 100.669 39.8064C100.162 39.7803 99.6659 39.6435 99.2168 39.4054C98.7677 39.1674 98.3761 38.834 98.0696 38.4286C97.5246 37.7106 97.1591 36.8727 97.0037 35.9848C96.936 35.6325 96.8883 35.2766 96.8607 34.9189C96.0365 35.7487 95.1687 36.5341 94.261 37.2717C93.7923 37.6591 93.3019 38.0193 92.7921 38.3506C92.306 38.6532 91.7976 38.9183 91.2713 39.1435C90.7519 39.3649 90.212 39.5347 89.6594 39.6504C89.3767 39.7128 89.09 39.7563 88.8015 39.7804C88.5074 39.8064 88.2116 39.8064 87.9176 39.7804H87.5926C87.1494 39.7377 86.713 39.6417 86.2927 39.4945C85.9092 39.353 85.553 39.1463 85.2398 38.8835C85.0969 38.7405 84.9539 38.5846 84.8239 38.4286C84.3978 37.8611 84.0965 37.2099 83.94 36.5178C83.68 36.7257 83.446 36.9597 83.1991 37.1677C82.9629 37.3756 82.7059 37.5586 82.4321 37.7136L80.4823 38.8055C79.8121 39.1702 79.1008 39.4538 78.3635 39.6504C78.0741 39.7287 77.7783 39.7809 77.4796 39.8064C77.2029 39.8324 76.9244 39.8324 76.6477 39.8064C76.3921 39.7782 76.1397 39.7259 75.8938 39.6504C74.9901 39.3583 74.2137 38.7657 73.6934 37.9711C73.1732 37.1766 72.9405 36.228 73.0341 35.2829V33.983L71.8252 34.399C71.032 34.7239 70.2204 35.0017 69.3944 35.2309C69.0049 35.3222 68.6098 35.3873 68.2116 35.4259C67.1467 35.4925 66.1209 35.8524 65.2479 36.4658C64.9437 36.6679 64.6528 36.8893 64.3769 37.1287C63.0775 38.2236 61.5497 39.0141 59.9054 39.4425C59.5804 39.5205 59.2555 39.5984 58.9305 39.6504C58.2556 39.7567 57.5728 39.8045 56.8897 39.7934H56.1878C55.3667 39.7388 54.5595 39.5545 53.796 39.2475C52.7824 38.8317 51.9173 38.1207 51.3132 37.2067C50.9745 36.654 50.7204 36.0537 50.5593 35.4259L50.4423 34.9319C50.3728 34.5672 50.3293 34.1979 50.3123 33.827C50.2741 32.3759 50.4672 30.9279 50.8843 29.5375C51.46 27.5117 52.3363 25.5838 53.484 23.818C55.0462 21.2705 57.3002 19.2193 59.9834 17.9036C60.8136 17.5235 61.6864 17.2443 62.5831 17.0717C63.9768 16.7947 65.4142 16.8258 66.7947 17.1627C67.6152 17.3465 68.381 17.7206 69.0305 18.2546C69.6911 18.7771 70.217 19.4501 70.5643 20.2174C71.0098 21.2081 71.2104 22.2915 71.1493 23.3761C71.1738 24.7805 71.0209 26.1825 70.6943 27.5487C70.2786 28.8936 69.7435 30.1986 69.0955 31.4483C68.9265 31.7732 68.7835 32.0852 68.4715 32.7481L69.2645 32.4752C69.9636 32.2757 70.6392 32.0011 71.2792 31.6562C73.0286 30.6866 74.4019 29.1577 75.1789 27.3147C75.7766 25.8678 76.5077 24.4796 77.3626 23.1681C78.2293 21.8281 79.2745 20.6124 80.4693 19.5545C81.1051 18.9834 81.8131 18.4983 82.5751 18.1116C83.333 17.7289 84.1507 17.4783 84.9929 17.3707C85.4811 17.3187 85.9735 17.3187 86.4617 17.3707C86.6807 17.3809 86.8983 17.4114 87.1117 17.4617C87.7567 17.6282 88.3592 17.9294 88.8795 18.3456C89.418 18.7628 89.8611 19.2901 90.1794 19.8924C90.3093 20.1134 90.4523 20.3604 90.5823 20.6333L97.8226 18.0336C97.5756 18.5926 97.4196 18.9955 97.2247 19.3335C95.1709 23.4931 93.0911 27.6396 91.0633 31.7992C90.8293 32.2802 90.6343 32.7741 90.4523 33.2681C90.2752 33.7626 90.1233 34.2659 89.9974 34.7759C89.9451 34.9576 89.9189 35.1458 89.9194 35.3349C89.9078 35.4683 89.9301 35.6024 89.9844 35.7248C90.0367 35.8494 90.1221 35.9573 90.2314 36.0368C90.337 36.1137 90.4646 36.1547 90.5953 36.1538C90.9204 36.1707 91.2439 36.0988 91.5312 35.9458C92.259 35.6209 92.9304 35.1822 93.52 34.6459C96.0432 32.5057 98.1042 29.8742 99.5774 26.9117C100.686 24.2277 102.362 21.8154 104.491 19.8404C104.827 19.545 105.179 19.2673 105.544 19.0085C105.914 18.75 106.3 18.5155 106.701 18.3066C107.291 18.0043 107.915 17.7731 108.56 17.6177C108.851 17.55 109.146 17.5022 109.443 17.4747C109.72 17.4487 109.999 17.4487 110.275 17.4747C110.72 17.5111 111.157 17.6073 111.575 17.7606C111.98 17.907 112.362 18.1129 112.706 18.3716C113.477 18.9738 114.096 19.7485 114.513 20.6333C115.059 19.5675 115.579 18.5926 116.073 17.6047C117.204 15.3819 118.348 13.1721 119.426 10.9233C119.503 10.6976 119.638 10.496 119.816 10.3384C119.991 10.1807 120.208 10.0769 120.44 10.0394H125.9C125.9 10.1824 125.77 10.2994 125.718 10.4294L125.289 11.1183C121.823 17.9816 118.356 24.8579 114.89 31.7472C114.656 32.2412 114.448 32.7351 114.266 33.2421C114.084 33.749 113.928 34.269 113.798 34.7889C113.766 34.9651 113.766 35.1457 113.798 35.3219C113.797 35.46 113.824 35.5969 113.876 35.7248C113.924 35.8377 114.006 35.933 114.11 35.9978C114.212 36.0616 114.328 36.1016 114.448 36.1148C114.73 36.1185 115.009 36.0467 115.254 35.9068C116.388 35.3564 117.439 34.6473 118.374 33.801C120.242 32.0356 121.884 30.0445 123.261 27.8736C123.703 27.1587 124.119 26.4178 124.561 25.6508C125.172 24.351 125.783 23.1681 126.42 21.9202L128.331 18.1116H124.691C125.198 17.1367 125.588 16.3048 126.069 15.5119C126.198 15.35 126.384 15.2432 126.589 15.2129H126.862C127.104 15.2771 127.352 15.3163 127.603 15.3299C127.823 15.3558 128.045 15.3558 128.266 15.3299C128.654 15.297 129.03 15.1817 129.37 14.9919C129.701 14.7915 129.996 14.5366 130.241 14.238C130.643 13.7087 130.971 13.1271 131.216 12.5092C132.23 10.1044 132.386 10.1564 134.999 10.1824H138.405L135.805 15.2259H139.288L138.548 16.6817L137.846 18.0726H134.843C134.649 18.1337 134.468 18.2307 134.31 18.3586C134.24 18.4108 134.183 18.4773 134.141 18.5536C131.845 23.0858 129.574 27.6483 127.33 32.2412C127.087 32.7497 126.896 33.2809 126.758 33.827C126.667 34.152 126.576 34.477 126.511 34.8019C126.485 34.9699 126.485 35.1409 126.511 35.3089C126.502 35.4603 126.529 35.6116 126.589 35.7508C126.655 35.8708 126.748 35.9734 126.862 36.0498C126.975 36.1235 127.104 36.1682 127.239 36.1798C127.492 36.189 127.743 36.1307 127.967 36.0108L128.993 35.4909C129.995 34.9478 130.933 34.2937 131.788 33.5411C133.806 31.6185 135.555 29.4323 136.988 27.0417C137.482 26.2618 137.95 25.4819 138.418 24.6889C138.496 24.559 138.574 24.429 138.639 24.299C138.859 23.909 139.08 23.5191 139.327 23.1421C139.573 22.7917 139.782 22.4171 139.951 22.0242C140.046 21.789 140.09 21.5366 140.081 21.2833C140.07 21.0079 139.989 20.7397 139.847 20.5034C139.776 20.376 139.688 20.2581 139.587 20.1524C139.472 19.9606 139.392 19.7491 139.353 19.5285C139.308 19.3054 139.308 19.0755 139.353 18.8525C139.338 18.6687 139.374 18.4843 139.457 18.3196C139.637 17.6729 139.942 17.0679 140.354 16.5388C140.929 15.7191 141.728 15.0827 142.655 14.7059C142.901 14.6409 143.155 14.6146 143.409 14.6279C143.604 14.6512 143.795 14.6948 143.981 14.7579C144.708 15.028 145.375 15.4387 145.944 15.9668L145.307 17.2667C145.099 17.6956 144.865 18.1246 144.631 18.5666C144.564 18.6761 144.511 18.7941 144.475 18.9175C144.397 19.2425 144.475 19.4765 144.878 19.7364C146.178 20.6463 147.361 21.5693 148.531 22.5702C148.906 22.8903 149.235 23.2623 149.505 23.675C149.875 24.2845 150.07 24.9836 150.07 25.6963C150.07 26.4091 149.875 27.1081 149.505 27.7176C148.388 29.9274 147.465 32.2022 146.477 34.451C146.356 34.77 146.312 35.1127 146.347 35.4519C146.325 35.648 146.38 35.845 146.502 36.0006C146.623 36.1561 146.801 36.2578 146.997 36.2838C147.24 36.2847 147.477 36.2072 147.673 36.0628C148.124 35.7775 148.559 35.465 148.972 35.1269C149.364 34.7918 149.737 34.436 150.09 34.061C150.61 33.4891 151.104 32.9171 151.572 32.3322C152.497 31.164 153.335 29.9303 154.081 28.6405C154.458 27.9906 154.796 27.3407 155.121 26.6647C155.719 25.3649 156.421 24.065 156.993 22.8821C157.565 21.6992 158.293 20.3734 158.903 19.1125C159.016 18.8669 159.202 18.6624 159.436 18.5276C159.669 18.3935 159.936 18.3345 160.203 18.3586H165.325C165.143 18.7225 165.013 19.0215 164.87 19.3075C163.791 21.4393 162.66 23.5581 161.568 25.6898C160.476 27.8216 159.384 29.9534 158.397 32.1892C157.941 33.1859 157.605 34.2331 157.396 35.3089C157.317 35.5408 157.317 35.7919 157.396 36.0238C157.448 36.1084 157.519 36.1796 157.604 36.2318C157.692 36.2813 157.789 36.3123 157.89 36.3228H158.189L158.527 36.1928L159.007 35.9328C159.449 35.6858 159.878 35.4519 160.307 35.1789C160.872 34.8153 161.402 34.4021 161.893 33.944C162.491 33.3721 163.076 32.7871 163.622 32.1892C165.273 30.4133 166.645 28.3972 167.691 26.2098C168.912 23.61 170.29 21.0883 171.59 18.4106L173.709 19.1385L175.763 19.8924C175.937 19.9674 176.121 20.0156 176.309 20.0354C176.504 20.0444 176.698 20.0134 176.881 19.9444C177.064 19.8733 177.232 19.7674 177.375 19.6324C178.631 18.6023 180.196 18.0212 181.82 17.9816H182.483C183.289 17.9945 184.068 18.2785 184.693 18.7879C185.317 19.2973 185.753 20.0023 185.928 20.7893C186.2 21.8147 186.266 22.8839 186.123 23.935C186.054 24.4122 185.958 24.8853 185.837 25.3519C185.694 25.9356 185.512 26.5089 185.291 27.0677C184.69 28.6988 183.937 30.2699 183.042 31.7602C182.102 33.2823 181.046 34.7294 179.883 36.0888L179.649 36.3748L179.298 36.8297C180.265 36.495 181.193 36.0593 182.067 35.5299C182.875 35.036 183.641 34.4751 184.355 33.853C184.914 33.3591 185.46 32.8521 185.98 32.3322C187.002 31.3062 187.917 30.1781 188.709 28.9655C189.098 28.352 189.453 27.7185 189.775 27.0677C190.451 25.6638 191.153 24.273 191.881 22.8561C192.609 21.4393 193.337 20.0354 194.078 18.5796C195.508 19.0735 196.899 19.5285 198.251 20.0484C198.434 20.1177 198.627 20.1615 198.823 20.1784C199.008 20.2104 199.199 20.2015 199.381 20.1524C199.56 20.0858 199.724 19.9842 199.862 19.8534C200.801 19.0948 201.906 18.5692 203.086 18.3196C203.484 18.242 203.889 18.2028 204.295 18.2026H204.906C205.712 18.1876 206.504 18.4139 207.181 18.8525C207.793 19.3924 208.22 20.1107 208.403 20.9063C208.858 22.9623 208.634 25.1105 207.766 27.0287C207.167 28.6526 206.414 30.2152 205.517 31.6952C204.61 33.2014 203.589 34.6355 202.462 35.9848L202.007 36.5308L202.163 36.7517C203.289 36.1847 204.383 35.5555 205.439 34.8669C208.297 32.9313 210.61 30.2953 212.159 27.2107C213.691 23.6982 216.424 20.8459 219.867 19.1645C221.483 18.3809 223.276 18.0358 225.067 18.1636C225.451 18.2008 225.833 18.2572 226.211 18.3326C227.364 18.5333 228.431 19.0716 229.278 19.8794C229.747 20.3643 230.086 20.9586 230.266 21.6083C230.511 22.7498 230.398 23.9393 229.941 25.0139C229.745 25.5415 229.51 26.0542 229.239 26.5478C228.74 27.469 228.1 28.3067 227.342 29.0305C226.977 29.3818 226.581 29.6994 226.159 29.9794C224.312 31.1651 222.153 31.7716 219.958 31.7212H216.995C216.888 31.6953 216.776 31.6953 216.67 31.7212C216.562 31.747 216.464 31.8008 216.384 31.8772C216.265 32.0377 216.189 32.2255 216.163 32.4232C215.682 34.7759 216.683 36.1408 219.152 36.3228H219.464C220.532 36.3754 221.6 36.2435 222.623 35.9328C223.141 35.7884 223.649 35.6103 224.144 35.3999C224.638 35.1919 225.119 34.9449 225.6 34.6849C227.37 33.6972 228.964 32.4234 230.318 30.9153C231.155 29.9836 231.924 28.9931 232.619 27.9516C233.828 26.1968 234.894 24.364 235.973 22.5442C236.014 22.471 236.045 22.3922 236.064 22.3102C236.103 22.1434 236.103 21.97 236.064 21.8032C236.052 21.7335 236.025 21.6671 235.986 21.6083C235.511 21.1047 235.242 20.4415 235.232 19.7494C235.245 19.1864 235.401 18.636 235.687 18.1506C235.761 18.0075 235.844 17.8686 235.934 17.7346C236.141 17.4429 236.367 17.165 236.61 16.9027C236.92 16.5921 237.25 16.3012 237.598 16.0318C237.809 15.8619 238.041 15.7179 238.287 15.6029C238.635 15.421 239.024 15.3315 239.417 15.3429C239.826 15.3829 240.221 15.5115 240.574 15.7198C241.055 15.9971 241.512 16.3145 241.939 16.6687C241.718 17.0717 241.51 17.4877 241.302 17.8906L240.613 19.1905C240.555 19.3027 240.507 19.4202 240.47 19.5415C240.444 19.635 240.444 19.7339 240.47 19.8274C240.484 19.926 240.53 20.0173 240.6 20.0874C240.682 20.1795 240.774 20.2623 240.873 20.3344C241.497 20.7763 242.173 21.2183 242.732 21.6342C243.291 22.0502 243.954 22.5442 244.539 23.0381C244.916 23.337 245.245 23.6921 245.514 24.091C245.879 24.6228 246.074 25.2528 246.073 25.8978C246.064 26.3685 245.977 26.8343 245.813 27.2757C245.718 27.5241 245.609 27.7671 245.488 28.0036C244.383 30.1354 243.46 32.3322 242.485 34.503C242.373 34.7743 242.324 35.0677 242.342 35.3609C242.329 35.4818 242.329 35.6039 242.342 35.7248C242.369 35.8692 242.447 35.9987 242.563 36.0888C242.669 36.189 242.807 36.2488 242.953 36.2578C243.226 36.2704 243.494 36.1825 243.707 36.0108C244.611 35.4702 245.441 34.8148 246.177 34.061C249.4 30.6293 251.675 26.6517 254.21 22.8431C254.769 22.0112 255.302 21.1533 255.835 20.2434C256.368 19.3335 256.901 18.4886 257.46 17.6436L262.503 19.0475C260.813 24.442 261.463 29.8494 260.8 35.3349C261.142 35.1455 261.464 34.9235 261.762 34.6719L264.284 31.9812C265.116 31.0713 265.948 30.1614 266.741 29.2385C266.889 29.0663 267.055 28.9095 267.235 28.7705C267.373 28.6674 267.543 28.6167 267.716 28.6275C267.924 28.6541 268.12 28.745 268.275 28.8875C268.405 28.9915 268.561 29.0825 268.716 29.1865C269.093 29.4855 269.574 29.8234 268.911 30.5514Z" fill="white"/>
<path d="M54.4849 13.848C54.527 14.7269 54.4171 15.6063 54.16 16.4478C53.7546 17.7453 53.0306 18.9207 52.0542 19.8664C51.7292 20.1654 51.4042 20.4644 51.0663 20.7243C50.404 21.2669 49.6949 21.7497 48.9475 22.1672C47.0638 23.1926 45.0272 23.908 42.9161 24.286C42.9811 24.403 43.0201 24.533 43.0981 24.585C45.7628 26.3008 46.4777 28.8875 46.3477 31.8772C46.274 33.368 46.3044 34.8622 46.4387 36.3488C46.4667 36.6577 46.5277 36.9628 46.6207 37.2587C46.7998 37.816 47.1558 38.2998 47.6346 38.6365C47.8902 38.8024 48.1712 38.9254 48.4665 39.0005C48.544 39.0136 48.6231 39.0136 48.7005 39.0005C49.2205 39.0005 49.8314 38.8705 50.2214 38.9095C50.2858 38.8972 50.3519 38.8972 50.4163 38.9095C50.4792 38.9378 50.5332 38.9827 50.5723 39.0395C50.615 39.1288 50.6372 39.2265 50.6372 39.3255C50.6372 39.4244 50.615 39.5222 50.5723 39.6114C50.47 39.9561 50.2937 40.2742 50.0557 40.5436C49.8177 40.813 49.5238 41.0272 49.1945 41.1713C48.4361 41.5082 47.6192 41.6936 46.7897 41.7172H45.0219C44.4757 41.7091 43.9315 41.6481 43.397 41.5353L42.7341 41.3793L42.2012 41.2233C41.6919 41.0341 41.2175 40.7618 40.7973 40.4174C40.1516 39.8649 39.6629 39.152 39.3804 38.3506C39.0569 37.4519 38.9241 36.4957 38.9905 35.5429C39.0945 33.4631 39.3674 31.3833 39.4584 29.3035C39.4778 28.4248 39.3638 27.5483 39.1205 26.7037C38.9147 26.0542 38.51 25.4859 37.9636 25.0789C37.6918 24.8728 37.3948 24.7025 37.0797 24.572C36.9241 24.5064 36.7632 24.4542 36.5987 24.416L36.1048 24.338H35.5978C35.3118 24.338 34.9609 24.7669 34.8439 25.0659C34.077 27.1457 33.297 29.2255 32.5431 31.3053C31.7892 33.3851 31.0353 35.4779 30.3073 37.5837C30.2268 37.8295 30.1268 38.0686 30.0084 38.2986C29.865 38.6224 29.6466 38.9076 29.3714 39.1305C29.0986 39.3624 28.7726 39.5231 28.4225 39.5984C27.2916 39.8714 26.1478 40.1054 25.0299 40.4304C24.7615 40.5166 24.4793 40.5518 24.198 40.5344C24.0446 40.534 23.8934 40.4984 23.756 40.4304C23.6126 40.3668 23.4841 40.2738 23.379 40.1574C23.2083 39.8728 23.106 39.5524 23.0801 39.2215C23.0623 38.8909 23.1247 38.5609 23.262 38.2596C23.457 37.6096 23.665 36.9597 23.86 36.3098C24.185 35.2569 24.5229 34.204 24.9259 33.1771C26.2258 29.7194 27.6556 26.2748 29.0205 22.7781C30.3853 19.2815 31.6982 15.8368 32.9981 12.3532C33.3347 11.4462 33.8421 10.6122 34.4929 9.89642C35.5595 8.78092 36.9064 7.97277 38.3925 7.55666L38.8995 7.38767L39.6794 7.1537L38.1976 7.06271H37.4306C34.9064 7.06145 32.3947 7.4159 29.9694 8.1156C28.4725 8.54003 27.0452 9.17928 25.7318 10.0134C24.6748 10.7638 23.7888 11.7296 23.1321 12.8471C22.9737 13.0833 22.8633 13.3483 22.8071 13.627C22.7486 13.91 22.7486 14.202 22.8071 14.485C22.8633 14.7637 22.9737 15.0287 23.1321 15.2649C23.2988 15.4987 23.5056 15.7012 23.743 15.8628C24.094 16.1748 24.4579 16.4608 24.8219 16.7597L25.1729 17.0587C25.925 17.7254 26.3906 18.6567 26.4727 19.6584C26.4944 19.8222 26.5031 19.9873 26.4987 20.1524C26.447 20.5218 26.3281 20.8787 26.1478 21.2053C25.8034 21.818 25.2947 22.3223 24.6789 22.6611C24.3754 22.8336 24.0463 22.9565 23.704 23.0251C23.3551 23.1074 22.9959 23.1381 22.6381 23.1161H22.5991C21.8104 23.0882 21.0409 22.8644 20.3602 22.465C19.6794 22.0657 19.1087 21.5032 18.6995 20.8283C17.8957 19.447 17.5798 17.8354 17.8026 16.2528C18.0525 14.1155 18.9979 12.1196 20.4933 10.5724C20.9351 10.1022 21.4132 9.6676 21.9232 9.27249C23.3065 8.19693 24.8506 7.34592 26.4987 6.75074C27.2526 6.47777 28.0196 6.24379 28.8125 6.03581C31.6348 5.29361 34.5385 4.90501 37.4566 4.87893C38.4154 4.86139 39.3744 4.89611 40.3293 4.98291C40.9833 5.00717 41.6348 5.07666 42.2791 5.19089C42.9291 5.28189 43.579 5.39887 44.229 5.52886C45.5479 5.78873 46.8501 6.1273 48.1286 6.54276C50.2074 7.10045 52.0273 8.36429 53.276 10.1174C54.0151 11.2258 54.4335 12.5168 54.4849 13.848Z" fill="white"/>
<path d="M111.276 22.362C111.132 22.2973 110.978 22.2577 110.821 22.245C110.459 22.2284 110.097 22.2997 109.768 22.453C109.598 22.5133 109.433 22.5872 109.274 22.674C108.979 22.8131 108.707 22.9972 108.468 23.2199C106.998 24.5683 105.782 26.1712 104.881 27.9515C104.444 28.7924 104.062 29.6608 103.737 30.5512C103.412 31.4221 103.126 32.306 102.879 33.1509C102.84 33.4312 102.84 33.7156 102.879 33.9959C102.983 34.7108 103.347 35.0878 103.932 35.1398C104.218 35.1475 104.504 35.108 104.777 35.0228C105.673 34.7637 106.505 34.3211 107.221 33.7229C107.91 33.1256 108.491 32.4131 108.936 31.6171C109.131 31.2661 109.313 30.9022 109.495 30.5382C110.418 28.8094 111.263 27.0546 112.095 25.3387C112.279 24.9317 112.342 24.4806 112.277 24.0389C112.221 23.553 112.012 23.0977 111.679 22.739C111.568 22.5908 111.432 22.4632 111.276 22.362Z" fill="#1D2B43"/>
<path d="M65.3518 21.2831C65.178 21.1234 64.9685 21.0076 64.7409 20.9452C64.5149 20.8868 64.2779 20.8868 64.0519 20.9452C63.888 20.9694 63.7296 21.0222 63.584 21.1012C62.8925 21.4106 62.249 21.8177 61.6732 22.31C61.4831 22.4655 61.305 22.6349 61.1402 22.817C58.9704 25.2197 57.3708 28.0812 56.4607 31.1881C56.1133 32.2391 55.9635 33.3453 56.0187 34.4508C55.9862 34.627 55.9862 34.8076 56.0187 34.9838C56.0842 35.1533 56.1763 35.3113 56.2917 35.4517C56.4187 35.5853 56.5683 35.6953 56.7337 35.7767C56.8969 35.8533 57.0735 35.8975 57.2536 35.9067C57.633 35.9225 58.0098 35.8372 58.3455 35.6597C58.8477 35.3937 59.3261 35.0849 59.7754 34.7368C60.2433 34.3858 60.6983 34.0219 61.1792 33.6709C60.9712 33.2809 60.8412 33.034 60.7373 32.813L60.6463 32.605C60.4802 32.1479 60.4223 31.6584 60.4773 31.1751C60.5618 30.4516 60.8815 29.7757 61.3872 29.2513C61.7097 28.8901 62.1159 28.6134 62.5701 28.4454C62.8051 28.3548 63.0491 28.2894 63.298 28.2504C63.5393 28.2489 63.7763 28.1863 63.9869 28.0685C64.2025 27.9502 64.3856 27.7805 64.5199 27.5745C64.5918 27.4231 64.6526 27.2667 64.7019 27.1066C64.7355 26.9332 64.7969 26.7664 64.8838 26.6126C64.8838 26.4436 65.1568 25.9497 65.2738 25.6247C65.3908 25.2997 65.3648 25.2867 65.4038 25.1178C65.5078 24.6238 65.5988 24.1299 65.6638 23.6229C65.7157 23.1347 65.7157 22.6423 65.6638 22.1541C65.6536 21.8382 65.5445 21.5336 65.3518 21.2831Z" fill="#1D2B43"/>
<path d="M273.474 29.0434C273.318 28.3067 273.007 27.6113 272.564 27.0026C272.114 26.396 271.538 25.8948 270.874 25.5337C270.073 24.8937 269.101 24.5048 268.08 24.4158C267.275 24.349 266.467 24.483 265.727 24.8058C265.866 23.2983 266.158 21.8089 266.598 20.3602C266.768 19.8098 266.83 19.2314 266.78 18.6574C266.72 18.0818 266.543 17.5244 266.26 17.0196C265.981 16.5134 265.601 16.0707 265.142 15.7197C264.687 15.3668 264.165 15.1103 263.608 14.9658L258.525 13.5489C258.265 13.4813 258 13.4335 257.733 13.4059C256.964 13.354 256.196 13.5113 255.51 13.8609C254.824 14.2137 254.245 14.7432 253.833 15.3947C253.456 15.9927 253.105 16.5776 252.754 17.1496C252.026 18.3194 251.35 19.4243 250.635 20.4902L249.452 22.31C248.897 21.3382 248.165 20.4786 247.295 19.7753C246.809 19.3767 246.315 18.9867 245.813 18.6054C246.244 17.7394 246.367 16.7522 246.162 15.8068C245.956 14.8614 245.434 14.0145 244.682 13.4059C243.336 12.1721 241.643 11.3824 239.833 11.1442C238.657 11.1151 237.489 11.3526 236.418 11.8388C235.346 12.325 234.399 13.0474 233.646 13.9519C232.934 14.6653 232.338 15.4854 231.878 16.3826C230.504 15.2569 228.867 14.4968 227.121 14.1728C226.572 14.0558 226.016 13.9776 225.457 13.9389C222.929 13.7431 220.394 14.2231 218.113 15.3297C215.966 16.319 214.022 17.6986 212.38 19.3983C211.923 17.8433 210.992 16.4695 209.718 15.4677C208.444 14.466 206.889 13.8862 205.27 13.8089H204.282C202.234 13.8333 200.232 14.4225 198.497 15.5117L196.782 14.9528L195.482 14.5108C194.91 14.3141 194.303 14.2402 193.7 14.294C193.098 14.3477 192.513 14.5279 191.985 14.8228C191.261 15.226 190.669 15.8312 190.282 16.5646C190.009 17.1236 189.723 17.6695 189.437 18.2154C188.849 16.9204 187.919 15.8108 186.746 15.0066C185.573 14.2024 184.202 13.7343 182.782 13.6529H181.82C179.752 13.6639 177.729 14.2587 175.984 15.3687L174.255 14.7578L172.955 14.3288C172.605 14.2128 172.243 14.1343 171.876 14.0949C171.207 14.0485 170.535 14.1552 169.913 14.4068C170.261 13.6475 170.477 12.8341 170.55 12.0021C170.629 11.0676 170.523 10.1268 170.238 9.23334C169.965 8.34733 169.523 7.52212 168.938 6.80259C168.293 6.03996 167.499 5.41633 166.605 4.96946C165.712 4.52259 164.736 4.26179 163.739 4.20285H163.31C161.374 4.15625 159.489 4.83181 158.024 6.09805C156.558 7.36429 155.616 9.13059 155.381 11.0532C155.224 12.5713 155.551 14.1002 156.317 15.4207C155.772 15.914 155.33 16.5105 155.017 17.1755L153.483 20.1523L152.976 21.1402C152.498 20.4478 151.93 19.8226 151.286 19.2813C150.753 18.8264 150.233 18.3974 149.687 17.9815V17.9035C150.129 17.0472 150.266 16.0664 150.078 15.1217C149.889 14.177 149.384 13.3246 148.647 12.704C147.279 11.4315 145.548 10.618 143.695 10.3772C143.306 10.3382 142.914 10.3382 142.525 10.3772C142.553 9.55452 142.341 8.74149 141.914 8.03746C141.567 7.45895 141.086 6.97286 140.51 6.62061C139.939 6.25962 139.287 6.0453 138.612 5.99667H134.83C132.308 5.99667 130.618 6.24364 129.253 7.62151C128.897 7.12271 128.438 6.70659 127.906 6.40152C127.374 6.09644 126.783 5.90958 126.173 5.85368H121.129C119.962 5.74808 118.792 6.01273 117.784 6.61006C116.776 7.2074 115.982 8.10706 115.514 9.18135C114.76 10.7542 113.941 12.353 113.148 13.9259C112.318 13.591 111.441 13.3892 110.548 13.3279C108.511 13.1999 106.478 13.6505 104.686 14.6278C103.609 15.1697 102.608 15.8515 101.709 16.6556C101.523 16.1239 101.233 15.6345 100.856 15.2155C100.48 14.7965 100.024 14.4564 99.515 14.2146C99.0062 13.9729 98.4545 13.8344 97.8918 13.8071C97.3291 13.7799 96.7665 13.8644 96.2367 14.0559L91.9991 15.5897C90.5894 14.1733 88.7149 13.3146 86.7217 13.172C85.9284 13.1068 85.1302 13.133 84.3429 13.2499C81.8097 13.6095 79.4469 14.7342 77.5706 16.4736C76.5886 17.3383 75.6879 18.2912 74.8798 19.3203C74.3169 17.8158 73.3876 16.4755 72.1761 15.4207C70.9617 14.3523 69.5012 13.602 67.9255 13.2369C67.2006 13.0558 66.4612 12.9383 65.7158 12.886C63.3114 12.6979 60.8974 13.0995 58.6835 14.0559C58.6708 11.8396 58.021 9.67375 56.8116 7.81649C55.0392 5.29111 52.4498 3.45461 49.4804 2.61701C46.667 1.66856 43.7532 1.04916 40.7973 0.771191C36.4287 0.434881 32.0347 0.834738 27.7986 1.95407C23.8753 2.82403 20.2734 4.77356 17.3996 7.58251C15.6563 9.36097 14.4349 11.5841 13.8687 14.0093C13.3025 16.4345 13.4133 18.9686 14.1889 21.3351C14.7937 23.0037 15.8681 24.4618 17.2826 25.5337C18.6972 26.5972 20.3911 27.2251 22.1571 27.3405H22.5991C22.0401 28.7444 21.4812 30.1612 20.9352 31.5651C20.3893 32.969 19.8823 34.5808 19.4404 36.0367L19.1674 36.9336C18.8412 37.8262 18.7254 38.7821 18.8292 39.7268C18.9329 40.6714 19.2532 41.5794 19.7654 42.38C20.2304 43.0626 20.8436 43.6314 21.5592 44.0439C22.2742 44.4558 23.0752 44.6961 23.8989 44.7458C24.7104 44.7982 25.5247 44.7058 26.3037 44.4728C26.9016 44.2908 27.6036 44.1349 28.2665 43.9789L29.4884 43.6929C30.6379 43.3935 31.6881 42.7959 32.5326 41.9606C33.3771 41.1252 33.9861 40.0816 34.2979 38.9354L34.8048 37.4665C34.9524 39.2056 35.5971 40.8655 36.6619 42.2483C37.7267 43.6311 39.1667 44.6786 40.8102 45.2657C42.0752 45.6726 43.3845 45.9257 44.7099 46.0197C48.4535 46.3186 51.4172 45.4217 53.185 43.5499C54.0785 43.8413 55.0037 44.0246 55.9407 44.0959H56.9416C60.6847 44.1535 64.3225 42.8562 67.1846 40.4432C67.9645 39.7933 68.2245 39.7413 68.6145 39.7153C69.0044 39.6893 69.3294 39.6373 69.6804 39.5853C70.2881 40.8533 71.2201 41.9383 72.3819 42.7304C73.5438 43.5225 74.8943 43.9935 76.2967 44.0959C77.364 44.1747 78.4369 44.0692 79.4684 43.7839C80.5991 43.4575 81.686 42.9948 82.7051 42.406C84.0084 43.3901 85.5726 43.9687 87.2026 44.0699H88.0735C90.6783 44.0763 93.2259 43.307 95.3918 41.8601C96.7293 43.1843 98.4937 43.9905 100.37 44.1349C102.532 44.241 104.679 43.7269 106.558 42.653L106.805 42.51C108.07 43.4474 109.576 44.0063 111.146 44.1219C112.014 44.1849 112.886 44.1501 113.746 44.0179C115.587 43.7419 117.355 43.1011 118.945 42.1331C120.123 43.1111 121.55 43.7414 123.066 43.9529L123.937 44.0569C124.987 44.1329 126.043 44.0849 127.083 43.9139C130.703 43.1711 133.999 41.3117 136.507 38.5974C136.895 39.8656 137.606 41.0112 138.57 41.9226C139.534 42.8339 140.717 43.4797 142.005 43.7969C142.613 43.9628 143.236 44.0716 143.864 44.1219C146.144 44.2943 148.419 43.7391 150.363 42.536C151.409 43.2803 152.616 43.7659 153.886 43.9529L153.171 45.3697C152.696 46.3101 152.588 47.3933 152.866 48.4093C153.145 49.4252 153.791 50.3015 154.679 50.8682C155.263 51.2491 155.933 51.4771 156.629 51.5311H161.685C162.844 51.6213 164.003 51.3488 165 50.7512C165.991 50.1523 166.779 49.2691 167.262 48.2164C168.107 46.5006 168.964 44.7848 169.861 43.017C171.223 43.5476 172.655 43.8761 174.112 43.9919C174.839 44.0309 175.568 44.0309 176.296 43.9919L175.685 45.2007C175.372 45.8256 175.216 46.517 175.23 47.2155C175.252 47.9123 175.439 48.5937 175.776 49.2043C176.117 49.8157 176.604 50.3335 177.193 50.7122C177.779 51.0878 178.448 51.3152 179.142 51.3751H184.342C185.479 51.4535 186.614 51.1813 187.592 50.5952C188.569 50.0111 189.348 49.1459 189.827 48.1125C190.685 46.3836 191.517 44.7328 192.323 43.134C193.407 43.5348 194.539 43.7884 195.69 43.8879H196.015C200.491 44.2501 204.96 43.1212 208.727 40.6772C210.314 42.269 212.368 43.312 214.59 43.6539C215.24 43.7709 215.89 43.8619 216.527 43.9139C220.525 44.1978 224.519 43.2934 228.005 41.3141C229.62 40.439 231.136 39.3931 232.528 38.1944C232.903 39.5126 233.626 40.7056 234.621 41.6479C235.616 42.5903 236.846 43.2473 238.183 43.5499C238.799 43.717 239.43 43.8258 240.067 43.8749C242.583 44.0677 245.087 43.3682 247.139 41.8991C247.862 42.3841 248.649 42.7648 249.478 43.03C250.787 43.4507 252.139 43.7253 253.508 43.8489C258.041 44.148 262.519 42.7173 266.039 39.8453C268.439 37.9197 270.557 35.6662 272.33 33.1509C272.798 32.5858 273.135 31.9245 273.318 31.2141C273.526 30.5102 273.579 29.7697 273.474 29.0434ZM159.995 10.2082C160.21 9.83815 160.487 9.50824 160.814 9.23334C161.152 8.94779 161.54 8.72742 161.958 8.58341C162.375 8.43649 162.816 8.36604 163.258 8.37543H163.453C163.668 8.40067 163.88 8.43975 164.09 8.49242C164.675 8.64867 165.202 8.96891 165.611 9.41533C165.885 9.70313 166.09 10.05 166.209 10.4292C166.34 10.8044 166.389 11.2034 166.352 11.5991C166.324 12.0551 166.196 12.4992 165.975 12.899C165.636 13.4869 165.152 13.9789 164.571 14.3288C163.985 14.6658 163.323 14.845 162.647 14.8488H162.413C161.993 14.8083 161.584 14.6939 161.204 14.5108C160.853 14.3286 160.54 14.0816 160.281 13.7829C160.021 13.4792 159.827 13.1252 159.709 12.743C159.573 12.3241 159.529 11.8807 159.579 11.4431C159.641 11.0094 159.782 10.5907 159.995 10.2082ZM50.5723 39.6503C50.47 39.9949 50.2937 40.313 50.0557 40.5824C49.8177 40.8519 49.5238 41.0661 49.1944 41.2101C48.436 41.547 47.6191 41.7325 46.7897 41.7561H45.0218C44.4743 41.7351 43.9302 41.6611 43.397 41.5351L42.7341 41.3791L42.2011 41.2231C41.6918 41.034 41.2174 40.7616 40.7973 40.4172C40.1516 39.8648 39.6629 39.1519 39.3804 38.3504C39.0568 37.4518 38.924 36.4955 38.9904 35.5427C39.0944 33.4629 39.3674 31.3831 39.4584 29.3033C39.4777 28.4247 39.3638 27.5481 39.1204 26.7036C38.9147 26.0541 38.51 25.4857 37.9635 25.0788C37.6918 24.8727 37.3947 24.7023 37.0796 24.5718C36.924 24.5063 36.7631 24.4541 36.5987 24.4158L36.1047 24.3378H35.5978C35.3118 24.3378 34.9608 24.7668 34.8438 25.0658C34.0769 27.1456 33.297 29.2253 32.5431 31.3051C31.7892 33.3849 31.0352 35.4777 30.3073 37.5835C30.2267 37.8294 30.1268 38.0684 30.0083 38.2984C29.8649 38.6223 29.6466 38.9074 29.3714 39.1304C29.0985 39.3622 28.7725 39.523 28.4225 39.5983C27.2916 39.8713 26.1477 40.1053 25.0298 40.4302C24.7614 40.5164 24.4793 40.5517 24.1979 40.5342C24.0446 40.5339 23.8934 40.4983 23.756 40.4302C23.6125 40.3667 23.4841 40.2737 23.379 40.1572C23.2083 39.8726 23.1059 39.5522 23.08 39.2213C23.0623 38.8907 23.1247 38.5607 23.262 38.2594C23.457 37.6095 23.665 36.9596 23.8599 36.3096C24.1849 35.2567 24.5229 34.2038 24.9258 33.1769C26.2257 29.7193 27.6556 26.2746 29.0204 22.778C30.3853 19.2813 31.6982 15.8367 32.998 12.353C33.3346 11.4461 33.8421 10.6121 34.4929 9.89628C35.5594 8.78077 36.9063 7.97263 38.3925 7.55651L38.8994 7.38753L39.6794 7.15355L38.1975 7.06256H37.4306C34.9064 7.0613 32.3946 7.41575 29.9693 8.11546C28.4725 8.53988 27.0451 9.17914 25.7318 10.0133C24.6748 10.7636 23.7887 11.7294 23.132 12.847C22.9737 13.0832 22.8632 13.3482 22.807 13.6269C22.7485 13.9099 22.7485 14.2018 22.807 14.4848C22.8632 14.7636 22.9737 15.0286 23.132 15.2647C23.2987 15.4986 23.5056 15.701 23.743 15.8627C24.0939 16.1746 24.4579 16.4606 24.8218 16.7596L25.1728 17.0586C25.9249 17.7252 26.3906 18.6566 26.4727 19.6583C26.4944 19.822 26.503 19.9872 26.4987 20.1523C26.447 20.5217 26.328 20.8786 26.1477 21.2051C25.8034 21.8179 25.2946 22.3221 24.6789 22.661C24.3754 22.8335 24.0462 22.9564 23.704 23.025C23.355 23.1073 22.9959 23.1379 22.6381 23.116H22.5991C21.8103 23.088 21.0409 22.8643 20.3601 22.4649C19.6794 22.0655 19.1087 21.5031 18.6995 20.8282C17.8957 19.4468 17.5798 17.8353 17.8025 16.2526C18.0525 14.1154 18.9979 12.1195 20.4933 10.5722C20.9351 10.1021 21.4132 9.66745 21.9231 9.27234C23.3065 8.19678 24.8506 7.34578 26.4987 6.75059C27.2526 6.47762 28.0195 6.24364 28.8124 6.03566C31.6348 5.29347 34.5384 4.90486 37.4566 4.87878C38.4153 4.86125 39.3743 4.89596 40.3293 4.98277C40.9833 5.00703 41.6347 5.07652 42.2791 5.19075C42.929 5.28174 43.579 5.39873 44.2289 5.52872C45.5478 5.78858 46.85 6.12716 48.1285 6.54261C50.2074 7.1003 52.0273 8.36415 53.276 10.1173C54.0151 11.2256 54.4335 12.5167 54.4849 13.8479C54.527 14.7267 54.4171 15.6062 54.1599 16.4476C53.7546 17.7452 53.0306 18.9205 52.0541 19.8663C51.7292 20.1653 51.4042 20.4642 51.0662 20.7242C50.4039 21.2667 49.6949 21.7496 48.9474 22.167C47.0637 23.1925 45.0272 23.9079 42.916 24.2858C42.981 24.4028 43.02 24.5328 43.098 24.5848C45.7628 26.3006 46.4777 28.8874 46.3477 31.8771C46.2739 33.3679 46.3043 34.862 46.4387 36.3486C46.4667 36.6576 46.5277 36.9626 46.6207 37.2585C46.7997 37.8159 47.1557 38.2996 47.6346 38.6364C47.8902 38.8023 48.1712 38.9252 48.4665 39.0004C48.5439 39.0135 48.623 39.0135 48.7005 39.0004C49.2204 39.0004 49.8313 38.8704 50.2213 38.9094C50.2857 38.8971 50.3519 38.8971 50.4163 38.9094C50.4792 38.9376 50.5331 38.9826 50.5723 39.0394C50.615 39.1286 50.6371 39.2264 50.6371 39.3253C50.6371 39.4243 50.615 39.522 50.5723 39.6113V39.6503ZM268.95 30.5512C268.548 31.1172 268.114 31.6597 267.651 32.176C267.157 32.709 266.806 33.2419 266.351 33.7619C265.451 34.8117 264.444 35.7657 263.348 36.6086C262.285 37.4299 261.128 38.1236 259.903 38.6754C259.515 38.8559 259.115 39.0122 258.707 39.1434C257.913 39.408 257.094 39.5951 256.264 39.7023C255.43 39.7932 254.589 39.7932 253.755 39.7023C252.708 39.6124 251.674 39.4031 250.674 39.0784C249.544 38.5717 248.472 37.9441 247.477 37.2065L248.438 36.6606C249.335 36.1537 250.102 35.7247 250.882 35.3607C250.958 35.335 251.04 35.335 251.116 35.3607C251.316 35.3895 251.509 35.451 251.688 35.5427C251.869 35.634 252.055 35.7122 252.247 35.7767C252.42 35.8313 252.599 35.8661 252.78 35.8807C253.242 35.9236 253.705 35.8044 254.089 35.5435C254.474 35.2827 254.755 34.8964 254.886 34.4508C255.156 33.7042 255.357 32.9339 255.484 32.15C255.562 31.6374 255.614 31.1211 255.64 30.6032C255.783 28.7574 255.926 26.9116 256.082 25.0658L255.744 24.9878C255.549 25.2737 255.367 25.5597 255.159 25.8457C254.093 27.3665 253.04 28.9134 251.974 30.4472C250.908 31.9811 249.816 33.4889 248.659 34.9708C247.529 36.3204 246.217 37.506 244.76 38.4934C244.438 38.7372 244.094 38.9504 243.733 39.1304C243.037 39.4815 242.285 39.706 241.51 39.7933C241.121 39.8323 240.729 39.8323 240.34 39.7933L239.82 39.7153C239.61 39.689 239.402 39.65 239.196 39.5983C238.8 39.5057 238.423 39.3475 238.079 39.1304C237.595 38.8459 237.195 38.4376 236.922 37.9475C236.816 37.7389 236.729 37.5214 236.662 37.2975C236.56 36.9731 236.503 36.6364 236.493 36.2966C236.466 35.3043 236.612 34.3149 236.922 33.3719C237.243 32.4155 237.639 31.4854 238.105 30.5902C238.676 29.4463 239.235 28.2764 239.885 27.1585C240.05 26.9385 240.165 26.6859 240.223 26.4176C240.282 26.1522 240.282 25.8772 240.223 25.6117C240.172 25.3459 240.065 25.0936 239.911 24.8708C239.756 24.6466 239.557 24.4564 239.326 24.3118C239.04 24.0909 238.78 23.8439 238.455 23.5709C237.247 25.4687 236.129 27.3665 234.868 29.1863C232.629 32.708 229.569 35.634 225.951 37.7135C225.233 38.0951 224.495 38.4379 223.741 38.7404C222.644 39.1679 221.501 39.4688 220.335 39.6373C219.952 39.6657 219.57 39.7135 219.191 39.7803C218.413 39.8453 217.63 39.8453 216.852 39.7803C216.414 39.7616 215.978 39.7007 215.552 39.5983H215.383C215.045 39.5333 214.72 39.4553 214.395 39.3643C213.808 39.1912 213.248 38.9374 212.731 38.6104C211.747 37.9877 211.026 37.0257 210.703 35.9067C210.61 35.5953 210.536 35.2784 210.482 34.9578C210.499 34.7905 210.463 34.6221 210.378 34.4768C210.329 34.4019 210.273 34.3322 210.209 34.2688C206.31 37.9865 201.838 40.2092 196.379 39.7803H196.119C195.651 39.7331 195.187 39.6593 194.728 39.5593C193.352 39.2755 192.13 38.493 191.296 37.3625L193.246 35.7507C193.733 36.0465 194.271 36.2492 194.832 36.3486C195.122 36.3515 195.41 36.294 195.677 36.1796C195.947 36.0609 196.186 35.8832 196.379 35.6597C196.561 35.4777 196.769 35.2697 196.977 35.0228C197.64 34.2795 198.264 33.5029 198.848 32.696C199.97 31.1249 200.896 29.4224 201.604 27.6265C201.956 26.7303 202.255 25.8145 202.501 24.8838C202.54 24.7039 202.566 24.5214 202.579 24.3378V23.7919C202.501 23.064 202.176 22.661 201.604 22.622C201.345 22.6065 201.085 22.6373 200.837 22.713C199.814 23.0018 198.861 23.4967 198.036 24.1673C197.211 24.8379 196.532 25.67 196.041 26.6126C193.441 31.5131 190.997 36.4396 188.501 41.3791L186.006 46.3186C185.931 46.478 185.834 46.6267 185.72 46.7606C185.568 46.9514 185.365 47.0955 185.135 47.1765C184.902 47.2478 184.653 47.2478 184.42 47.1765H179.454C180.338 45.4087 181.222 43.6799 182.054 41.9771L184.654 36.7776C183.817 37.2675 182.948 37.7017 182.054 38.0775C180.807 38.6773 179.5 39.1436 178.155 39.4683C176.879 39.7777 175.564 39.8873 174.255 39.7933C172.091 39.5953 170.025 38.7986 168.289 37.4925L169.042 36.8816L169.601 36.4136L170.576 35.6207C170.844 35.8048 171.122 35.974 171.408 36.1277C171.622 36.2299 171.85 36.3 172.084 36.3356C172.222 36.3486 172.362 36.3486 172.5 36.3356C173.01 36.1275 173.457 35.7918 173.8 35.3607C174.917 34.2095 175.919 32.9513 176.79 31.6041C177.633 30.296 178.335 28.9016 178.882 27.4445C179.236 26.4707 179.531 25.4767 179.766 24.4678C179.831 24.1999 179.857 23.9242 179.844 23.6489C179.842 23.4373 179.793 23.2288 179.701 23.038C179.612 22.8705 179.482 22.7276 179.324 22.622C179.164 22.5238 178.98 22.47 178.791 22.466C178.267 22.4522 177.748 22.573 177.284 22.817C175.528 23.5864 174.094 24.9419 173.228 26.6516L168.185 36.5306C166.521 39.8323 164.857 43.121 163.206 46.4356C163.127 46.6077 163.026 46.7693 162.907 46.9166C162.812 47.0393 162.692 47.141 162.556 47.2155C162.426 47.2957 162.279 47.3447 162.127 47.3585C161.95 47.3845 161.771 47.3845 161.594 47.3585H156.694L160.385 40.0663L161.685 37.5445L160.879 38.0515L160.242 38.4414C159.102 39.1699 157.823 39.6525 156.486 39.8583C156.053 39.8973 155.618 39.8973 155.186 39.8583C154.247 39.8626 153.343 39.504 152.662 38.8572C151.981 38.2104 151.577 37.3256 151.533 36.3876C151.052 36.7646 150.597 37.1416 150.155 37.5055L148.855 38.5454C147.868 39.2332 146.732 39.6785 145.541 39.8453C145.151 39.8713 144.76 39.8713 144.371 39.8453C143.985 39.8088 143.603 39.7436 143.227 39.6503C142.449 39.4789 141.755 39.0423 141.264 38.4154C140.77 37.7963 140.508 37.0238 140.523 36.2316C140.588 34.1582 141.159 32.1322 142.187 30.3302C142.772 29.1344 143.344 27.9385 143.981 26.7816C144.062 26.6383 144.136 26.4907 144.202 26.3396C144.308 26.0789 144.37 25.802 144.384 25.5207C144.388 25.2707 144.34 25.0226 144.241 24.7928C144.062 24.414 143.795 24.084 143.461 23.8309C143.175 23.5969 142.915 23.3499 142.551 23.012C142.265 23.4929 142.005 23.9219 141.758 24.3118C141.23 25.2391 140.684 26.162 140.12 27.0806C138.701 29.4221 137.092 31.6437 135.311 33.7229C134.973 34.1129 134.661 34.5028 134.31 34.8668C133.629 35.5824 132.909 36.2593 132.152 36.8946C131.739 37.2579 131.305 37.5964 130.852 37.9085C130.217 38.3355 129.542 38.7011 128.837 39.0004C128.104 39.2996 127.342 39.5218 126.563 39.6633C126.218 39.7179 125.871 39.7526 125.523 39.7673C125.177 39.7933 124.829 39.7933 124.483 39.7673L123.885 39.6503C123.611 39.6115 123.341 39.5462 123.079 39.4553C122.599 39.3264 122.155 39.0909 121.779 38.7664C121.359 38.3319 121.036 37.8137 120.83 37.2455C120.622 36.6762 120.533 36.0699 120.57 35.4647L119.478 36.4136L118.438 37.2845C117.308 38.2199 116.012 38.9343 114.617 39.3903C114.148 39.5308 113.67 39.6394 113.187 39.7153L112.329 39.7933C112.065 39.8193 111.8 39.8193 111.536 39.7933C111.092 39.7677 110.654 39.6757 110.236 39.5203C109.865 39.3706 109.518 39.1646 109.209 38.9094C109.054 38.7752 108.91 38.6272 108.78 38.4674C108.34 37.9213 108.001 37.3005 107.78 36.6346C107.247 36.9986 106.727 37.4015 106.207 37.7655C105.683 38.1467 105.136 38.494 104.569 38.8054C103.393 39.5077 102.038 39.8553 100.669 39.8063C100.162 39.7802 99.6659 39.6433 99.2168 39.4053C98.7677 39.1673 98.3761 38.8338 98.0695 38.4284C97.5245 37.7104 97.1591 36.8726 97.0036 35.9847C96.936 35.6323 96.8883 35.2765 96.8606 34.9188C96.0364 35.7486 95.1686 36.534 94.2609 37.2715C93.7923 37.6589 93.3019 38.0192 92.7921 38.3504C92.306 38.653 91.7976 38.9181 91.2712 39.1434C90.7519 39.3648 90.212 39.5346 89.6594 39.6503C89.3766 39.7127 89.09 39.7561 88.8015 39.7803C88.5074 39.8063 88.2116 39.8063 87.9175 39.7803H87.5926C87.1494 39.7376 86.7129 39.6416 86.2927 39.4943C85.9092 39.3528 85.553 39.1461 85.2398 38.8834C85.0968 38.7404 84.9538 38.5844 84.8238 38.4284C84.3977 37.861 84.0965 37.2098 83.9399 36.5176C83.68 36.7256 83.446 36.9596 83.199 37.1675C82.9629 37.3755 82.7059 37.5584 82.4321 37.7135L80.4823 38.8054C79.812 39.1701 79.1008 39.4537 78.3635 39.6503C78.0741 39.7285 77.7783 39.7807 77.4796 39.8063C77.2029 39.8323 76.9244 39.8323 76.6477 39.8063C76.392 39.778 76.1396 39.7258 75.8937 39.6503C74.9901 39.3581 74.2136 38.7655 73.6934 37.971C73.1732 37.1765 72.9405 36.2278 73.034 35.2827V33.9829L71.8251 34.3988C71.032 34.7238 70.2203 35.0016 69.3944 35.2307C69.0049 35.322 68.6097 35.3871 68.2115 35.4257C67.1466 35.4924 66.1209 35.8523 65.2478 36.4656C64.9436 36.6677 64.6527 36.8892 64.3769 37.1286C63.0774 38.2234 61.5497 39.014 59.9053 39.4423C59.5804 39.5203 59.2554 39.5983 58.9304 39.6503C58.2555 39.7565 57.5728 39.8044 56.8896 39.7933H56.1877C55.3666 39.7386 54.5594 39.5544 53.796 39.2473C52.7823 38.8316 51.9173 38.1205 51.3132 37.2065C50.9745 36.6539 50.7204 36.0536 50.5593 35.4257L50.4423 34.9318C50.3727 34.567 50.3293 34.1978 50.3123 33.8269C50.2741 32.3757 50.4671 30.9277 50.8842 29.5373C51.46 27.5116 52.3363 25.5836 53.484 23.8179C55.0462 21.2703 57.3002 19.2192 59.9833 17.9035C60.8136 17.5234 61.6864 17.2441 62.5831 17.0716C63.9768 16.7946 65.4142 16.8257 66.7947 17.1626C67.6151 17.3464 68.381 17.7204 69.0304 18.2544C69.691 18.7769 70.2169 19.45 70.5643 20.2172C71.0098 21.208 71.2104 22.2914 71.1492 23.3759C71.1738 24.7804 71.0209 26.1823 70.6943 27.5485C70.2785 28.8934 69.7434 30.1985 69.0954 31.4481C68.9264 31.7731 68.7835 32.0851 68.4715 32.748L69.2644 32.475C69.9636 32.2756 70.6391 32.001 71.2792 31.6561C73.0286 30.6865 74.4018 29.1576 75.1788 27.3145C75.7766 25.8676 76.5077 24.4794 77.3626 23.1679C78.2293 21.8279 79.2745 20.6122 80.4693 19.5543C81.105 18.9833 81.813 18.4982 82.5751 18.1115C83.333 17.7287 84.1506 17.4781 84.9928 17.3705C85.4811 17.3186 85.9734 17.3186 86.4617 17.3705C86.6807 17.3808 86.8982 17.4113 87.1116 17.4615C87.7567 17.6281 88.3592 17.9293 88.8794 18.3454C89.4179 18.7626 89.8611 19.29 90.1793 19.8923C90.3093 20.1133 90.4523 20.3602 90.5823 20.6332L97.8226 18.0335C97.5756 18.5924 97.4196 18.9954 97.2246 19.3333C95.1708 23.4929 93.091 27.6395 91.0632 31.7991C90.8292 32.28 90.6343 32.774 90.4523 33.2679C90.2751 33.7625 90.1233 34.2658 89.9973 34.7758C89.9451 34.9575 89.9188 35.1457 89.9193 35.3347C89.9077 35.4681 89.9301 35.6023 89.9843 35.7247C90.0367 35.8493 90.1221 35.9571 90.2313 36.0367C90.337 36.1136 90.4646 36.1546 90.5953 36.1536C90.9203 36.1705 91.2439 36.0986 91.5312 35.9457C92.259 35.6208 92.9303 35.182 93.52 34.6458C96.0431 32.5056 98.1041 29.8741 99.5774 26.9116C100.686 24.2275 102.362 21.8152 104.491 19.8403C104.827 19.5448 105.179 19.2672 105.544 19.0084C105.914 18.7499 106.3 18.5154 106.701 18.3064C107.291 18.0042 107.915 17.773 108.559 17.6175C108.851 17.5499 109.146 17.5021 109.443 17.4745C109.72 17.4485 109.999 17.4485 110.275 17.4745C110.719 17.5109 111.157 17.6071 111.575 17.7605C111.98 17.9069 112.361 18.1128 112.706 18.3714C113.477 18.9736 114.096 19.7483 114.513 20.6332C115.059 19.5673 115.579 18.5924 116.073 17.6045C117.204 15.3817 118.347 13.172 119.426 10.9232C119.503 10.6975 119.638 10.4958 119.816 10.3382C119.991 10.1805 120.208 10.0767 120.44 10.0393H125.9C125.9 10.1822 125.77 10.2992 125.718 10.4292L125.289 11.1182C121.822 17.9815 118.356 24.8578 114.89 31.7471C114.656 32.241 114.448 32.735 114.266 33.2419C114.084 33.7489 113.928 34.2688 113.798 34.7888C113.765 34.9649 113.765 35.1456 113.798 35.3217C113.797 35.4599 113.824 35.5968 113.876 35.7247C113.924 35.8375 114.006 35.9328 114.11 35.9977C114.212 36.0615 114.328 36.1015 114.448 36.1147C114.73 36.1183 115.008 36.0465 115.254 35.9067C116.388 35.3562 117.439 34.6472 118.373 33.8009C120.242 32.0355 121.884 30.0444 123.261 27.8735C123.703 27.1586 124.119 26.4176 124.561 25.6507C125.172 24.3508 125.783 23.1679 126.42 21.9201L128.33 18.1115H124.691C125.198 17.1366 125.588 16.3046 126.069 15.5117C126.198 15.3499 126.384 15.2431 126.589 15.2127H126.862C127.104 15.277 127.352 15.3162 127.603 15.3297C127.823 15.3557 128.045 15.3557 128.266 15.3297C128.654 15.2968 129.03 15.1816 129.37 14.9918C129.701 14.7913 129.996 14.5364 130.241 14.2378C130.643 13.7086 130.971 13.127 131.216 12.509C132.23 10.1043 132.386 10.1563 134.999 10.1822H138.404L135.805 15.2257H139.288L138.547 16.6816L137.846 18.0725H134.843C134.649 18.1336 134.468 18.2306 134.31 18.3584C134.24 18.4107 134.183 18.4771 134.141 18.5534C131.844 23.0856 129.574 27.6482 127.33 32.241C127.087 32.7495 126.896 33.2807 126.758 33.8269C126.667 34.1519 126.576 34.4768 126.511 34.8018C126.485 34.9698 126.485 35.1407 126.511 35.3087C126.502 35.4601 126.529 35.6114 126.589 35.7507C126.655 35.8707 126.748 35.9732 126.862 36.0497C126.975 36.1234 127.104 36.168 127.239 36.1796C127.492 36.1888 127.743 36.1305 127.967 36.0107L128.993 35.4907C129.995 34.9476 130.933 34.2936 131.788 33.5409C133.806 31.6183 135.555 29.4321 136.988 27.0416C137.482 26.2616 137.95 25.4817 138.417 24.6888C138.495 24.5588 138.573 24.4288 138.638 24.2988C138.859 23.9089 139.08 23.5189 139.327 23.142C139.573 22.7915 139.782 22.4169 139.951 22.0241C140.046 21.7888 140.09 21.5365 140.081 21.2831C140.07 21.0077 139.989 20.7396 139.847 20.5032C139.776 20.3759 139.688 20.258 139.587 20.1523C139.472 19.9604 139.392 19.7489 139.353 19.5283C139.308 19.3053 139.308 19.0754 139.353 18.8524C139.338 18.6685 139.374 18.4841 139.457 18.3194C139.637 17.6728 139.942 17.0677 140.354 16.5386C140.929 15.7189 141.728 15.0825 142.655 14.7058C142.901 14.6407 143.155 14.6144 143.409 14.6278C143.604 14.651 143.795 14.6946 143.981 14.7578C144.708 15.0278 145.375 15.4386 145.944 15.9667L145.307 17.2665C145.099 17.6955 144.865 18.1245 144.631 18.5664C144.563 18.6759 144.511 18.794 144.475 18.9174C144.397 19.2423 144.475 19.4763 144.878 19.7363C146.178 20.6462 147.361 21.5691 148.53 22.57C148.906 22.8902 149.235 23.2622 149.505 23.6749C149.875 24.2844 150.07 24.9835 150.07 25.6962C150.07 26.4089 149.875 27.108 149.505 27.7175C148.387 29.9273 147.465 32.202 146.477 34.4508C146.356 34.7698 146.312 35.1125 146.347 35.4517C146.325 35.6479 146.38 35.8449 146.502 36.0004C146.623 36.156 146.801 36.2577 146.997 36.2836C147.24 36.2846 147.477 36.2071 147.673 36.0627C148.124 35.7774 148.559 35.4648 148.972 35.1268C149.364 34.7917 149.737 34.4359 150.09 34.0609C150.61 33.4889 151.104 32.917 151.572 32.332C152.497 31.1639 153.335 29.9301 154.081 28.6404C154.458 27.9905 154.796 27.3405 155.121 26.6646C155.719 25.3647 156.421 24.0649 156.993 22.882C157.565 21.6991 158.293 20.3732 158.903 19.1124C159.016 18.8667 159.202 18.6623 159.436 18.5274C159.668 18.3934 159.936 18.3343 160.203 18.3584H165.325C165.143 18.7224 165.013 19.0214 164.87 19.3073C163.791 21.4391 162.66 23.5579 161.568 25.6897C160.476 27.8215 159.384 29.9533 158.396 32.189C157.941 33.1857 157.605 34.2329 157.396 35.3087C157.317 35.5406 157.317 35.7918 157.396 36.0237C157.448 36.1083 157.519 36.1795 157.604 36.2316C157.692 36.2812 157.789 36.3121 157.89 36.3226H158.189L158.526 36.1926L159.007 35.9327C159.449 35.6857 159.878 35.4517 160.307 35.1787C160.872 34.8152 161.402 34.4019 161.893 33.9439C162.491 33.3719 163.076 32.787 163.622 32.189C165.273 30.4132 166.645 28.3971 167.691 26.2096C168.912 23.6099 170.29 21.0882 171.59 18.4104L173.709 19.1384L175.763 19.8923C175.936 19.9673 176.121 20.0155 176.309 20.0353C176.504 20.0443 176.698 20.0133 176.881 19.9443C177.064 19.8732 177.232 19.7672 177.375 19.6323C178.631 18.6021 180.196 18.0211 181.82 17.9815H182.483C183.289 17.9943 184.068 18.2784 184.692 18.7878C185.317 19.2972 185.753 20.0022 185.928 20.7892C186.2 21.8145 186.266 22.8837 186.123 23.9349C186.054 24.4121 185.958 24.8851 185.837 25.3517C185.694 25.9355 185.512 26.5087 185.291 27.0676C184.69 28.6987 183.937 30.2698 183.042 31.7601C182.102 33.2821 181.046 34.7293 179.883 36.0887L179.649 36.3746L179.298 36.8296C180.264 36.4949 181.192 36.0592 182.067 35.5297C182.875 35.0359 183.641 34.475 184.355 33.8529C184.914 33.3589 185.46 32.852 185.98 32.332C187.002 31.3061 187.917 30.178 188.709 28.9654C189.098 28.3518 189.453 27.7183 189.775 27.0676C190.451 25.6637 191.153 24.2728 191.881 22.856C192.609 21.4391 193.337 20.0353 194.078 18.5794C195.508 19.0734 196.899 19.5283 198.251 20.0483C198.434 20.1176 198.627 20.1613 198.822 20.1782C199.008 20.2103 199.199 20.2014 199.381 20.1523C199.56 20.0857 199.724 19.984 199.862 19.8533C200.801 19.0947 201.905 18.5691 203.086 18.3194C203.484 18.2419 203.889 18.2027 204.295 18.2024H204.906C205.712 18.1874 206.504 18.4137 207.181 18.8524C207.793 19.3922 208.22 20.1106 208.402 20.9062C208.858 22.9622 208.634 25.1104 207.766 27.0286C207.167 28.6524 206.414 30.2151 205.517 31.6951C204.61 33.2013 203.589 34.6354 202.462 35.9847L202.007 36.5306L202.163 36.7516C203.289 36.1846 204.383 35.5554 205.439 34.8668C208.297 32.9312 210.61 30.2952 212.159 27.2105C213.691 23.698 216.424 20.8457 219.867 19.1644C221.483 18.3808 223.276 18.0356 225.067 18.1635C225.451 18.2007 225.832 18.2571 226.211 18.3324C227.364 18.5332 228.431 19.0715 229.278 19.8793C229.747 20.3642 230.086 20.9585 230.266 21.6081C230.511 22.7497 230.398 23.9391 229.941 25.0138C229.745 25.5414 229.51 26.054 229.239 26.5476C228.74 27.4689 228.099 28.3065 227.342 29.0304C226.977 29.3816 226.581 29.6992 226.159 29.9793C224.312 31.1649 222.153 31.7715 219.958 31.7211H216.995C216.888 31.6952 216.776 31.6952 216.67 31.7211C216.562 31.7468 216.464 31.8007 216.384 31.8771C216.265 32.0375 216.189 32.2253 216.163 32.423C215.682 34.7758 216.683 36.1407 219.152 36.3226H219.464C220.532 36.3752 221.6 36.2433 222.623 35.9327C223.141 35.7882 223.649 35.6102 224.144 35.3997C224.638 35.1917 225.119 34.9448 225.6 34.6848C227.37 33.697 228.964 32.4233 230.318 30.9152C231.155 29.9834 231.924 28.993 232.619 27.9515C233.828 26.1966 234.894 24.3638 235.973 22.544C236.014 22.4708 236.045 22.392 236.064 22.31C236.103 22.1433 236.103 21.9698 236.064 21.8031C236.052 21.7334 236.025 21.6669 235.986 21.6081C235.511 21.1045 235.242 20.4414 235.232 19.7493C235.245 19.1863 235.401 18.6359 235.687 18.1505C235.761 18.0074 235.844 17.8685 235.934 17.7345C236.141 17.4428 236.366 17.1649 236.61 16.9026C236.92 16.5919 237.25 16.301 237.598 16.0317C237.809 15.8617 238.041 15.7177 238.286 15.6027C238.635 15.4209 239.024 15.3313 239.417 15.3427C239.826 15.3827 240.221 15.5114 240.574 15.7197C241.055 15.9969 241.512 16.3144 241.939 16.6686C241.718 17.0716 241.51 17.4875 241.302 17.8905L240.613 19.1903C240.555 19.3025 240.507 19.42 240.47 19.5413C240.444 19.6349 240.444 19.7337 240.47 19.8273C240.484 19.9258 240.53 20.0171 240.6 20.0873C240.682 20.1794 240.773 20.2622 240.873 20.3342C241.497 20.7762 242.173 21.2181 242.732 21.6341C243.291 22.0501 243.954 22.544 244.539 23.038C244.916 23.3369 245.245 23.692 245.514 24.0909C245.879 24.6226 246.074 25.2527 246.073 25.8977C246.064 26.3683 245.977 26.8342 245.813 27.2755C245.718 27.5239 245.609 27.7669 245.488 28.0035C244.383 30.1353 243.46 32.332 242.485 34.5028C242.373 34.7741 242.324 35.0676 242.342 35.3607C242.329 35.4817 242.329 35.6037 242.342 35.7247C242.369 35.869 242.447 35.9986 242.563 36.0887C242.669 36.1889 242.807 36.2487 242.953 36.2576C243.226 36.2703 243.494 36.1824 243.707 36.0107C244.611 35.47 245.441 34.8146 246.177 34.0609C249.4 30.6292 251.675 26.6516 254.21 22.843C254.769 22.0111 255.302 21.1532 255.835 20.2432C256.368 19.3333 256.901 18.4884 257.46 17.6435L262.503 19.0474C260.813 24.4418 261.463 29.8493 260.8 35.3347C261.142 35.1454 261.464 34.9234 261.762 34.6718L264.284 31.9811C265.116 31.0712 265.948 30.1612 266.741 29.2383C266.889 29.0661 267.055 28.9094 267.235 28.7704C267.373 28.6672 267.543 28.6166 267.716 28.6274C267.924 28.6539 268.12 28.7448 268.275 28.8874C268.404 28.9914 268.56 29.0824 268.716 29.1863C269.132 29.4853 269.574 29.8233 268.95 30.5512Z" fill="#1D2B43"/>
<path d="M47.1796 13.133C47.1796 12.873 47.2056 12.613 47.2576 12.353C47.2752 11.9171 47.2403 11.4807 47.1536 11.0532C47.0329 10.5093 46.7993 9.99679 46.4679 9.54894C46.1365 9.10109 45.7147 8.72786 45.2298 8.45342C44.8152 8.1468 44.3343 7.94198 43.8259 7.85548C43.679 7.84118 43.5306 7.85685 43.3898 7.90154C43.2491 7.94622 43.1189 8.01899 43.007 8.11546C42.6687 8.38019 42.3785 8.70118 42.1491 9.06436C41.8013 9.45899 41.5043 9.89569 41.2652 10.3642C39.6794 13.7569 38.1065 17.1496 36.5857 20.5552C35.8837 22.1151 36.0657 22.817 37.2356 22.908H38.5355C39.672 22.7523 40.7696 22.3865 41.7722 21.8291C42.5258 21.4103 43.2244 20.8994 43.8519 20.3082C45.7906 18.3963 46.9725 15.8479 47.1796 13.133Z" fill="#1D2B43"/>
<path d="M87.2676 22.219C87.1203 22.1701 86.9675 22.1395 86.8127 22.1281C86.4769 22.1033 86.1397 22.1521 85.8247 22.271C85.4293 22.4154 85.057 22.6168 84.7199 22.869C84.5962 22.9454 84.4826 23.0371 84.3819 23.142C82.5988 24.8401 81.1869 26.8893 80.2353 29.1603C79.7128 30.4288 79.2785 31.7317 78.9354 33.06C78.8184 34.3598 79.1954 35.0098 79.9753 35.0748C80.2615 35.0825 80.547 35.043 80.8202 34.9578C81.2689 34.8094 81.7038 34.6224 82.1201 34.3988C82.9414 33.9298 83.665 33.3076 84.2519 32.566C84.5504 32.1865 84.8157 31.7821 85.0448 31.3571C85.5648 30.3822 86.0587 29.3943 86.5527 28.4064L87.9955 25.4557C88.2903 24.9927 88.4186 24.4431 88.3596 23.8974C88.3005 23.3517 88.0575 22.8423 87.6706 22.453C87.5438 22.3626 87.4089 22.2843 87.2676 22.219Z" fill="#1D2B43"/>
<path d="M219.893 28.6144C220.833 28.5691 221.728 28.2019 222.428 27.5745C223.187 26.7919 223.846 25.9187 224.391 24.9748C224.434 24.894 224.482 24.8158 224.534 24.7408C224.625 24.5718 224.729 24.4028 224.807 24.2338C224.882 24.0701 224.926 23.8938 224.937 23.7139C224.939 23.5757 224.912 23.4385 224.859 23.3109C224.797 23.1846 224.703 23.0769 224.586 22.999C224.517 22.941 224.438 22.8969 224.352 22.869C224.257 22.856 224.161 22.856 224.066 22.869C223.282 22.8959 222.515 23.1098 221.83 23.4929C220.495 24.4577 219.379 25.6936 218.554 27.1196C218.269 27.5875 217.996 28.0555 217.736 28.5364C218.1 28.6147 218.469 28.6668 218.84 28.6924C219.193 28.6923 219.545 28.6662 219.893 28.6144Z" fill="#1D2B43"/>
</g>
<path d="M4.21226 74.2846L0.132263 62.4606H1.68426L4.61226 71.2286L7.81226 62.4606H8.42026L11.7003 71.2286L14.5643 62.4606H16.1163L12.0683 74.2846H11.3483L8.13226 65.2926L4.94826 74.2846H4.21226Z" fill="#1D2B43"/>
<path d="M18.4329 64.4766C17.8249 64.4766 17.3609 64.0286 17.3609 63.4206C17.3609 62.8286 17.8249 62.3806 18.4329 62.3806C19.0089 62.3806 19.4729 62.8286 19.4729 63.4206C19.4729 64.0286 19.0089 64.4766 18.4329 64.4766ZM19.1209 74.2846H17.6969V65.7246H19.1209V74.2846Z" fill="#1D2B43"/>
<path d="M26.6343 72.6686L27.1943 73.7726C26.5863 74.2526 25.7543 74.4926 24.9543 74.4926C23.1143 74.4926 22.2503 73.2766 22.2503 71.3086V66.9566H20.7303V65.7246H22.2663V62.7006H23.6743V65.7246H26.7303V66.9566H23.6743V71.4526C23.6743 72.5086 24.0423 73.1806 25.0823 73.1806C25.6263 73.1806 26.1543 72.9726 26.6343 72.6686Z" fill="#1D2B43"/>
<path d="M28.6063 74.2846V62.1726H29.9823V66.7806C30.5103 66.0126 31.5023 65.5006 32.7023 65.5006C34.4783 65.5006 36.0783 66.6526 36.0783 69.1006V74.2846H34.6543V69.5006C34.6543 67.7246 33.7103 66.8286 32.4303 66.8286C31.0063 66.8286 30.0303 67.9326 30.0303 69.5006V74.2846H28.6063Z" fill="#1D2B43"/>
<path d="M49.8359 74.2846L48.5879 71.1326H44.0439L42.7959 74.2846H41.1639L45.9799 62.4606H46.6839L51.4679 74.2846H49.8359ZM46.3159 65.1806L44.5559 69.7246H48.0759L46.3159 65.1806Z" fill="#1D2B43"/>
<path d="M53.3603 62.4606H54.8323V74.2846H53.3603V62.4606Z" fill="#1D2B43"/>
<path d="M57.5779 70.5246V69.1806H63.6899V70.5246H57.5779Z" fill="#1D2B43"/>
<path d="M70.6499 65.5166C73.0979 65.5166 74.9219 67.5326 74.9219 70.0126C74.9219 72.4926 73.0979 74.4926 70.6179 74.4926C69.3699 74.4926 68.3139 73.9966 67.5459 73.0206V77.8046H66.1219V65.7246H67.5459V67.0366C68.3299 66.0286 69.4019 65.5166 70.6499 65.5166ZM70.4899 73.1806C72.3299 73.1806 73.4979 71.7406 73.4979 69.9966C73.4979 68.2686 72.3299 66.8286 70.4899 66.8286C68.6339 66.8286 67.4819 68.2846 67.4819 69.9966C67.4819 71.7406 68.6339 73.1806 70.4899 73.1806Z" fill="#1D2B43"/>
<path d="M80.8954 74.4926C78.2714 74.4926 76.4154 72.4926 76.4154 69.9966C76.4154 67.5326 78.2714 65.5166 80.8954 65.5166C83.5194 65.5166 85.3754 67.5326 85.3754 69.9966C85.3754 72.4926 83.5194 74.4926 80.8954 74.4926ZM80.8954 73.1806C82.6074 73.1806 83.9354 71.7406 83.9354 69.9966C83.9354 68.2846 82.6074 66.8286 80.8954 66.8286C79.1834 66.8286 77.8554 68.2846 77.8554 69.9966C77.8554 71.7406 79.1834 73.1806 80.8954 73.1806Z" fill="#1D2B43"/>
<path d="M89.1384 74.2686L86.2104 65.7246H87.6984L89.7784 72.2686L92.1784 65.7246H93.1704L95.6504 72.2686L97.6504 65.7246H99.1384L96.2744 74.2686H95.1064L92.6744 67.7086L90.3064 74.2686H89.1384Z" fill="#1D2B43"/>
<path d="M108.444 69.8526C108.444 70.2046 108.412 70.4126 108.396 70.6046H101.532C101.74 71.9646 102.636 73.1486 104.604 73.1486C105.628 73.1486 106.828 72.7486 107.628 72.1726L108.236 73.2766C107.484 73.8846 106.092 74.4766 104.572 74.4766C101.34 74.4766 100.028 72.2046 100.028 69.9806C100.028 67.4366 101.756 65.5166 104.332 65.5166C106.7 65.5166 108.444 67.1326 108.444 69.8526ZM104.332 66.8126C102.844 66.8126 101.772 67.8686 101.532 69.3246H106.94C106.86 67.7566 105.724 66.8126 104.332 66.8126Z" fill="#1D2B43"/>
<path d="M110.456 74.2846V65.7246H111.8V67.0046C112.312 65.9806 113.128 65.5006 114.28 65.5006C114.584 65.5006 114.904 65.5326 115.272 65.6286L115.144 67.0206C114.84 66.9246 114.552 66.8766 114.264 66.8766C112.968 66.8766 111.88 67.7406 111.88 69.6766V74.2846H110.456Z" fill="#1D2B43"/>
<path d="M124.213 69.8526C124.213 70.2046 124.181 70.4126 124.165 70.6046H117.301C117.509 71.9646 118.405 73.1486 120.373 73.1486C121.397 73.1486 122.597 72.7486 123.397 72.1726L124.005 73.2766C123.253 73.8846 121.861 74.4766 120.341 74.4766C117.109 74.4766 115.797 72.2046 115.797 69.9806C115.797 67.4366 117.525 65.5166 120.101 65.5166C122.469 65.5166 124.213 67.1326 124.213 69.8526ZM120.101 66.8126C118.613 66.8126 117.541 67.8686 117.301 69.3246H122.709C122.629 67.7566 121.493 66.8126 120.101 66.8126Z" fill="#1D2B43"/>
<path d="M133.025 62.1726H134.449V74.2846H133.025V73.0846C132.257 74.0446 131.185 74.4926 130.001 74.4926C127.489 74.4926 125.681 72.4926 125.681 69.9966C125.681 67.5326 127.505 65.5166 129.969 65.5166C131.201 65.5166 132.257 66.0286 133.025 67.0046V62.1726ZM130.129 73.1806C131.969 73.1806 133.137 71.7406 133.137 69.9966C133.137 68.2846 131.969 66.8286 130.129 66.8286C128.289 66.8286 127.121 68.2846 127.121 69.9966C127.121 71.7406 128.289 73.1806 130.129 73.1806Z" fill="#1D2B43"/>
<path d="M150.513 79.4198C145.604 79.2795 142.449 75.423 142.449 70.3042C142.449 64.9402 145.604 60.9434 150.513 60.9434C153.458 60.9434 155.281 62.1003 156.368 63.9233V61.2939H160.645V75.1424H162.012V79.0691H159.067C156.824 79.0691 156.368 78.4381 156.368 76.5098V76.1943C155.035 78.3328 153.458 79.4898 150.513 79.4198ZM146.726 70.3042C146.726 73.179 148.62 75.4931 151.529 75.4931C154.474 75.4931 156.368 73.179 156.368 70.3042C156.368 67.184 154.474 64.905 151.529 64.87C148.62 64.8349 146.726 67.184 146.726 70.3042Z" fill="#1B9BCA"/>
<path d="M178.112 79.0691C175.869 79.0691 175.413 78.4381 175.413 76.5098V76.2644C174.606 78.0524 172.748 79.3145 170.434 79.4198C165.245 79.6651 162.581 75.8787 162.581 70.1991V61.2939H166.858V70.1991C166.858 74.1257 168.261 75.4931 171.136 75.4931C173.484 75.4931 175.448 73.9855 175.448 70.1991L175.413 61.2939H179.69V75.1424H181.057V79.0691H178.112Z" fill="#1D2B43"/>
<path d="M186.577 79.0691C183.877 79.0691 183.667 77.7719 183.667 75.2125V65.2205H180.932V61.2939H183.667V55.9298H187.944V61.2939H193.273V65.2205H187.944V75.1424H193.379V79.0691H186.577Z" fill="#1D2B43"/>
<path d="M203.058 79.6652C197.449 79.595 193.943 75.6684 193.943 70.3042C193.943 64.9402 197.449 60.9434 203.058 60.9434C208.633 60.9434 212.139 64.9402 212.139 70.3042C212.139 75.6684 208.633 79.7353 203.058 79.6652ZM198.22 70.3042C198.22 73.4246 200.113 75.7735 203.023 75.7385C205.968 75.7034 207.861 73.4246 207.861 70.3042C207.861 67.184 205.968 64.905 203.023 64.87C200.113 64.8349 198.22 67.184 198.22 70.3042Z" fill="#1D2B43"/>
<path d="M213.39 84.4332V61.2939H217.667V63.9584C218.824 62.0652 220.752 60.8732 223.662 60.9433C228.466 61.0485 231.586 64.9401 231.586 70.0588C231.586 75.4229 228.43 79.4197 223.522 79.4197C220.717 79.4197 218.754 78.2627 217.667 76.4396V84.4332H213.39ZM217.667 70.0588C217.667 73.179 219.56 75.4579 222.505 75.4931C225.415 75.5281 227.309 73.179 227.309 70.0588C227.309 67.1839 225.415 64.87 222.505 64.87C219.56 64.87 217.667 67.1839 217.667 70.0588Z" fill="#1D2B43"/>
<path d="M235.738 61.2939C238.297 61.2939 238.297 62.4509 238.297 65.1154V75.1424H240.54V79.0691H237.28C233.88 79.0691 234.019 77.7719 234.019 75.2126V65.2206H231.776V61.2939H235.738ZM232.372 57.9983C232.372 56.631 233.459 55.5442 235.001 55.5442C236.544 55.5442 237.631 56.631 237.631 57.9983C237.631 59.3656 236.544 60.4524 235.001 60.4524C233.459 60.4524 232.372 59.3656 232.372 57.9983Z" fill="#1B9BCA"/>
<path d="M244.717 79.0691C242.017 79.0691 241.808 77.7719 241.808 75.2125V55.9298H246.084V75.1424H248.329V79.0691H244.717Z" fill="#1D2B43"/>
<path d="M258.01 79.6652C252.401 79.595 248.894 75.6684 248.894 70.3042C248.894 64.9402 252.401 60.9434 258.01 60.9434C263.585 60.9434 267.091 64.9402 267.091 70.3042C267.091 75.6684 263.585 79.7353 258.01 79.6652ZM253.172 70.3042C253.172 73.4246 255.065 75.7735 257.975 75.7385C260.92 75.7034 262.814 73.4246 262.814 70.3042C262.814 67.184 260.92 64.905 257.975 64.87C255.065 64.8349 253.172 67.184 253.172 70.3042Z" fill="#1D2B43"/>
<path d="M272.925 79.0691C270.226 79.0691 270.015 77.7719 270.015 75.2125V65.2205H267.28V61.2939H270.015V55.9298H274.293V61.2939H279.622V65.2205H274.293V75.1424H279.727V79.0691H272.925Z" fill="#1D2B43"/>
<path d="M280.467 56.4467V55.9522H282.893V56.4467H281.987V59.1574H281.382V56.4467H280.467ZM286.648 55.9522H286.868V59.1574H286.3V57.2068L285.137 58.6537H284.963L283.809 57.2068V59.1574H283.241V55.9522H283.461L285.045 57.9303L286.648 55.9522Z" fill="#1D2B43"/>
<defs>
<clipPath id="clip0_1027_102099">
<rect width="260" height="50.8899" fill="white" transform="translate(13.5 0.654297)"/>
</clipPath>
</defs>
</svg>
