<svg width="150" height="30" viewBox="0 0 150 30" fill="none" xmlns="http://www.w3.org/2000/svg">
<g clip-path="url(#clip0_499_39822)">
<path d="M88.1837 6.31429C88.1679 6.57734 88.0936 6.83355 87.9662 7.06422C87.7705 7.4034 87.4918 7.68726 87.1563 7.88914C86.8185 8.08356 86.4361 8.18693 86.0464 8.18911H85.9114C85.6692 8.16576 85.4331 8.09975 85.214 7.99412C85.0116 7.88899 84.8309 7.74649 84.6815 7.57417C84.5315 7.39896 84.4192 7.19474 84.3516 6.97423C84.273 6.73254 84.2474 6.47676 84.2766 6.2243C84.3073 5.96115 84.3888 5.70647 84.5165 5.47438C84.6401 5.26086 84.8 5.07053 84.989 4.91193C85.1839 4.74719 85.4076 4.62005 85.6489 4.53697C85.8897 4.45221 86.1437 4.41156 86.3988 4.41698H86.5113C86.6352 4.43154 86.7579 4.45409 86.8788 4.48448C87.2161 4.57462 87.5205 4.75937 87.7562 5.01692C87.9144 5.18296 88.0324 5.38307 88.1012 5.60186C88.1823 5.83002 88.2105 6.07363 88.1837 6.31429Z" fill="white"/>
<path d="M147.353 17.2484C147.121 17.5749 146.87 17.8879 146.603 18.1858C146.318 18.4932 146.115 18.8007 145.853 19.1007C145.334 19.7063 144.753 20.2567 144.121 20.743C143.507 21.2169 142.84 21.6171 142.133 21.9354C141.909 22.0395 141.679 22.1297 141.443 22.2054C140.985 22.358 140.513 22.466 140.033 22.5278C139.552 22.5803 139.067 22.5803 138.586 22.5278C137.982 22.476 137.386 22.3552 136.809 22.1679C136.164 21.8741 135.554 21.5121 134.986 21.088L135.541 20.773C136.059 20.4805 136.501 20.2331 136.951 20.0231C136.995 20.0082 137.042 20.0082 137.086 20.0231C137.201 20.0397 137.313 20.0752 137.416 20.1281C137.52 20.1807 137.628 20.2258 137.739 20.2631C137.839 20.2945 137.942 20.3147 138.046 20.3231C138.313 20.3478 138.58 20.279 138.802 20.1286C139.023 19.9781 139.186 19.7552 139.261 19.4981C139.417 19.0674 139.533 18.623 139.606 18.1708C139.651 17.875 139.681 17.5772 139.696 17.2784C139.778 16.2135 139.861 15.1486 139.951 14.0837L139.756 14.0387C139.644 14.2037 139.539 14.3687 139.419 14.5336C138.804 15.4111 138.196 16.3035 137.581 17.1884C136.966 18.0733 136.336 18.9432 135.669 19.7981C135.017 20.5767 134.26 21.2607 133.419 21.8304C133.233 21.971 133.035 22.094 132.827 22.1979C132.425 22.4005 131.991 22.53 131.544 22.5803C131.32 22.6028 131.094 22.6028 130.869 22.5803L130.569 22.5353C130.448 22.5202 130.328 22.4977 130.209 22.4678C129.981 22.4144 129.763 22.3231 129.565 22.1979C129.285 22.0337 129.055 21.7982 128.897 21.5154C128.836 21.3951 128.786 21.2696 128.747 21.1405C128.689 20.9533 128.656 20.759 128.65 20.563C128.634 19.9905 128.718 19.4197 128.897 18.8757C129.083 18.3239 129.311 17.7873 129.579 17.2709C129.909 16.6109 130.232 15.936 130.607 15.2911C130.702 15.1641 130.768 15.0184 130.802 14.8636C130.836 14.7105 130.836 14.5518 130.802 14.3987C130.772 14.2453 130.711 14.0997 130.622 13.9712C130.533 13.8419 130.418 13.7321 130.284 13.6487C130.119 13.5212 129.969 13.3788 129.782 13.2213C129.085 14.3162 128.44 15.4111 127.712 16.4609C126.42 18.4927 124.655 20.1808 122.568 21.3805C122.154 21.6006 121.728 21.7984 121.293 21.9729C120.66 22.2196 120.001 22.3932 119.328 22.4903C119.107 22.5067 118.887 22.5343 118.668 22.5728C118.219 22.6103 117.767 22.6103 117.318 22.5728C117.065 22.5621 116.814 22.5269 116.568 22.4678H116.471C116.276 22.4303 116.088 22.3854 115.901 22.3329C115.562 22.233 115.239 22.0866 114.941 21.8979C114.373 21.5387 113.957 20.9837 113.771 20.3381C113.717 20.1584 113.675 19.9756 113.644 19.7906C113.654 19.6941 113.633 19.5969 113.584 19.5131C113.555 19.4699 113.523 19.4297 113.486 19.3932C111.236 21.5379 108.657 22.8203 105.507 22.5728H105.357C105.087 22.5456 104.819 22.503 104.555 22.4453C103.761 22.2816 103.056 21.8302 102.575 21.178L103.7 20.2481C103.981 20.4187 104.291 20.5357 104.615 20.593C104.782 20.5947 104.948 20.5615 105.102 20.4955C105.258 20.427 105.396 20.3245 105.507 20.1956C105.612 20.0906 105.732 19.9706 105.852 19.8281C106.234 19.3993 106.595 18.9513 106.932 18.4857C107.579 17.5794 108.113 16.5972 108.522 15.561C108.724 15.044 108.897 14.5157 109.039 13.9787C109.061 13.8749 109.077 13.7696 109.084 13.6637V13.3488C109.039 12.9288 108.852 12.6963 108.522 12.6738C108.372 12.6649 108.222 12.6827 108.079 12.7263C107.489 12.8929 106.939 13.1785 106.463 13.5653C105.987 13.9522 105.596 14.4323 105.312 14.9761C103.812 17.8033 102.402 20.6455 100.962 23.4952L99.5225 26.345C99.4791 26.4369 99.4237 26.5227 99.3575 26.5999C99.2698 26.71 99.1528 26.7932 99.0201 26.8399C98.8857 26.881 98.742 26.881 98.6076 26.8399H95.7429C96.2528 25.82 96.7628 24.8226 97.2427 23.8402L98.7426 20.8405C98.2596 21.1231 97.7586 21.3736 97.2427 21.5904C96.5232 21.9365 95.7691 22.2055 94.993 22.3929C94.2572 22.5713 93.4983 22.6346 92.7432 22.5803C91.4948 22.4661 90.3029 22.0065 89.301 21.253L89.736 20.9005L90.0585 20.6305L90.6209 20.1731C90.7754 20.2793 90.9356 20.3769 91.1009 20.4655C91.2242 20.5245 91.3556 20.565 91.4908 20.5855C91.5706 20.593 91.651 20.593 91.7308 20.5855C92.0249 20.4655 92.2831 20.2718 92.4807 20.0231C93.1253 19.3589 93.703 18.633 94.2056 17.8558C94.6922 17.1011 95.097 16.2966 95.4129 15.456C95.6168 14.8942 95.7871 14.3208 95.9229 13.7387C95.9601 13.5841 95.9752 13.4251 95.9679 13.2663C95.9663 13.1442 95.9382 13.0239 95.8854 12.9138C95.8337 12.8172 95.759 12.7347 95.6679 12.6738C95.5752 12.6172 95.4691 12.5861 95.3604 12.5838C95.0579 12.5758 94.7584 12.6456 94.4905 12.7863C93.4777 13.2302 92.6506 14.0122 92.1507 14.9986L89.241 20.698C88.2811 22.6028 87.3212 24.5001 86.3688 26.4125C86.3231 26.5117 86.2651 26.6049 86.1964 26.6899C86.1414 26.7607 86.0725 26.8194 85.9939 26.8624C85.9189 26.9087 85.8342 26.9369 85.7464 26.9449C85.6444 26.9599 85.5409 26.9599 85.4389 26.9449H82.6117L84.7415 22.7378L85.4914 21.283L85.0265 21.5754L84.659 21.8004C84.0013 22.2207 83.2631 22.4991 82.4917 22.6178C82.2422 22.6403 81.9913 22.6403 81.7418 22.6178C81.2001 22.6203 80.6784 22.4134 80.2857 22.0403C79.893 21.6671 79.6597 21.1567 79.6345 20.6155C79.357 20.833 79.0946 21.0505 78.8396 21.2605L78.0897 21.8604C77.52 22.2572 76.8649 22.5141 76.1774 22.6103C75.9526 22.6253 75.7271 22.6253 75.5024 22.6103C75.28 22.5893 75.0594 22.5517 74.8425 22.4978C74.3938 22.399 73.9935 22.1471 73.7101 21.7854C73.4249 21.4282 73.2737 20.9825 73.2826 20.5255C73.32 19.3293 73.6496 18.1605 74.2425 17.1209C74.58 16.431 74.91 15.741 75.2774 15.0736C75.3244 14.9909 75.367 14.9058 75.4049 14.8186C75.4663 14.6682 75.5018 14.5084 75.5099 14.3462C75.5124 14.2019 75.4843 14.0588 75.4274 13.9262C75.3243 13.7077 75.17 13.5173 74.9775 13.3713C74.8125 13.2363 74.6625 13.0938 74.4525 12.8988C74.2875 13.1763 74.1376 13.4238 73.9951 13.6487C73.6901 14.1837 73.3751 14.7161 73.0502 15.2461C72.2313 16.597 71.3033 17.8786 70.2754 19.0782C70.0805 19.3032 69.9005 19.5281 69.698 19.7381C69.3051 20.151 68.8895 20.5415 68.4531 20.908C68.2149 21.1176 67.9645 21.3129 67.7032 21.4929C67.3366 21.7393 66.9474 21.9502 66.5408 22.1229C66.1178 22.2955 65.678 22.4237 65.2284 22.5053C65.0298 22.5368 64.8295 22.5568 64.6285 22.5653C64.4288 22.5803 64.2283 22.5803 64.0286 22.5653L63.6836 22.4978C63.5253 22.4754 63.3696 22.4378 63.2186 22.3854C62.942 22.311 62.6856 22.1751 62.4687 21.9879C62.2265 21.7372 62.0399 21.4382 61.9213 21.1105C61.8009 20.782 61.7499 20.4322 61.7713 20.0831L61.1413 20.6305L60.5414 21.133C59.8892 21.6726 59.1412 22.0847 58.3366 22.3479C58.0662 22.4289 57.7906 22.4916 57.5117 22.5353L57.0168 22.5803C56.8646 22.5953 56.7114 22.5953 56.5593 22.5803C56.3029 22.5656 56.0501 22.5125 55.8094 22.4228C55.595 22.3365 55.3951 22.2176 55.2169 22.0704C55.127 21.993 55.0442 21.9076 54.9695 21.8154C54.7153 21.5003 54.5197 21.1422 54.392 20.758C54.0846 20.968 53.7846 21.2005 53.4846 21.4105C53.1828 21.6304 52.8671 21.8308 52.5397 22.0104C51.8611 22.4156 51.0798 22.6161 50.2899 22.5878C49.9971 22.5728 49.7111 22.4938 49.452 22.3565C49.1929 22.2192 48.967 22.0268 48.7901 21.7929C48.4757 21.3787 48.2648 20.8953 48.1751 20.3831C48.1361 20.1798 48.1086 19.9745 48.0927 19.7681C47.6171 20.2469 47.1165 20.7 46.5928 21.1255C46.3225 21.349 46.0395 21.5568 45.7454 21.7479C45.465 21.9225 45.1717 22.0754 44.868 22.2054C44.5684 22.3331 44.2569 22.4311 43.9381 22.4978C43.7749 22.5338 43.6096 22.5589 43.4431 22.5728C43.2735 22.5878 43.1028 22.5878 42.9332 22.5728H42.7457C42.49 22.5482 42.2382 22.4928 41.9958 22.4079C41.7745 22.3262 41.569 22.207 41.3883 22.0554C41.3058 21.9729 41.2233 21.8829 41.1484 21.7929C40.9025 21.4655 40.7287 21.0898 40.6384 20.6905C40.4884 20.8105 40.3534 20.9455 40.2109 21.0655C40.0747 21.1855 39.9264 21.291 39.7685 21.3805L38.6436 22.0104C38.2569 22.2208 37.8466 22.3844 37.4212 22.4978C37.2543 22.543 37.0836 22.5731 36.9113 22.5878C36.7516 22.6028 36.591 22.6028 36.4313 22.5878C36.2838 22.5715 36.1382 22.5414 35.9964 22.4978C35.475 22.3293 35.0271 21.9874 34.7269 21.529C34.4268 21.0706 34.2926 20.5233 34.3465 19.9781V19.2282L33.6491 19.4681C33.1915 19.6556 32.7232 19.8159 32.2467 19.9481C32.022 20.0008 31.794 20.0383 31.5643 20.0606C30.9499 20.099 30.3582 20.3067 29.8545 20.6605C29.679 20.7771 29.5112 20.9049 29.352 21.043C28.6024 21.6746 27.7209 22.1307 26.7723 22.3779C26.5848 22.4229 26.3973 22.4678 26.2098 22.4978C25.8205 22.5591 25.4266 22.5867 25.0325 22.5803H24.6275C24.1538 22.5488 23.6881 22.4425 23.2476 22.2654C22.6629 22.0255 22.1638 21.6153 21.8153 21.088C21.6199 20.7691 21.4733 20.4228 21.3803 20.0606L21.3128 19.7756C21.2727 19.5652 21.2476 19.3522 21.2378 19.1382C21.2158 18.301 21.3272 17.4656 21.5678 16.6634C21.9 15.4947 22.4055 14.3825 23.0677 13.3638C23.9689 11.894 25.2693 10.7107 26.8173 9.9516C27.2963 9.73232 27.7998 9.57119 28.3171 9.47165C29.1212 9.31186 29.9505 9.32978 30.7469 9.52414C31.2203 9.63021 31.6621 9.84598 32.0368 10.1541C32.4179 10.4555 32.7213 10.8438 32.9217 11.2865C33.1787 11.858 33.2944 12.4831 33.2591 13.1088C33.2733 13.919 33.1851 14.7279 32.9967 15.516C32.7568 16.2919 32.4481 17.0449 32.0743 17.7658C31.9768 17.9533 31.8943 18.1333 31.7143 18.5157L32.1718 18.3583C32.5751 18.2432 32.9649 18.0848 33.3341 17.8858C34.3434 17.3264 35.1357 16.4444 35.5839 15.3811C35.9288 14.5463 36.3506 13.7454 36.8438 12.9888C37.3438 12.2157 37.9468 11.5143 38.6361 10.904C39.0029 10.5746 39.4113 10.2947 39.851 10.0716C40.2882 9.85077 40.76 9.70621 41.2458 9.64413C41.5275 9.61416 41.8116 9.61416 42.0933 9.64413C42.2196 9.65005 42.3451 9.66762 42.4682 9.69662C42.8404 9.7927 43.188 9.96649 43.4881 10.2066C43.7988 10.4473 44.0545 10.7515 44.238 11.099C44.313 11.2265 44.3955 11.369 44.4705 11.5264L48.6476 10.0266C48.5051 10.3491 48.4151 10.5815 48.3026 10.7765C47.1178 13.1763 45.9179 15.5685 44.748 17.9683C44.613 18.2458 44.5005 18.5307 44.3955 18.8157C44.2933 19.101 44.2057 19.3914 44.1331 19.6856C44.1029 19.7904 44.0878 19.899 44.0881 20.0081C44.0814 20.085 44.0943 20.1624 44.1256 20.2331C44.1558 20.3049 44.205 20.3672 44.268 20.4131C44.329 20.4574 44.4026 20.4811 44.478 20.4805C44.6656 20.4903 44.8522 20.4488 45.018 20.3606C45.4378 20.1731 45.8252 19.92 46.1654 19.6106C47.621 18.3759 48.8101 16.8577 49.66 15.1486C50.2995 13.6001 51.2665 12.2084 52.4947 11.069C52.6887 10.8985 52.8915 10.7383 53.1022 10.589C53.3157 10.4399 53.5387 10.3046 53.7696 10.1841C54.1101 10.0097 54.4701 9.87629 54.842 9.78661C55.0099 9.74759 55.1803 9.72003 55.3519 9.70412C55.5116 9.68912 55.6722 9.68912 55.8319 9.70412C56.0881 9.72512 56.3404 9.78062 56.5818 9.86911C56.8156 9.95357 57.0355 10.0724 57.2342 10.2216C57.679 10.569 58.036 11.0159 58.2766 11.5264C58.5916 10.9115 58.8916 10.3491 59.1766 9.77911C59.829 8.49674 60.4889 7.22187 61.1114 5.9245C61.1556 5.7943 61.2332 5.67795 61.3363 5.58703C61.4372 5.49606 61.5622 5.43616 61.6963 5.41455H64.846C64.846 5.49704 64.771 5.56454 64.741 5.63953L64.4935 6.03699C62.4937 9.99659 60.4939 13.9637 58.4941 17.9383C58.3591 18.2233 58.2391 18.5082 58.1342 18.8007C58.0292 19.0932 57.9392 19.3932 57.8642 19.6931C57.8454 19.7948 57.8454 19.899 57.8642 20.0006C57.8638 20.0803 57.8791 20.1593 57.9092 20.2331C57.937 20.2982 57.9841 20.3532 58.0442 20.3906C58.1033 20.4274 58.1699 20.4504 58.2391 20.458C58.4021 20.4602 58.5626 20.4187 58.7041 20.3381C59.3586 20.0205 59.9646 19.6114 60.5039 19.1232C61.582 18.1047 62.5292 16.956 63.3236 15.7035C63.5786 15.2911 63.8186 14.8636 64.0736 14.4212C64.426 13.6712 64.7785 12.9888 65.146 12.2689L66.2483 10.0716H64.1486C64.441 9.50914 64.666 9.02919 64.9435 8.57174C65.0181 8.47838 65.1252 8.41674 65.2434 8.39925H65.4009C65.5407 8.43631 65.684 8.45892 65.8284 8.46675C65.9554 8.48171 66.0838 8.48171 66.2108 8.46675C66.4348 8.44775 66.6521 8.38128 66.8483 8.27176C67.0391 8.15613 67.209 8.00907 67.3507 7.83681C67.5827 7.53148 67.7719 7.19591 67.9132 6.83941C68.4981 5.45205 68.5881 5.48204 70.0955 5.49704H72.0603L70.5604 8.40675H72.5702L72.1428 9.24667L71.7378 10.0491H70.1555H70.0055C69.8936 10.0844 69.7893 10.1403 69.698 10.2141C69.6579 10.2442 69.6246 10.2826 69.6005 10.3266C68.2756 12.9413 66.9658 15.5735 65.6709 18.2233C65.5311 18.5166 65.4205 18.8231 65.3409 19.1382C65.2884 19.3257 65.2359 19.5131 65.1984 19.7006C65.1835 19.7975 65.1835 19.8962 65.1984 19.9931C65.1934 20.0804 65.2088 20.1677 65.2434 20.2481C65.2814 20.3173 65.3354 20.3764 65.4009 20.4206C65.4661 20.4631 65.5408 20.4888 65.6184 20.4955C65.7646 20.5008 65.9095 20.4672 66.0384 20.3981L66.6308 20.0981C67.2087 19.7848 67.7496 19.4074 68.2431 18.9732C69.4072 17.864 70.4163 16.6028 71.2428 15.2236C71.5278 14.7736 71.7978 14.3237 72.0678 13.8662C72.1128 13.7912 72.1577 13.7162 72.1952 13.6412C72.3227 13.4163 72.4502 13.1913 72.5927 12.9738C72.7343 12.7716 72.8549 12.5555 72.9527 12.3289C73.0072 12.1932 73.0327 12.0476 73.0277 11.9014C73.0209 11.7425 72.9745 11.5878 72.8927 11.4514C72.8513 11.378 72.8009 11.31 72.7427 11.249C72.6759 11.1383 72.6302 11.0163 72.6077 10.889C72.5814 10.7603 72.5814 10.6277 72.6077 10.499C72.599 10.393 72.6198 10.2866 72.6677 10.1916C72.7712 9.81851 72.947 9.46943 73.1851 9.16418C73.5166 8.69129 73.9775 8.32413 74.5125 8.10678C74.6543 8.06925 74.801 8.05407 74.9475 8.06179C75.0598 8.0752 75.1704 8.10033 75.2774 8.13678C75.6971 8.29256 76.0819 8.52955 76.4098 8.83421L76.0424 9.58413C75.9224 9.83161 75.7874 10.0791 75.6524 10.3341C75.6135 10.3972 75.5833 10.4653 75.5624 10.5365C75.5174 10.724 75.5624 10.859 75.7949 11.009C76.5448 11.5339 77.2272 12.0664 77.9022 12.6438C78.119 12.8285 78.3083 13.0432 78.4646 13.2813C78.6777 13.6329 78.7904 14.0362 78.7904 14.4474C78.7904 14.8586 78.6777 15.2619 78.4646 15.6135C77.8197 16.8884 77.2872 18.2008 76.7173 19.4981C76.6478 19.6822 76.6221 19.8799 76.6423 20.0756C76.6295 20.1887 76.6617 20.3024 76.7318 20.3921C76.8019 20.4819 76.9044 20.5405 77.0173 20.5555C77.1576 20.5561 77.2943 20.5114 77.4072 20.4281C77.6679 20.2635 77.9184 20.0831 78.1572 19.8881C78.383 19.6948 78.5982 19.4895 78.8021 19.2732C79.1021 18.9432 79.387 18.6132 79.657 18.2758C80.1904 17.6018 80.6741 16.89 81.1044 16.146C81.3218 15.771 81.5168 15.3961 81.7043 15.0061C82.0493 14.2562 82.4542 13.5062 82.7842 12.8238C83.1142 12.1414 83.5341 11.3765 83.8866 10.649C83.9515 10.5073 84.059 10.3894 84.194 10.3116C84.328 10.2342 84.4825 10.2002 84.6365 10.2141H87.5912C87.4862 10.424 87.4112 10.5965 87.3287 10.7615C86.7063 11.9914 86.0539 13.2138 85.4239 14.4436C84.794 15.6735 84.1641 16.9034 83.5941 18.1933C83.3312 18.7683 83.1374 19.3724 83.0167 19.9931C82.9715 20.1269 82.9715 20.2718 83.0167 20.4056C83.0467 20.4544 83.0878 20.4955 83.1367 20.5255C83.1875 20.5541 83.2436 20.572 83.3016 20.578H83.4741L83.6691 20.503L83.9466 20.3531C84.2015 20.2106 84.449 20.0756 84.6965 19.9181C85.0221 19.7083 85.3283 19.4699 85.6114 19.2057C85.9564 18.8757 86.2938 18.5382 86.6088 18.1933C87.5612 17.1687 88.3526 16.0056 88.9561 14.7436C89.661 13.2438 90.4559 11.7889 91.2058 10.2441L92.4282 10.664L93.6131 11.099C93.7133 11.1422 93.8195 11.1701 93.9281 11.1815C94.0405 11.1867 94.1528 11.1688 94.258 11.129C94.3638 11.088 94.4605 11.0268 94.543 10.949C95.2679 10.3547 96.1706 10.0195 97.1078 9.99659H97.4902C97.9553 10.004 98.4043 10.1679 98.7649 10.4618C99.1254 10.7556 99.3765 11.1624 99.4775 11.6164C99.6347 12.208 99.6729 12.8248 99.59 13.4312C99.5502 13.7066 99.4951 13.9795 99.425 14.2487C99.3427 14.5854 99.2375 14.9162 99.1101 15.2386C98.7633 16.1796 98.3289 17.086 97.8127 17.9458C97.2705 18.8239 96.6612 19.6588 95.9904 20.443L95.8554 20.608L95.6529 20.8705C96.2103 20.6774 96.7457 20.426 97.2502 20.1206C97.7165 19.8357 98.158 19.5121 98.5701 19.1532C98.8926 18.8682 99.2076 18.5757 99.5075 18.2758C100.097 17.6839 100.625 17.033 101.082 16.3335C101.306 15.9795 101.512 15.614 101.697 15.2386C102.087 14.4286 102.492 13.6262 102.912 12.8088C103.332 11.9914 103.752 11.1815 104.18 10.3416C105.004 10.6265 105.807 10.889 106.587 11.189C106.693 11.229 106.804 11.2542 106.917 11.264C107.024 11.2824 107.134 11.2773 107.239 11.249C107.342 11.2105 107.437 11.1519 107.517 11.0765C108.058 10.6388 108.695 10.3356 109.377 10.1916C109.606 10.1468 109.84 10.1242 110.074 10.1241H110.426C110.891 10.1154 111.349 10.246 111.739 10.499C112.092 10.8105 112.339 11.2249 112.444 11.6839C112.706 12.8701 112.578 14.1094 112.076 15.2161C111.731 16.1529 111.296 17.0545 110.779 17.9083C110.256 18.7773 109.667 19.6046 109.017 20.3831L108.754 20.698L108.844 20.8255C109.494 20.4984 110.125 20.1354 110.734 19.7381C112.383 18.6214 113.718 17.1007 114.611 15.3211C115.495 13.2946 117.071 11.649 119.058 10.679C119.99 10.227 121.025 10.0278 122.058 10.1016C122.279 10.123 122.499 10.1556 122.718 10.1991C123.383 10.3149 123.999 10.6254 124.488 11.0915C124.758 11.3712 124.954 11.7141 125.057 12.0889C125.199 12.7475 125.133 13.4337 124.87 14.0537C124.757 14.3581 124.621 14.6538 124.465 14.9386C124.177 15.4701 123.807 15.9534 123.37 16.371C123.16 16.5736 122.931 16.7568 122.688 16.9184C121.622 17.6024 120.376 17.9524 119.111 17.9233H117.401C117.339 17.9083 117.275 17.9083 117.213 17.9233C117.151 17.9382 117.094 17.9692 117.048 18.0133C116.98 18.1059 116.936 18.2142 116.921 18.3283C116.643 19.6856 117.221 20.473 118.646 20.578H118.826C119.441 20.6084 120.058 20.5323 120.648 20.3531C120.947 20.2697 121.24 20.167 121.525 20.0456C121.81 19.9256 122.088 19.7831 122.365 19.6331C123.386 19.0633 124.306 18.3284 125.087 17.4583C125.57 16.9208 126.014 16.3494 126.415 15.7485C127.112 14.7361 127.727 13.6787 128.35 12.6288C128.374 12.5866 128.391 12.5411 128.402 12.4938C128.425 12.3976 128.425 12.2976 128.402 12.2014C128.395 12.1611 128.38 12.1228 128.357 12.0889C128.083 11.7984 127.928 11.4158 127.922 11.0165C127.93 10.6917 128.02 10.3741 128.185 10.0941C128.228 10.0115 128.275 9.93141 128.327 9.85411C128.447 9.6858 128.577 9.52548 128.717 9.37416C128.896 9.19493 129.087 9.02712 129.287 8.87171C129.409 8.77367 129.543 8.69058 129.684 8.62423C129.886 8.51931 130.11 8.46768 130.337 8.47425C130.573 8.49732 130.8 8.57154 131.004 8.69172C131.282 8.85167 131.545 9.0348 131.792 9.23917C131.664 9.47164 131.544 9.71162 131.424 9.9441L131.027 10.694C130.993 10.7587 130.965 10.8265 130.944 10.8965C130.929 10.9505 130.929 11.0075 130.944 11.0615C130.952 11.1183 130.979 11.171 131.019 11.2115C131.066 11.2646 131.119 11.3124 131.177 11.354C131.537 11.6089 131.927 11.8639 132.249 12.1039C132.572 12.3439 132.954 12.6288 133.292 12.9138C133.509 13.0862 133.699 13.2911 133.854 13.5212C134.065 13.828 134.177 14.1915 134.177 14.5636C134.172 14.8352 134.121 15.1039 134.027 15.3586C133.972 15.5019 133.909 15.642 133.839 15.7785C133.202 17.0084 132.669 18.2758 132.107 19.5281C132.042 19.6847 132.014 19.854 132.024 20.0231C132.017 20.0929 132.017 20.1633 132.024 20.2331C132.04 20.3163 132.085 20.3911 132.152 20.443C132.213 20.5009 132.293 20.5354 132.377 20.5405C132.534 20.5478 132.689 20.4971 132.812 20.3981C133.333 20.0861 133.812 19.708 134.237 19.2732C136.096 17.2934 137.409 14.9986 138.871 12.8013C139.194 12.3214 139.501 11.8264 139.808 11.3015C140.116 10.7765 140.423 10.2891 140.746 9.80161L143.656 10.6115C142.681 13.7237 143.056 16.8434 142.673 20.0081C142.87 19.8989 143.056 19.7708 143.228 19.6256L144.683 18.0733C145.163 17.5483 145.643 17.0234 146.1 16.4909C146.186 16.3916 146.281 16.3011 146.385 16.221C146.465 16.1615 146.563 16.1322 146.663 16.1385C146.783 16.1538 146.896 16.2062 146.985 16.2885C147.06 16.3485 147.15 16.401 147.24 16.4609C147.458 16.6334 147.735 16.8284 147.353 17.2484Z" fill="white"/>
<path d="M23.6452 7.61184C23.6695 8.11886 23.606 8.62626 23.4577 9.11169C23.2238 9.86029 22.8061 10.5384 22.2428 11.084C22.0553 11.2565 21.8678 11.429 21.6728 11.5789C21.2908 11.8919 20.8817 12.1705 20.4505 12.4114C19.3637 13.0029 18.1888 13.4157 16.9708 13.6337C17.0083 13.7012 17.0308 13.7762 17.0758 13.8062C18.6132 14.7961 19.0256 16.2885 18.9506 18.0133C18.9081 18.8734 18.9256 19.7354 19.0031 20.593C19.0193 20.7713 19.0545 20.9473 19.1081 21.118C19.2114 21.4395 19.4168 21.7186 19.693 21.9129C19.8405 22.0086 20.0026 22.0795 20.173 22.1229C20.2177 22.1304 20.2633 22.1304 20.308 22.1229C20.608 22.1229 20.9604 22.0479 21.1854 22.0704C21.2226 22.0633 21.2607 22.0633 21.2979 22.0704C21.3342 22.0867 21.3653 22.1126 21.3879 22.1454C21.4125 22.1969 21.4253 22.2533 21.4253 22.3104C21.4253 22.3675 21.4125 22.4238 21.3879 22.4754C21.3289 22.6742 21.2271 22.8577 21.0898 23.0131C20.9525 23.1686 20.783 23.2922 20.593 23.3753C20.1554 23.5696 19.6842 23.6766 19.2056 23.6902H18.1857C17.8706 23.6855 17.5566 23.6504 17.2483 23.5852L16.8658 23.4953L16.5584 23.4053C16.2645 23.2961 15.9909 23.139 15.7484 22.9403C15.3759 22.6216 15.094 22.2103 14.931 21.7479C14.7443 21.2295 14.6677 20.6778 14.706 20.1281C14.766 18.9282 14.9235 17.7283 14.976 16.5285C14.9872 16.0215 14.9215 15.5158 14.781 15.0286C14.6623 14.6539 14.4288 14.326 14.1136 14.0912C13.9568 13.9723 13.7854 13.874 13.6037 13.7987C13.5139 13.7609 13.4211 13.7308 13.3262 13.7087L13.0412 13.6637H12.7487C12.5838 13.6637 12.3813 13.9112 12.3138 14.0837C11.8713 15.2836 11.4214 16.4835 10.9864 17.6833C10.5515 18.8832 10.1165 20.0906 9.69655 21.3055C9.65006 21.4473 9.59239 21.5852 9.52407 21.7179C9.44132 21.9048 9.31538 22.0693 9.1566 22.1979C8.99918 22.3316 8.81111 22.4244 8.60916 22.4679C7.95672 22.6253 7.29679 22.7603 6.65185 22.9478C6.49701 22.9975 6.33423 23.0179 6.1719 23.0078C6.08344 23.0076 5.9962 22.9871 5.91693 22.9478C5.83419 22.9112 5.76009 22.8575 5.69945 22.7903C5.60095 22.6261 5.54191 22.4413 5.52697 22.2504C5.51672 22.0596 5.55274 21.8692 5.63196 21.6954C5.74444 21.3205 5.86443 20.9455 5.97692 20.5705C6.1644 19.9631 6.35938 19.3557 6.59186 18.7632C7.34178 16.7684 8.1667 14.7811 8.95412 12.7638C9.74154 10.7465 10.499 8.75923 11.2489 6.74943C11.4431 6.22618 11.7359 5.74504 12.1113 5.33207C12.7266 4.68851 13.5037 4.22227 14.3611 3.98221L14.6536 3.88472L15.1035 3.74973L14.2486 3.69723H13.8061C12.3499 3.69651 10.9008 3.901 9.50157 4.30467C8.63801 4.54954 7.81452 4.91834 7.05681 5.39956C6.44701 5.83247 5.93584 6.38965 5.55696 7.0344C5.4656 7.17066 5.4019 7.32354 5.36948 7.48436C5.33573 7.64761 5.33573 7.81605 5.36948 7.97931C5.4019 8.14012 5.4656 8.293 5.55696 8.42926C5.65315 8.56417 5.77248 8.68096 5.90943 8.77423C6.11191 8.95421 6.32189 9.11919 6.53187 9.29168L6.73434 9.46416C7.16826 9.84879 7.43692 10.3861 7.48427 10.964C7.49677 11.0585 7.50179 11.1537 7.49927 11.249C7.46943 11.4621 7.40081 11.668 7.29679 11.8564C7.09814 12.2099 6.80462 12.5008 6.44937 12.6963C6.27428 12.7959 6.0844 12.8667 5.88693 12.9063C5.68562 12.9538 5.47844 12.9715 5.27199 12.9588H5.24949C4.79444 12.9427 4.35054 12.8136 3.9578 12.5832C3.56506 12.3528 3.23581 12.0283 2.99972 11.6389C2.53599 10.842 2.35374 9.91225 2.48227 8.9992C2.62645 7.76617 3.17188 6.6147 4.03462 5.72203C4.28949 5.45081 4.56531 5.20006 4.85953 4.97211C5.65762 4.35159 6.54844 3.86063 7.49927 3.51725C7.93423 3.35977 8.37668 3.22478 8.83414 3.10479C10.4624 2.6766 12.1376 2.45241 13.8211 2.43736C14.3743 2.42725 14.9275 2.44727 15.4785 2.49735C15.8558 2.51135 16.2316 2.55144 16.6034 2.61734C16.9783 2.66984 17.3533 2.73733 17.7282 2.81232C18.4892 2.96225 19.2404 3.15758 19.978 3.39727C21.1774 3.71901 22.2273 4.44815 22.9477 5.45956C23.3741 6.099 23.6155 6.84385 23.6452 7.61184Z" fill="white"/>
<path d="M56.4094 12.5237C56.3264 12.4863 56.2376 12.4635 56.1469 12.4562C55.9377 12.4466 55.7293 12.4878 55.5394 12.5762C55.4412 12.611 55.3459 12.6536 55.2545 12.7037C55.0841 12.7839 54.9272 12.8902 54.7895 13.0186C53.9409 13.7965 53.2397 14.7213 52.7197 15.7484C52.4676 16.2335 52.2471 16.7345 52.0598 17.2482C51.8723 17.7507 51.7073 18.2606 51.5648 18.7481C51.5424 18.9098 51.5424 19.0738 51.5648 19.2355C51.6248 19.648 51.8348 19.8655 52.1723 19.8955C52.3374 19.9 52.5021 19.8771 52.6597 19.828C53.1766 19.6785 53.6568 19.4231 54.0696 19.078C54.4674 18.7335 54.8024 18.3224 55.0595 17.8632C55.172 17.6607 55.277 17.4507 55.382 17.2407C55.9144 16.2433 56.4019 15.2309 56.8818 14.241C56.9876 14.0062 57.0241 13.746 56.9868 13.4911C56.9544 13.2108 56.8336 12.9481 56.6418 12.7412C56.5776 12.6557 56.499 12.582 56.4094 12.5237Z" fill="#152844"/>
<path d="M29.9145 11.9014C29.8142 11.8092 29.6934 11.7424 29.562 11.7064C29.4317 11.6727 29.2949 11.6727 29.1646 11.7064C29.07 11.7204 28.9787 11.7508 28.8946 11.7964C28.4957 11.9749 28.1244 12.2098 27.7922 12.4938C27.6826 12.5835 27.5798 12.6813 27.4848 12.7863C26.2329 14.1725 25.3101 15.8233 24.785 17.6158C24.5846 18.2221 24.4982 18.8603 24.5301 19.4981C24.5113 19.5997 24.5113 19.704 24.5301 19.8056C24.5678 19.9034 24.621 19.9945 24.6875 20.0756C24.7608 20.1526 24.8471 20.2161 24.9425 20.263C25.0367 20.3072 25.1386 20.3327 25.2425 20.338C25.4614 20.3471 25.6788 20.298 25.8724 20.1955C26.1622 20.0421 26.4381 19.8639 26.6973 19.6631C26.9673 19.4606 27.2298 19.2506 27.5073 19.0482C27.3873 18.8232 27.3123 18.6807 27.2523 18.5532L27.1998 18.4332C27.104 18.1695 27.0706 17.8871 27.1023 17.6083C27.1511 17.1909 27.3355 16.8009 27.6272 16.4984C27.8133 16.29 28.0476 16.1304 28.3097 16.0335C28.4453 15.9812 28.5861 15.9435 28.7296 15.921C28.8689 15.9201 29.0056 15.884 29.1271 15.816C29.2515 15.7477 29.3571 15.6498 29.4346 15.531C29.476 15.4437 29.5111 15.3534 29.5396 15.261C29.559 15.161 29.5944 15.0648 29.6445 14.9761C29.6445 14.8786 29.802 14.5936 29.8695 14.4061C29.937 14.2186 29.922 14.2111 29.9445 14.1137C30.0045 13.8287 30.057 13.5437 30.0945 13.2512C30.1245 12.9696 30.1245 12.6855 30.0945 12.4038C30.0886 12.2216 30.0257 12.0459 29.9145 11.9014Z" fill="#152844"/>
<path d="M149.985 16.3784C149.895 15.9534 149.716 15.5522 149.46 15.2011C149.201 14.8511 148.868 14.562 148.485 14.3536C148.023 13.9844 147.462 13.76 146.873 13.7087C146.409 13.6702 145.942 13.7475 145.515 13.9337C145.596 13.064 145.764 12.2047 146.018 11.3689C146.116 11.0514 146.152 10.7177 146.123 10.3865C146.088 10.0544 145.986 9.73289 145.823 9.44163C145.662 9.14959 145.443 8.89419 145.178 8.69171C144.916 8.48813 144.615 8.34013 144.293 8.25675L141.361 7.43933C141.211 7.40033 141.058 7.37276 140.903 7.35684C140.46 7.3269 140.017 7.41761 139.621 7.61932C139.226 7.82286 138.892 8.12836 138.654 8.50423C138.436 8.84919 138.234 9.18666 138.031 9.51663C137.611 10.1916 137.221 10.829 136.809 11.4439L136.126 12.4938C135.806 11.9332 135.384 11.4372 134.882 11.0315C134.602 10.8015 134.317 10.5765 134.027 10.3565C134.275 9.85694 134.346 9.28738 134.228 8.74197C134.109 8.19657 133.808 7.70795 133.374 7.35684C132.598 6.64502 131.621 6.18943 130.577 6.05197C129.898 6.0352 129.225 6.17221 128.606 6.45273C127.988 6.73325 127.442 7.15002 127.007 7.67181C126.597 8.08342 126.252 8.55655 125.987 9.07417C125.195 8.42474 124.25 7.9862 123.243 7.7993C122.926 7.73178 122.606 7.68667 122.283 7.66431C120.824 7.55136 119.362 7.82829 118.046 8.46673C116.807 9.03745 115.686 9.83339 114.739 10.814C114.475 9.91688 113.938 9.12426 113.203 8.54634C112.467 7.96842 111.571 7.63391 110.636 7.58932H110.067C108.885 7.60339 107.73 7.94334 106.729 8.57172L105.739 8.24925L104.99 7.99428C104.66 7.88079 104.309 7.83816 103.962 7.86917C103.614 7.90018 103.277 8.00414 102.972 8.17426C102.554 8.40691 102.213 8.75604 101.99 9.17916C101.832 9.50163 101.667 9.8166 101.502 10.1316C101.163 9.38443 100.626 8.74425 99.9494 8.2803C99.2727 7.81635 98.4819 7.54629 97.6628 7.49933H97.1078C95.9146 7.5057 94.7475 7.84883 93.7407 8.48923L92.7433 8.13676L91.9933 7.88929C91.7912 7.82233 91.5826 7.77708 91.3709 7.7543C90.9847 7.72755 90.5974 7.7891 90.2385 7.93428C90.4393 7.49619 90.5636 7.02696 90.606 6.54692C90.6515 6.00782 90.5904 5.46503 90.426 4.94958C90.2681 4.43842 90.0135 3.96234 89.6761 3.54722C89.3036 3.10725 88.8457 2.74746 88.33 2.48965C87.8144 2.23184 87.2518 2.08138 86.6764 2.04737H86.4289C85.3118 2.02049 84.2246 2.41024 83.3791 3.14076C82.5335 3.87128 81.99 4.8903 81.8543 5.99948C81.7638 6.87534 81.9528 7.75739 82.3943 8.51923C82.0799 8.80383 81.825 9.14793 81.6444 9.53162L80.7595 11.249L80.467 11.8189C80.1914 11.4195 79.8635 11.0588 79.4921 10.7465C79.1846 10.484 78.8846 10.2366 78.5697 9.99658V9.95158C78.8244 9.4576 78.9038 8.89172 78.7948 8.34672C78.6858 7.80171 78.3949 7.30989 77.9697 6.95188C77.1804 6.21774 76.1815 5.74844 75.1125 5.60952C74.8881 5.58701 74.662 5.58701 74.4376 5.60952C74.4537 5.13488 74.3312 4.66582 74.0851 4.25965C73.885 3.92589 73.6071 3.64546 73.2752 3.44223C72.9454 3.23397 72.5693 3.11033 72.1803 3.08227H69.998C68.5432 3.08227 67.5683 3.22476 66.7809 4.01968C66.5753 3.73191 66.3102 3.49184 66.0035 3.31583C65.6967 3.13983 65.3557 3.03203 65.0035 2.99978H62.0938C61.4206 2.93885 60.7453 3.09154 60.1637 3.43615C59.5822 3.78077 59.124 4.2998 58.8541 4.91959C58.4192 5.82699 57.9467 6.7494 57.4893 7.65681C57.0106 7.46361 56.5044 7.34719 55.9894 7.31185C54.8139 7.23797 53.6414 7.49794 52.6073 8.06177C51.9858 8.37438 51.4084 8.76775 50.8899 9.23166C50.7824 8.92493 50.6152 8.64255 50.398 8.40084C50.1807 8.15912 49.9177 7.96286 49.6241 7.8234C49.3305 7.68393 49.0122 7.60403 48.6876 7.58831C48.363 7.57259 48.0384 7.62136 47.7328 7.7318L45.288 8.61672C44.4747 7.79959 43.3933 7.30416 42.2433 7.22186C41.7856 7.18428 41.3252 7.19938 40.8709 7.26685C39.4095 7.47426 38.0463 8.12315 36.9638 9.12667C36.3973 9.62552 35.8777 10.1753 35.4115 10.769C35.0867 9.90103 34.5506 9.12776 33.8516 8.51923C33.151 7.90285 32.3084 7.46996 31.3994 7.25935C30.9811 7.15482 30.5546 7.08707 30.1245 7.05687C28.7374 6.94835 27.3447 7.18003 26.0674 7.7318C26.0601 6.4532 25.6852 5.20366 24.9875 4.13216C23.965 2.67522 22.4711 1.6157 20.7579 1.13246C19.1348 0.585283 17.4538 0.227937 15.7485 0.0675706C13.2281 -0.126455 10.6931 0.104232 8.2492 0.750002C5.98577 1.2519 3.90775 2.37663 2.2498 3.99718C1.24403 5.02321 0.539378 6.30578 0.212733 7.70493C-0.113912 9.10408 -0.0500042 10.5661 0.397484 11.9314C0.746416 12.894 1.36625 13.7352 2.18231 14.3536C2.99839 14.9672 3.97569 15.3294 4.99452 15.396H5.2495C4.92703 16.206 4.60456 17.0234 4.2896 17.8333C3.97463 18.6432 3.68216 19.5731 3.42718 20.413L3.2697 20.9305C3.0815 21.4455 3.01471 21.9969 3.07455 22.5419C3.13438 23.0869 3.31922 23.6108 3.61466 24.0727C3.88296 24.4665 4.23673 24.7946 4.64956 25.0326C5.06209 25.2703 5.52418 25.4089 5.99942 25.4375C6.46756 25.4678 6.93734 25.4145 7.38679 25.2801C7.73175 25.1751 8.13671 25.0851 8.51917 24.9951L9.2241 24.8301C9.8873 24.6574 10.4931 24.3126 10.9804 23.8307C11.4676 23.3487 11.8189 22.7467 11.9988 22.0854L12.2913 21.238C12.3764 22.2412 12.7483 23.1989 13.3627 23.9967C13.977 24.7945 14.8077 25.3988 15.7559 25.7375C16.4857 25.9722 17.2411 26.1183 18.0057 26.1725C20.1655 26.3449 21.8753 25.8275 22.8952 24.7476C23.4107 24.9157 23.9445 25.0215 24.4851 25.0626H25.0625C27.222 25.0958 29.3207 24.3474 30.9719 22.9553C31.4219 22.5803 31.5719 22.5503 31.7968 22.5353C32.0218 22.5203 32.2093 22.4903 32.4118 22.4603C32.7624 23.1919 33.3001 23.8178 33.9704 24.2748C34.6407 24.7318 35.4198 25.0035 36.2289 25.0626C36.8447 25.1081 37.4636 25.0472 38.0587 24.8826C38.7111 24.6943 39.3381 24.4273 39.926 24.0877C40.678 24.6554 41.5804 24.9892 42.5208 25.0476H43.0232C44.526 25.0513 45.9958 24.6075 47.2453 23.7727C48.017 24.5367 49.0349 25.0018 50.1175 25.0851C51.3646 25.1463 52.6031 24.8497 53.6872 24.2302L53.8296 24.1477C54.5597 24.6885 55.4283 25.0109 56.3344 25.0776C56.835 25.114 57.3381 25.0938 57.8342 25.0176C58.8966 24.8584 59.9164 24.4887 60.8339 23.9302C61.5133 24.4945 62.3366 24.8581 63.2112 24.9801L63.7137 25.0401C64.3197 25.0839 64.9289 25.0562 65.5285 24.9576C67.617 24.5291 69.5186 23.4563 70.9654 21.8904C71.1897 22.622 71.5998 23.283 72.1558 23.8087C72.7118 24.3345 73.3946 24.7071 74.1376 24.8901C74.4885 24.9858 74.8475 25.0486 75.21 25.0776C76.5252 25.1771 77.8381 24.8567 78.9596 24.1627C79.5629 24.5921 80.2594 24.8722 80.9919 24.9801L80.5795 25.7975C80.3056 26.34 80.243 26.965 80.4037 27.5511C80.5644 28.1372 80.9371 28.6427 81.4494 28.9697C81.7864 29.1894 82.1732 29.321 82.5743 29.3521H85.4915C86.1602 29.4042 86.8285 29.247 87.4038 28.9022C87.9756 28.5567 88.4303 28.0472 88.7087 27.4398C89.1961 26.4499 89.6911 25.46 90.2085 24.4401C90.9941 24.7463 91.8203 24.9358 92.6608 25.0026C93.0804 25.0251 93.501 25.0251 93.9206 25.0026L93.5682 25.7C93.3879 26.0605 93.2978 26.4594 93.3057 26.8624C93.3187 27.2643 93.4267 27.6575 93.6207 28.0098C93.8176 28.3625 94.0983 28.6612 94.4381 28.8797C94.7766 29.0964 95.1626 29.2276 95.563 29.2622H98.5627C99.2189 29.3074 99.8732 29.1503 100.437 28.8122C101.002 28.4752 101.451 27.9761 101.727 27.3798C102.222 26.3824 102.702 25.43 103.167 24.5076C103.792 24.7389 104.446 24.8852 105.11 24.9426H105.297C107.879 25.1515 110.458 24.5003 112.631 23.0903C113.547 24.0086 114.732 24.6104 116.013 24.8076C116.388 24.8751 116.763 24.9276 117.131 24.9576C119.438 25.1214 121.742 24.5996 123.753 23.4577C124.684 22.9528 125.559 22.3494 126.362 21.6579C126.579 22.4184 126.996 23.1066 127.57 23.6503C128.144 24.194 128.853 24.573 129.625 24.7476C129.98 24.844 130.344 24.9068 130.712 24.9351C132.164 25.0463 133.608 24.6428 134.792 23.7952C135.209 24.075 135.663 24.2946 136.141 24.4476C136.897 24.6904 137.676 24.8488 138.466 24.9201C141.081 25.0927 143.665 24.2673 145.695 22.6103C147.08 21.4994 148.302 20.1993 149.325 18.7482C149.595 18.4221 149.789 18.0406 149.895 17.6308C150.015 17.2247 150.046 16.7975 149.985 16.3784ZM84.5166 5.51203C84.6402 5.29851 84.8001 5.10818 84.989 4.94958C85.1839 4.78484 85.4077 4.6577 85.649 4.57462C85.8897 4.48986 86.1437 4.44921 86.3989 4.45463H86.5114C86.6352 4.46919 86.7579 4.49174 86.8788 4.52213C87.2161 4.61227 87.5206 4.79702 87.7563 5.05457C87.9145 5.22061 88.0325 5.42072 88.1012 5.63951C88.1768 5.85596 88.205 6.08616 88.1837 6.31445C88.168 6.57749 88.0937 6.8337 87.9662 7.06437C87.7706 7.40355 87.4919 7.68742 87.1563 7.88929C86.8186 8.08372 86.4361 8.18708 86.0464 8.18926H85.9114C85.6693 8.16591 85.4332 8.0999 85.214 7.99428C85.0116 7.88914 84.831 7.74665 84.6816 7.57432C84.5316 7.39911 84.4192 7.19489 84.3516 6.97438C84.273 6.73269 84.2475 6.47692 84.2766 6.22446C84.3119 5.9742 84.3933 5.73265 84.5166 5.51203ZM21.3879 22.4978C21.3289 22.6966 21.2271 22.8802 21.0898 23.0356C20.9525 23.191 20.783 23.3146 20.593 23.3977C20.1554 23.5921 19.6842 23.6991 19.2056 23.7127H18.1857C17.8699 23.7006 17.5559 23.6579 17.2483 23.5852L16.8658 23.4952L16.5584 23.4052C16.2645 23.2961 15.9909 23.139 15.7485 22.9403C15.3759 22.6216 15.094 22.2103 14.931 21.7479C14.7444 21.2294 14.6677 20.6778 14.7061 20.1281C14.766 18.9282 14.9235 17.7283 14.976 16.5284C14.9872 16.0215 14.9215 15.5158 14.781 15.0286C14.6623 14.6539 14.4289 14.3259 14.1136 14.0912C13.9568 13.9723 13.7854 13.874 13.6037 13.7987C13.5139 13.7609 13.4211 13.7308 13.3262 13.7087L13.0412 13.6637H12.7487C12.5838 13.6637 12.3813 13.9112 12.3138 14.0837C11.8713 15.2835 11.4214 16.4834 10.9864 17.6833C10.5515 18.8832 10.1165 20.0906 9.69656 21.3054C9.65007 21.4473 9.59239 21.5852 9.52407 21.7179C9.44133 21.9047 9.31538 22.0692 9.15661 22.1979C8.99919 22.3316 8.81112 22.4244 8.60916 22.4678C7.95673 22.6253 7.29679 22.7603 6.65186 22.9478C6.49701 22.9975 6.33423 23.0179 6.17191 23.0078C6.08344 23.0076 5.99621 22.987 5.91693 22.9478C5.83419 22.9111 5.7601 22.8575 5.69945 22.7903C5.60096 22.6261 5.54191 22.4413 5.52697 22.2504C5.51673 22.0596 5.55274 21.8692 5.63196 21.6954C5.74445 21.3204 5.86444 20.9455 5.97693 20.5705C6.16441 19.9631 6.35939 19.3556 6.59187 18.7632C7.34179 16.7684 8.16671 14.7811 8.95413 12.7638C9.74155 10.7465 10.499 8.7592 11.2489 6.7494C11.4431 6.22615 11.7359 5.74501 12.1113 5.33204C12.7266 4.68848 13.5037 4.22225 14.3611 3.98218L14.6536 3.88469L15.1035 3.7497L14.2486 3.69721H13.8061C12.3499 3.69648 10.9008 3.90097 9.50157 4.30465C8.63801 4.54951 7.81452 4.91831 7.05682 5.39954C6.44702 5.83244 5.93585 6.38962 5.55697 7.03437C5.46561 7.17063 5.40191 7.32351 5.36949 7.48433C5.33574 7.64759 5.33574 7.81602 5.36949 7.97928C5.40191 8.1401 5.46561 8.29298 5.55697 8.42923C5.65316 8.56414 5.77249 8.68094 5.90943 8.7742C6.11191 8.95418 6.32189 9.11917 6.53187 9.29165L6.73435 9.46413C7.16827 9.84876 7.43692 10.3861 7.48428 10.964C7.49678 11.0584 7.50179 11.1537 7.49927 11.249C7.46944 11.4621 7.40081 11.668 7.29679 11.8564C7.09815 12.2099 6.80463 12.5008 6.44938 12.6963C6.27428 12.7958 6.08441 12.8667 5.88694 12.9063C5.68563 12.9538 5.47844 12.9714 5.272 12.9588H5.2495C4.79445 12.9427 4.35055 12.8136 3.95781 12.5832C3.56507 12.3528 3.23582 12.0283 2.99972 11.6389C2.53599 10.842 2.35374 9.91222 2.48228 8.99918C2.62645 7.76614 3.17189 6.61467 4.03462 5.72201C4.2895 5.45078 4.56532 5.20003 4.85954 4.97208C5.65762 4.35157 6.54845 3.8606 7.49927 3.51723C7.93423 3.35974 8.37669 3.22475 8.83414 3.10477C10.4624 2.67658 12.1376 2.45238 13.8211 2.43733C14.3743 2.42722 14.9275 2.44725 15.4785 2.49733C15.8558 2.51132 16.2316 2.55141 16.6034 2.61732C16.9783 2.66981 17.3533 2.7373 17.7283 2.8123C18.4892 2.96222 19.2404 3.15755 19.978 3.39724C21.1774 3.71898 22.2273 4.44812 22.9477 5.45953C23.3741 6.09897 23.6155 6.84382 23.6452 7.61182C23.6695 8.11883 23.606 8.62623 23.4577 9.11167C23.2238 9.86026 22.8062 10.5383 22.2428 11.084C22.0553 11.2565 21.8678 11.4289 21.6729 11.5789C21.2908 11.8919 20.8817 12.1705 20.4505 12.4113C19.3637 13.0029 18.1888 13.4157 16.9708 13.6337C17.0083 13.7012 17.0308 13.7762 17.0758 13.8062C18.6132 14.7961 19.0256 16.2884 18.9506 18.0133C18.9081 18.8734 18.9256 19.7354 19.0031 20.593C19.0193 20.7712 19.0545 20.9472 19.1081 21.118C19.2114 21.4395 19.4168 21.7186 19.6931 21.9129C19.8405 22.0086 20.0026 22.0795 20.173 22.1229C20.2177 22.1304 20.2633 22.1304 20.308 22.1229C20.608 22.1229 20.9604 22.0479 21.1854 22.0704C21.2226 22.0633 21.2607 22.0633 21.2979 22.0704C21.3342 22.0867 21.3653 22.1126 21.3879 22.1454C21.4125 22.1969 21.4253 22.2532 21.4253 22.3103C21.4253 22.3674 21.4125 22.4238 21.3879 22.4753V22.4978ZM147.375 17.2484C147.143 17.5749 146.893 17.8878 146.625 18.1858C146.34 18.4932 146.138 18.8007 145.875 19.1007C145.356 19.7063 144.776 20.2567 144.143 20.743C143.53 21.2168 142.863 21.617 142.156 21.9354C141.932 22.0395 141.701 22.1297 141.466 22.2054C141.007 22.358 140.535 22.466 140.056 22.5278C139.575 22.5803 139.09 22.5803 138.609 22.5278C138.004 22.476 137.408 22.3552 136.831 22.1679C136.179 21.8755 135.561 21.5135 134.987 21.088L135.541 20.773C136.059 20.4805 136.501 20.2331 136.951 20.0231C136.995 20.0082 137.043 20.0082 137.086 20.0231C137.201 20.0397 137.313 20.0752 137.416 20.1281C137.52 20.1807 137.628 20.2258 137.739 20.2631C137.839 20.2945 137.942 20.3147 138.046 20.323C138.313 20.3478 138.58 20.279 138.802 20.1285C139.023 19.9781 139.186 19.7552 139.261 19.4981C139.417 19.0674 139.533 18.623 139.606 18.1708C139.651 17.875 139.681 17.5772 139.696 17.2784C139.779 16.2135 139.861 15.1486 139.951 14.0837L139.756 14.0387C139.644 14.2037 139.539 14.3686 139.419 14.5336C138.804 15.411 138.196 16.3034 137.581 17.1884C136.966 18.0733 136.336 18.9432 135.669 19.7981C135.017 20.5767 134.26 21.2607 133.419 21.8304C133.234 21.971 133.035 22.094 132.827 22.1979C132.425 22.4005 131.991 22.53 131.544 22.5803C131.32 22.6028 131.094 22.6028 130.869 22.5803L130.569 22.5353C130.448 22.5202 130.328 22.4976 130.21 22.4678C129.981 22.4144 129.763 22.3231 129.565 22.1979C129.285 22.0337 129.055 21.7982 128.897 21.5154C128.836 21.3951 128.786 21.2696 128.747 21.1405C128.689 20.9533 128.656 20.759 128.65 20.563C128.635 19.9905 128.718 19.4197 128.897 18.8757C129.083 18.3239 129.311 17.7873 129.58 17.2709C129.91 16.6109 130.232 15.936 130.607 15.291C130.702 15.1641 130.768 15.0184 130.802 14.8636C130.836 14.7104 130.836 14.5518 130.802 14.3986C130.772 14.2453 130.711 14.0997 130.622 13.9712C130.533 13.8418 130.418 13.7321 130.285 13.6487C130.12 13.5212 129.97 13.3787 129.782 13.2213C129.085 14.3161 128.44 15.411 127.712 16.4609C126.421 18.4927 124.655 20.1808 122.568 21.3804C122.154 21.6006 121.728 21.7983 121.293 21.9729C120.66 22.2195 120.001 22.3931 119.328 22.4903C119.107 22.5067 118.887 22.5343 118.668 22.5728C118.219 22.6103 117.767 22.6103 117.318 22.5728C117.066 22.562 116.814 22.5269 116.568 22.4678H116.471C116.276 22.4303 116.088 22.3853 115.901 22.3328C115.562 22.2329 115.239 22.0866 114.941 21.8979C114.373 21.5386 113.957 20.9836 113.771 20.338C113.717 20.1584 113.675 19.9756 113.644 19.7906C113.654 19.6941 113.633 19.5969 113.584 19.5131C113.555 19.4699 113.523 19.4297 113.486 19.3931C111.236 21.5379 108.657 22.8203 105.507 22.5728H105.357C105.087 22.5456 104.819 22.503 104.555 22.4453C103.761 22.2816 103.056 21.8302 102.575 21.178L103.7 20.2481C103.981 20.4187 104.291 20.5357 104.615 20.593C104.782 20.5947 104.948 20.5615 105.102 20.4955C105.258 20.427 105.396 20.3245 105.507 20.1956C105.612 20.0906 105.732 19.9706 105.852 19.8281C106.234 19.3993 106.595 18.9512 106.932 18.4857C107.579 17.5793 108.113 16.5971 108.522 15.561C108.724 15.044 108.897 14.5156 109.039 13.9787C109.062 13.8749 109.077 13.7696 109.084 13.6637V13.3487C109.039 12.9288 108.852 12.6963 108.522 12.6738C108.372 12.6649 108.222 12.6827 108.079 12.7263C107.489 12.8929 106.939 13.1784 106.463 13.5653C105.987 13.9522 105.596 14.4323 105.312 14.9761C103.812 17.8033 102.402 20.6455 100.962 23.4952L99.5226 26.3449C99.4792 26.4369 99.4237 26.5227 99.3576 26.5999C99.2699 26.71 99.1529 26.7932 99.0201 26.8399C98.8857 26.881 98.7421 26.881 98.6077 26.8399H95.743C96.2529 25.82 96.7629 24.8226 97.2428 23.8402L98.7427 20.8405C98.2597 21.1231 97.7587 21.3736 97.2428 21.5904C96.5233 21.9365 95.7692 22.2055 94.993 22.3928C94.2573 22.5713 93.4984 22.6346 92.7433 22.5803C91.4949 22.4661 90.303 22.0065 89.3011 21.253L89.7361 20.9005L90.0585 20.6305L90.621 20.1731C90.7755 20.2793 90.9357 20.3769 91.1009 20.4655C91.2243 20.5245 91.3557 20.565 91.4909 20.5855C91.5707 20.593 91.651 20.593 91.7309 20.5855C92.0249 20.4654 92.2832 20.2718 92.4808 20.0231C93.1254 19.3589 93.7031 18.633 94.2056 17.8558C94.6923 17.1011 95.0971 16.2966 95.413 15.456C95.6169 14.8942 95.7872 14.3208 95.9229 13.7387C95.9601 13.5841 95.9753 13.4251 95.9679 13.2663C95.9664 13.1442 95.9382 13.0239 95.8854 12.9138C95.8338 12.8172 95.7591 12.7347 95.668 12.6738C95.5752 12.6172 95.4691 12.5861 95.3605 12.5838C95.058 12.5758 94.7585 12.6455 94.4906 12.7863C93.4778 13.2302 92.6507 14.0122 92.1508 14.9986L89.2411 20.698C88.2812 22.6028 87.3213 24.5001 86.3689 26.4124C86.3231 26.5117 86.2652 26.6049 86.1964 26.6899C86.1415 26.7607 86.0726 26.8194 85.9939 26.8624C85.9189 26.9087 85.8342 26.9369 85.7465 26.9449C85.6445 26.9599 85.5409 26.9599 85.439 26.9449H82.6118L84.7416 22.7378L85.4915 21.2829L85.0265 21.5754L84.6591 21.8004C84.0014 22.2207 83.2632 22.4991 82.4918 22.6178C82.2423 22.6403 81.9913 22.6403 81.7419 22.6178C81.2001 22.6203 80.6784 22.4134 80.2857 22.0403C79.893 21.6671 79.6597 21.1566 79.6346 20.6155C79.3571 20.833 79.0946 21.0505 78.8396 21.2605L78.0897 21.8604C77.5201 22.2572 76.8649 22.5141 76.1774 22.6103C75.9527 22.6253 75.7272 22.6253 75.5025 22.6103C75.28 22.5893 75.0594 22.5517 74.8426 22.4978C74.3939 22.3989 73.9935 22.1471 73.7102 21.7854C73.4249 21.4282 73.2737 20.9825 73.2827 20.5255C73.3201 19.3293 73.6497 18.1604 74.2426 17.1209C74.5801 16.4309 74.91 15.741 75.2775 15.0736C75.3245 14.9909 75.367 14.9058 75.405 14.8186C75.4664 14.6682 75.5019 14.5084 75.51 14.3461C75.5125 14.2019 75.4844 14.0588 75.4275 13.9262C75.3244 13.7077 75.17 13.5173 74.9775 13.3712C74.8126 13.2363 74.6626 13.0938 74.4526 12.8988C74.2876 13.1763 74.1376 13.4237 73.9951 13.6487C73.6902 14.1837 73.3752 14.7161 73.0502 15.2461C72.2314 16.597 71.3034 17.8786 70.2755 19.0782C70.0805 19.3031 69.9005 19.5281 69.6981 19.7381C69.3052 20.1509 68.8896 20.5415 68.4532 20.908C68.215 21.1176 67.9645 21.3129 67.7033 21.4929C67.3366 21.7393 66.9474 21.9502 66.5409 22.1229C66.1179 22.2955 65.678 22.4237 65.2285 22.5053C65.0298 22.5368 64.8295 22.5568 64.6286 22.5653C64.4289 22.5803 64.2283 22.5803 64.0286 22.5653L63.6837 22.4978C63.5254 22.4754 63.3697 22.4378 63.2187 22.3853C62.942 22.3109 62.6857 22.1751 62.4688 21.9879C62.2265 21.7372 62.04 21.4382 61.9213 21.1105C61.801 20.782 61.7499 20.4322 61.7714 20.0831L61.1414 20.6305L60.5415 21.133C59.8892 21.6726 59.1413 22.0847 58.3367 22.3478C58.0663 22.4289 57.7907 22.4915 57.5118 22.5353L57.0168 22.5803C56.8647 22.5953 56.7115 22.5953 56.5594 22.5803C56.3029 22.5656 56.0502 22.5125 55.8094 22.4228C55.595 22.3365 55.3952 22.2176 55.217 22.0704C55.1271 21.9929 55.0442 21.9076 54.9695 21.8154C54.7153 21.5003 54.5197 21.1422 54.3921 20.758C54.0846 20.968 53.7846 21.2005 53.4847 21.4104C53.1828 21.6304 52.8672 21.8307 52.5398 22.0104C51.8611 22.4156 51.0799 22.6161 50.29 22.5878C49.9971 22.5728 49.7111 22.4938 49.452 22.3565C49.1929 22.2192 48.967 22.0268 48.7901 21.7929C48.4757 21.3787 48.2649 20.8953 48.1752 20.383C48.1362 20.1798 48.1086 19.9745 48.0927 19.7681C47.6172 20.2468 47.1165 20.6999 46.5929 21.1255C46.3225 21.349 46.0396 21.5568 45.7455 21.7479C45.465 21.9225 45.1717 22.0754 44.868 22.2054C44.5684 22.3331 44.2569 22.4311 43.9381 22.4978C43.775 22.5338 43.6097 22.5589 43.4432 22.5728C43.2735 22.5878 43.1029 22.5878 42.9332 22.5728H42.7458C42.4901 22.5482 42.2383 22.4928 41.9958 22.4078C41.7746 22.3262 41.5691 22.207 41.3884 22.0554C41.3059 21.9729 41.2234 21.8829 41.1484 21.7929C40.9026 21.4655 40.7288 21.0898 40.6385 20.6905C40.4885 20.8105 40.3535 20.9455 40.211 21.0655C40.0748 21.1854 39.9265 21.291 39.7686 21.3804L38.6437 22.0104C38.257 22.2208 37.8466 22.3844 37.4213 22.4978C37.2543 22.543 37.0837 22.5731 36.9113 22.5878C36.7517 22.6028 36.591 22.6028 36.4314 22.5878C36.2839 22.5715 36.1383 22.5414 35.9964 22.4978C35.4751 22.3293 35.0271 21.9874 34.727 21.529C34.4269 21.0706 34.2926 20.5233 34.3466 19.9781V19.2282L33.6492 19.4681C33.1916 19.6556 32.7233 19.8159 32.2468 19.9481C32.0221 20.0007 31.7941 20.0383 31.5644 20.0606C30.95 20.099 30.3582 20.3067 29.8545 20.6605C29.6791 20.7771 29.5112 20.9049 29.3521 21.043C28.6024 21.6746 27.721 22.1307 26.7724 22.3778C26.5849 22.4228 26.3974 22.4678 26.2099 22.4978C25.8205 22.5591 25.4266 22.5867 25.0325 22.5803H24.6276C24.1539 22.5488 23.6882 22.4425 23.2477 22.2654C22.6629 22.0255 22.1638 21.6153 21.8153 21.088C21.6199 20.7691 21.4733 20.4228 21.3804 20.0606L21.3129 19.7756C21.2728 19.5652 21.2477 19.3522 21.2379 19.1382C21.2158 18.301 21.3272 17.4656 21.5679 16.6634C21.9 15.4947 22.4056 14.3824 23.0677 13.3637C23.969 11.894 25.2694 10.7107 26.8173 9.95158C27.2963 9.73231 27.7999 9.57118 28.3172 9.47163C29.1213 9.31185 29.9505 9.32976 30.747 9.52413C31.2203 9.63019 31.6621 9.84597 32.0368 10.1541C32.4179 10.4555 32.7214 10.8438 32.9217 11.2864C33.1787 11.858 33.2945 12.4831 33.2592 13.1088C33.2734 13.919 33.1852 14.7278 32.9967 15.516C32.7569 16.2919 32.4482 17.0448 32.0743 17.7658C31.9768 17.9533 31.8943 18.1333 31.7144 18.5157L32.1718 18.3582C32.5752 18.2432 32.9649 18.0848 33.3342 17.8858C34.3435 17.3264 35.1357 16.4443 35.584 15.381C35.9288 14.5463 36.3506 13.7454 36.8438 12.9888C37.3439 12.2157 37.9468 11.5143 38.6362 10.904C39.0029 10.5745 39.4114 10.2947 39.851 10.0716C40.2883 9.85076 40.76 9.7062 41.2459 9.64411C41.5276 9.61414 41.8116 9.61414 42.0933 9.64411C42.2197 9.65003 42.3452 9.66761 42.4683 9.69661C42.8404 9.79268 43.188 9.96648 43.4882 10.2066C43.7988 10.4472 44.0545 10.7515 44.2381 11.099C44.3131 11.2265 44.3956 11.3689 44.4706 11.5264L48.6477 10.0266C48.5052 10.349 48.4152 10.5815 48.3027 10.7765C47.1178 13.1763 45.9179 15.5685 44.7481 17.9683C44.6131 18.2458 44.5006 18.5307 44.3956 18.8157C44.2934 19.101 44.2058 19.3914 44.1331 19.6856C44.103 19.7904 44.0878 19.899 44.0881 20.0081C44.0814 20.085 44.0943 20.1624 44.1256 20.2331C44.1558 20.3049 44.2051 20.3672 44.2681 20.413C44.3291 20.4574 44.4027 20.4811 44.4781 20.4805C44.6656 20.4903 44.8523 20.4488 45.018 20.3605C45.4379 20.1731 45.8252 19.92 46.1654 19.6106C47.6211 18.3759 48.8101 16.8577 49.6601 15.1486C50.2995 13.6001 51.2666 12.2084 52.4948 11.069C52.6888 10.8985 52.8915 10.7383 53.1022 10.589C53.3158 10.4399 53.5387 10.3046 53.7696 10.1841C54.1102 10.0097 54.4701 9.87628 54.842 9.7866C55.01 9.74757 55.1803 9.72001 55.352 9.70411C55.5116 9.68911 55.6723 9.68911 55.8319 9.70411C56.0882 9.72511 56.3405 9.7806 56.5819 9.86909C56.8156 9.95356 57.0355 10.0723 57.2343 10.2216C57.6791 10.569 58.0361 11.0159 58.2767 11.5264C58.5917 10.9115 58.8916 10.349 59.1766 9.7791C59.829 8.49673 60.489 7.22186 61.1114 5.92448C61.1557 5.79428 61.2332 5.67793 61.3364 5.58702C61.4373 5.49605 61.5623 5.43615 61.6964 5.41454H64.846C64.846 5.49703 64.7711 5.56452 64.7411 5.63951L64.4936 6.03697C62.4938 9.99658 60.494 13.9637 58.4942 17.9383C58.3592 18.2233 58.2392 18.5082 58.1342 18.8007C58.0292 19.0932 57.9392 19.3931 57.8642 19.6931C57.8455 19.7947 57.8455 19.8989 57.8642 20.0006C57.8638 20.0803 57.8791 20.1593 57.9092 20.2331C57.937 20.2982 57.9841 20.3531 58.0442 20.3905C58.1033 20.4274 58.17 20.4504 58.2392 20.458C58.4021 20.4601 58.5626 20.4187 58.7042 20.338C59.3587 20.0205 59.9647 19.6114 60.504 19.1232C61.5821 18.1047 62.5293 16.9559 63.3237 15.7035C63.5787 15.291 63.8186 14.8636 64.0736 14.4211C64.4261 13.6712 64.7786 12.9888 65.146 12.2689L66.2484 10.0716H64.1486C64.4411 9.50913 64.6661 9.02917 64.9435 8.57172C65.0181 8.47836 65.1253 8.41673 65.2435 8.39924H65.401C65.5408 8.43629 65.684 8.45891 65.8284 8.46673C65.9555 8.4817 66.0839 8.4817 66.2109 8.46673C66.4348 8.44774 66.6521 8.38127 66.8483 8.27175C67.0391 8.15611 67.209 8.00905 67.3508 7.83679C67.5828 7.53146 67.772 7.1959 67.9132 6.83939C68.4982 5.45203 68.5882 5.48203 70.0955 5.49703H72.0603L70.5605 8.40674H72.5703L72.1428 9.24665L71.7379 10.0491H70.1555H70.0055C69.8936 10.0843 69.7893 10.1403 69.6981 10.2141C69.6579 10.2442 69.6247 10.2825 69.6006 10.3265C68.2757 12.9413 66.9658 15.5735 65.671 18.2233C65.5311 18.5166 65.4206 18.8231 65.341 19.1382C65.2885 19.3256 65.236 19.5131 65.1985 19.7006C65.1836 19.7975 65.1836 19.8962 65.1985 19.9931C65.1935 20.0804 65.2089 20.1677 65.2435 20.2481C65.2815 20.3173 65.3355 20.3764 65.401 20.4205C65.4662 20.4631 65.5409 20.4888 65.6185 20.4955C65.7646 20.5008 65.9096 20.4672 66.0384 20.398L66.6309 20.0981C67.2088 19.7847 67.7496 19.4074 68.2432 18.9732C69.4073 17.864 70.4163 16.6027 71.2429 15.2236C71.5279 14.7736 71.7979 14.3236 72.0678 13.8662C72.1128 13.7912 72.1578 13.7162 72.1953 13.6412C72.3228 13.4162 72.4503 13.1913 72.5928 12.9738C72.7344 12.7716 72.855 12.5555 72.9527 12.3288C73.0072 12.1931 73.0328 12.0475 73.0277 11.9014C73.021 11.7425 72.9746 11.5878 72.8927 11.4514C72.8514 11.378 72.801 11.3099 72.7428 11.249C72.676 11.1383 72.6302 11.0163 72.6078 10.889C72.5815 10.7603 72.5815 10.6277 72.6078 10.499C72.5991 10.393 72.6198 10.2866 72.6678 10.1916C72.7713 9.8185 72.9471 9.46942 73.1852 9.16416C73.5167 8.69128 73.9776 8.32412 74.5126 8.10677C74.6543 8.06924 74.8011 8.05406 74.9475 8.06177C75.0598 8.07518 75.1704 8.10032 75.2775 8.13676C75.6971 8.29254 76.0819 8.52954 76.4099 8.83419L76.0424 9.58412C75.9224 9.83159 75.7875 10.0791 75.6525 10.334C75.6136 10.3972 75.5833 10.4653 75.5625 10.5365C75.5175 10.724 75.5625 10.859 75.795 11.009C76.5449 11.5339 77.2273 12.0664 77.9022 12.6438C78.119 12.8285 78.3084 13.0431 78.4647 13.2812C78.6778 13.6329 78.7905 14.0362 78.7905 14.4474C78.7905 14.8586 78.6778 15.2619 78.4647 15.6135C77.8197 16.8884 77.2873 18.2008 76.7174 19.4981C76.6479 19.6822 76.6222 19.8799 76.6424 20.0756C76.6296 20.1887 76.6617 20.3024 76.7318 20.3921C76.8019 20.4819 76.9044 20.5405 77.0173 20.5555C77.1576 20.5561 77.2944 20.5114 77.4073 20.428C77.668 20.2634 77.9184 20.0831 78.1572 19.8881C78.383 19.6948 78.5983 19.4895 78.8022 19.2731C79.1021 18.9432 79.3871 18.6132 79.6571 18.2758C80.1905 17.6018 80.6742 16.89 81.1044 16.146C81.3219 15.771 81.5169 15.396 81.7044 15.0061C82.0493 14.2562 82.4543 13.5062 82.7843 12.8238C83.1142 12.1414 83.5342 11.3764 83.8866 10.649C83.9516 10.5073 84.059 10.3893 84.1941 10.3115C84.328 10.2342 84.4826 10.2002 84.6366 10.2141H87.5913C87.4863 10.424 87.4113 10.5965 87.3288 10.7615C86.7064 11.9914 86.0539 13.2138 85.424 14.4436C84.7941 15.6735 84.1641 16.9034 83.5942 18.1933C83.3313 18.7683 83.1374 19.3724 83.0167 19.9931C82.9716 20.1269 82.9716 20.2718 83.0167 20.4055C83.0468 20.4543 83.0879 20.4954 83.1367 20.5255C83.1876 20.5541 83.2437 20.572 83.3017 20.578H83.4742L83.6692 20.503L83.9466 20.353C84.2016 20.2106 84.4491 20.0756 84.6966 19.9181C85.0221 19.7083 85.3283 19.4699 85.6115 19.2057C85.9564 18.8757 86.2939 18.5382 86.6089 18.1933C87.5613 17.1687 88.3527 16.0056 88.9561 14.7436C89.6611 13.2438 90.456 11.7889 91.2059 10.2441L92.4283 10.664L93.6132 11.099C93.7134 11.1422 93.8196 11.17 93.9281 11.1815C94.0406 11.1867 94.1529 11.1688 94.2581 11.129C94.3638 11.088 94.4606 11.0268 94.5431 10.949C95.268 10.3546 96.1707 10.0194 97.1078 9.99658H97.4903C97.9554 10.004 98.4044 10.1679 98.7649 10.4618C99.1255 10.7556 99.3765 11.1624 99.4776 11.6164C99.6347 12.208 99.673 12.8248 99.5901 13.4312C99.5503 13.7066 99.4952 13.9795 99.4251 14.2487C99.3428 14.5854 99.2376 14.9162 99.1101 15.2386C98.7634 16.1796 98.329 17.086 97.8127 17.9458C97.2705 18.8239 96.6613 19.6588 95.9904 20.443L95.8554 20.608L95.653 20.8705C96.2103 20.6774 96.7457 20.426 97.2503 20.1206C97.7166 19.8357 98.1581 19.5121 98.5702 19.1532C98.8926 18.8682 99.2076 18.5757 99.5076 18.2758C100.098 17.6839 100.625 17.033 101.082 16.3334C101.306 15.9795 101.512 15.614 101.697 15.2386C102.087 14.4286 102.492 13.6262 102.912 12.8088C103.332 11.9914 103.752 11.1815 104.18 10.3415C105.005 10.6265 105.807 10.889 106.587 11.189C106.693 11.2289 106.804 11.2542 106.917 11.264C107.024 11.2824 107.134 11.2773 107.239 11.249C107.342 11.2105 107.437 11.1519 107.517 11.0765C108.058 10.6388 108.696 10.3356 109.377 10.1916C109.606 10.1468 109.84 10.1242 110.074 10.1241H110.426C110.892 10.1154 111.349 10.246 111.739 10.499C112.092 10.8105 112.339 11.2249 112.444 11.6839C112.707 12.87 112.578 14.1094 112.076 15.2161C111.731 16.1529 111.297 17.0544 110.779 17.9083C110.256 18.7772 109.667 19.6046 109.017 20.383L108.754 20.698L108.844 20.8255C109.494 20.4984 110.125 20.1354 110.734 19.7381C112.383 18.6214 113.718 17.1006 114.611 15.321C115.495 13.2946 117.071 11.649 119.058 10.679C119.99 10.2269 121.025 10.0278 122.058 10.1016C122.279 10.123 122.5 10.1556 122.718 10.1991C123.383 10.3149 123.999 10.6254 124.488 11.0915C124.758 11.3712 124.954 11.7141 125.058 12.0889C125.199 12.7475 125.133 13.4337 124.87 14.0537C124.757 14.3581 124.621 14.6538 124.465 14.9386C124.177 15.4701 123.807 15.9533 123.37 16.3709C123.16 16.5736 122.931 16.7568 122.688 16.9184C121.622 17.6024 120.377 17.9524 119.111 17.9233H117.401C117.339 17.9083 117.275 17.9083 117.213 17.9233C117.151 17.9381 117.094 17.9692 117.048 18.0133C116.98 18.1058 116.936 18.2142 116.921 18.3282C116.643 19.6856 117.221 20.473 118.646 20.578H118.826C119.442 20.6084 120.058 20.5323 120.648 20.353C120.947 20.2697 121.24 20.167 121.525 20.0456C121.81 19.9256 122.088 19.7831 122.365 19.6331C123.386 19.0632 124.306 18.3284 125.088 17.4583C125.57 16.9208 126.014 16.3494 126.415 15.7485C127.112 14.7361 127.727 13.6787 128.35 12.6288C128.374 12.5866 128.391 12.5411 128.402 12.4938C128.425 12.3976 128.425 12.2976 128.402 12.2014C128.395 12.1611 128.38 12.1228 128.357 12.0889C128.083 11.7983 127.928 11.4157 127.922 11.0165C127.93 10.6917 128.02 10.3741 128.185 10.0941C128.228 10.0115 128.275 9.9314 128.327 9.85409C128.447 9.68579 128.577 9.52546 128.717 9.37414C128.896 9.19491 129.087 9.0271 129.287 8.87169C129.409 8.77365 129.543 8.69057 129.685 8.62422C129.886 8.5193 130.11 8.46766 130.337 8.47423C130.573 8.4973 130.8 8.57152 131.004 8.69171C131.282 8.85165 131.545 9.03479 131.792 9.23915C131.664 9.47163 131.544 9.71161 131.424 9.94408L131.027 10.694C130.993 10.7587 130.965 10.8265 130.944 10.8965C130.929 10.9505 130.929 11.0075 130.944 11.0615C130.952 11.1183 130.979 11.171 131.019 11.2115C131.067 11.2646 131.119 11.3124 131.177 11.3539C131.537 11.6089 131.927 11.8639 132.249 12.1039C132.572 12.3438 132.954 12.6288 133.292 12.9138C133.509 13.0862 133.699 13.2911 133.854 13.5212C134.065 13.828 134.177 14.1915 134.177 14.5636C134.172 14.8352 134.121 15.1039 134.027 15.3585C133.972 15.5018 133.909 15.642 133.839 15.7785C133.202 17.0084 132.669 18.2758 132.107 19.5281C132.042 19.6846 132.014 19.854 132.024 20.0231C132.017 20.0929 132.017 20.1633 132.024 20.2331C132.04 20.3163 132.085 20.3911 132.152 20.443C132.213 20.5009 132.293 20.5354 132.377 20.5405C132.534 20.5478 132.689 20.4971 132.812 20.398C133.333 20.0861 133.812 19.708 134.237 19.2731C136.096 17.2933 137.409 14.9986 138.871 12.8013C139.194 12.3213 139.501 11.8264 139.809 11.3014C140.116 10.7765 140.423 10.289 140.746 9.8016L143.656 10.6115C142.681 13.7237 143.056 16.8434 142.673 20.0081C142.87 19.8988 143.056 19.7708 143.228 19.6256L144.683 18.0733C145.163 17.5483 145.643 17.0234 146.1 16.4909C146.186 16.3916 146.282 16.3011 146.385 16.221C146.465 16.1614 146.564 16.1322 146.663 16.1385C146.783 16.1538 146.896 16.2062 146.985 16.2884C147.06 16.3484 147.15 16.4009 147.24 16.4609C147.48 16.6334 147.735 16.8284 147.375 17.2484Z" fill="#1D2B43"/>
<path d="M19.4306 7.19927C19.4306 7.04928 19.4456 6.8993 19.4756 6.74931C19.4857 6.49783 19.4656 6.24605 19.4156 5.99939C19.3459 5.6856 19.2111 5.38994 19.0199 5.13157C18.8287 4.87319 18.5854 4.65787 18.3057 4.49954C18.0665 4.32264 17.789 4.20447 17.4958 4.15457C17.411 4.14632 17.3254 4.15536 17.2442 4.18114C17.163 4.20692 17.0878 4.24891 17.0233 4.30456C16.8281 4.45729 16.6607 4.64247 16.5284 4.852C16.3277 5.07967 16.1564 5.33162 16.0184 5.60193C15.1035 7.55923 14.1961 9.51654 13.3187 11.4813C12.9137 12.3812 13.0187 12.7862 13.6936 12.8387H14.4436C15.0992 12.7489 15.7325 12.5378 16.3109 12.2163C16.7457 11.9747 17.1487 11.6799 17.5108 11.3389C18.6292 10.2358 19.3111 8.76557 19.4306 7.19927Z" fill="#152844"/>
<path d="M42.5582 12.4414C42.4732 12.4131 42.3851 12.3955 42.2958 12.3889C42.102 12.3746 41.9075 12.4027 41.7258 12.4714C41.4976 12.5546 41.2829 12.6709 41.0884 12.8163C41.017 12.8604 40.9515 12.9133 40.8934 12.9738C39.8647 13.9535 39.0501 15.1357 38.5011 16.446C38.1997 17.1778 37.9491 17.9295 37.7512 18.6957C37.6837 19.4457 37.9012 19.8206 38.3512 19.8581C38.5162 19.8626 38.6809 19.8398 38.8386 19.7906C39.0974 19.7051 39.3484 19.5972 39.5885 19.4682C40.0623 19.1976 40.4798 18.8386 40.8184 18.4108C40.9906 18.1918 41.1436 17.9585 41.2759 17.7133C41.5758 17.1509 41.8608 16.581 42.1458 16.011L42.9782 14.3087C43.1482 14.0415 43.2223 13.7245 43.1882 13.4096C43.1541 13.0948 43.014 12.8009 42.7907 12.5764C42.7176 12.5242 42.6398 12.479 42.5582 12.4414Z" fill="#152844"/>
<path d="M119.073 16.1308C119.615 16.1047 120.131 15.8929 120.535 15.5309C120.973 15.0794 121.353 14.5756 121.668 14.0311C121.693 13.9844 121.72 13.9394 121.75 13.8961C121.803 13.7986 121.863 13.7011 121.908 13.6036C121.951 13.5091 121.977 13.4074 121.983 13.3036C121.984 13.2239 121.968 13.1448 121.938 13.0711C121.902 12.9983 121.848 12.9361 121.78 12.8912C121.741 12.8577 121.695 12.8323 121.645 12.8162C121.591 12.8087 121.535 12.8087 121.48 12.8162C121.028 12.8317 120.586 12.9551 120.19 13.1761C119.42 13.7328 118.776 14.4457 118.301 15.2684C118.136 15.5384 117.978 15.8084 117.828 16.0858C118.038 16.131 118.251 16.1611 118.466 16.1758C118.669 16.1758 118.872 16.1607 119.073 16.1308Z" fill="#152844"/>
</g>
<defs>
<clipPath id="clip0_499_39822">
<rect width="150" height="29.3596" fill="white"/>
</clipPath>
</defs>
</svg>
