<svg fill="none" xmlns="http://www.w3.org/2000/svg">
<path fill-rule="evenodd" clip-rule="evenodd" d="M15.3995 4.05455C15.3995 5.74152 13.2158 8.51888 12.3706 8.51888C11.5255 8.51888 9.3418 5.74152 9.3418 4.05455C9.3418 2.36757 10.6979 1 12.3706 1C14.0434 1 15.3995 2.36757 15.3995 4.05455ZM13.6687 3.47273C13.6687 4.19572 13.0876 4.78182 12.3706 4.78182C11.6537 4.78182 11.0726 4.19572 11.0726 3.47273C11.0726 2.74974 11.6537 2.16364 12.3706 2.16364C13.0876 2.16364 13.6687 2.74974 13.6687 3.47273Z" fill="#FF6B97"/>
<path d="M12.3706 8.86797C12.5635 8.86797 12.7522 8.79202 12.9148 8.70036C13.0837 8.60521 13.2586 8.47348 13.432 8.31983C13.7793 8.01205 14.1483 7.59145 14.4853 7.12327C14.8228 6.65436 15.1354 6.12774 15.3649 5.60383C15.5923 5.08459 15.7486 4.54416 15.7486 4.05455H15.0504C15.0504 4.40842 14.9338 4.84777 14.7253 5.32375C14.5189 5.79506 14.2327 6.27909 13.9187 6.71539C13.6041 7.15242 13.2688 7.5316 12.9689 7.79729C12.8187 7.93038 12.6844 8.02881 12.572 8.09213C12.4535 8.15895 12.3891 8.16979 12.3706 8.16979V8.86797ZM8.99271 4.05455C8.99271 4.54416 9.14903 5.08459 9.37644 5.60383C9.60588 6.12774 9.91844 6.65436 10.256 7.12327C10.593 7.59145 10.962 8.01205 11.3093 8.31983C11.4827 8.47348 11.6576 8.60521 11.8264 8.70036C11.9891 8.79202 12.1778 8.86797 12.3706 8.86797V8.16979C12.3522 8.16979 12.2878 8.15895 12.1692 8.09213C12.0569 8.02881 11.9225 7.93038 11.7724 7.79729C11.4725 7.5316 11.1372 7.15242 10.8226 6.71539C10.5086 6.27909 10.2224 5.79506 10.016 5.32375C9.80752 4.84777 9.69089 4.40842 9.69089 4.05455H8.99271ZM12.3706 0.650909C10.5023 0.650909 8.99271 2.17756 8.99271 4.05455H9.69089C9.69089 2.55758 10.8934 1.34909 12.3706 1.34909V0.650909ZM15.7486 4.05455C15.7486 2.17756 14.239 0.650909 12.3706 0.650909V1.34909C13.8479 1.34909 15.0504 2.55758 15.0504 4.05455H15.7486ZM12.3706 5.13091C13.2831 5.13091 14.0178 4.38573 14.0178 3.47273H13.3196C13.3196 4.00571 12.892 4.43273 12.3706 4.43273V5.13091ZM10.7235 3.47273C10.7235 4.38573 11.4582 5.13091 12.3706 5.13091V4.43273C11.8493 4.43273 11.4217 4.00571 11.4217 3.47273H10.7235ZM12.3706 1.81455C11.4582 1.81455 10.7235 2.55973 10.7235 3.47273H11.4217C11.4217 2.93975 11.8493 2.51273 12.3706 2.51273V1.81455ZM14.0178 3.47273C14.0178 2.55973 13.2831 1.81455 12.3706 1.81455V2.51273C12.892 2.51273 13.3196 2.93975 13.3196 3.47273H14.0178Z" fill="#FF6B97"/>
<path fill-rule="evenodd" clip-rule="evenodd" d="M6.45808 11.8643C6.45808 13.5513 4.27439 16.3287 3.42924 16.3287C2.58409 16.3287 0.400391 13.5513 0.400391 11.8643C0.400391 10.1774 1.75645 8.80978 3.42924 8.80978C5.10202 8.80978 6.45808 10.1774 6.45808 11.8643ZM4.72731 11.2825C4.72731 12.0055 4.14614 12.5916 3.42924 12.5916C2.71233 12.5916 2.13116 12.0055 2.13116 11.2825C2.13116 10.5595 2.71233 9.97342 3.42924 9.97342C4.14614 9.97342 4.72731 10.5595 4.72731 11.2825Z" fill="#50CCD3"/>
<path d="M3.42924 16.6778C3.62209 16.6778 3.8108 16.6018 3.97343 16.5101C4.14227 16.415 4.31718 16.2833 4.49057 16.1296C4.83788 15.8218 5.20692 15.4012 5.54392 14.9331C5.88144 14.4641 6.194 13.9375 6.42344 13.4136C6.65085 12.8944 6.80717 12.3539 6.80717 11.8643H6.10899C6.10899 12.2182 5.99236 12.6576 5.78391 13.1335C5.5775 13.6048 5.29131 14.0889 4.97726 14.5252C4.66269 14.9622 4.32734 15.3414 4.02752 15.6071C3.87734 15.7402 3.74299 15.8386 3.63063 15.9019C3.51207 15.9687 3.44767 15.9796 3.42924 15.9796V16.6778ZM0.0512997 11.8643C0.0512997 12.3539 0.207628 12.8944 0.435029 13.4136C0.664474 13.9375 0.977036 14.4641 1.31456 14.9331C1.65155 15.4012 2.02059 15.8218 2.36791 16.1296C2.5413 16.2833 2.71621 16.415 2.88504 16.5101C3.04767 16.6018 3.23638 16.6778 3.42924 16.6778V15.9796C3.4108 15.9796 3.3464 15.9687 3.22784 15.9019C3.11549 15.8386 2.98114 15.7402 2.83096 15.6071C2.53113 15.3414 2.19578 14.9622 1.88121 14.5252C1.56716 14.0889 1.28098 13.6048 1.07457 13.1335C0.866115 12.6576 0.749482 12.2182 0.749482 11.8643H0.0512997ZM3.42924 8.46069C1.56088 8.46069 0.0512997 9.98734 0.0512997 11.8643H0.749482C0.749482 10.3674 1.95202 9.15887 3.42924 9.15887V8.46069ZM6.80717 11.8643C6.80717 9.98734 5.29759 8.46069 3.42924 8.46069V9.15887C4.90645 9.15887 6.10899 10.3674 6.10899 11.8643H6.80717ZM3.42924 12.9407C4.34172 12.9407 5.0764 12.1955 5.0764 11.2825H4.37822C4.37822 11.8155 3.95057 12.2425 3.42924 12.2425V12.9407ZM1.78207 11.2825C1.78207 12.1955 2.51676 12.9407 3.42924 12.9407V12.2425C2.9079 12.2425 2.48025 11.8155 2.48025 11.2825H1.78207ZM3.42924 9.62433C2.51676 9.62433 1.78207 10.3695 1.78207 11.2825H2.48025C2.48025 10.7495 2.9079 10.3225 3.42924 10.3225V9.62433ZM5.0764 11.2825C5.0764 10.3695 4.34172 9.62433 3.42924 9.62433V10.3225C3.95057 10.3225 4.37822 10.7495 4.37822 11.2825H5.0764Z" fill="#50CCD3"/>
<path d="M4.94727 16.6586C4.94727 16.6586 9.67139 17.4164 11.3071 15.6556C12.9429 13.8948 10.3961 13.3611 9.53837 11.3407C8.68068 9.32031 10.6147 8.41388 10.6147 8.41388" stroke="#618287" stroke-width="0.698182" stroke-linecap="round" stroke-linejoin="round" stroke-dasharray="1.4"/>
</svg>
