<svg width="70" height="13" viewBox="0 0 70 13" fill="none" xmlns="http://www.w3.org/2000/svg">
<path d="M4.94248 1.23598C5.14506 0.92134 5.61748 0.921341 5.82006 1.23598L7.31248 3.55391C7.38383 3.66473 7.49694 3.74418 7.62775 3.77538L10.3684 4.42893C10.7413 4.51786 10.8878 4.95602 10.6397 5.24031L8.82247 7.32212C8.73504 7.42229 8.69155 7.55168 8.70134 7.68258L8.90449 10.4004C8.93219 10.7709 8.54946 11.0411 8.19438 10.9017L5.57542 9.87326C5.4509 9.82437 5.31165 9.82437 5.18713 9.87326L2.56816 10.9017C2.21308 11.0411 1.83036 10.7709 1.85805 10.4004L2.06121 7.68258C2.07099 7.55168 2.02751 7.42228 1.94007 7.32212L0.122859 5.24031C-0.125293 4.95602 0.0212197 4.51786 0.394169 4.42893L3.13479 3.77538C3.2656 3.74418 3.37871 3.66473 3.45006 3.55391L4.94248 1.23598Z" fill="white"/>
<path d="M32.3179 3.44707C32.1806 4.48459 31.433 5.36953 30.426 5.73571C31.7991 6.08664 32.3332 7.27673 32.1348 8.64991C31.8602 10.5724 30.2581 11.915 27.8017 11.915H22.4768L24.1551 0.639674H29.3884C31.6466 0.639674 32.501 2.1044 32.3179 3.44707ZM29.4342 3.96583C29.4953 3.49284 29.2206 3.05037 28.5493 3.05037H26.5963L26.3064 4.95757H28.1068C28.9765 4.95757 29.3579 4.42356 29.4342 3.96583ZM29.2511 8.3295C29.3274 7.78023 29.0375 7.23096 28.1831 7.23096H25.9707L25.6351 9.47382H27.5575C28.7324 9.47382 29.1748 8.86352 29.2511 8.3295ZM39.7538 11.915L39.4181 9.85526H35.8326L34.8408 11.915H31.8961L37.6788 0.639674H40.3336L42.668 11.915H39.7538ZM38.5179 4.04212L36.9311 7.38353H39.0825L38.5179 4.04212ZM47.3245 12.1286C45.5546 12.1286 44.0136 11.4115 43.1134 9.82475L45.1427 8.00909C45.6309 8.81775 46.5464 9.42805 47.5381 9.42805C48.1637 9.42805 48.7282 9.15341 48.8045 8.63466C48.8655 8.26847 48.6672 8.02435 48.1026 7.70394C47.5839 7.41405 46.6074 7.00209 45.9666 6.55962C44.868 5.84251 44.4103 4.86603 44.5934 3.63016C44.8985 1.63142 46.6837 0.426068 49.0333 0.426068C50.5133 0.426068 51.7034 0.899052 52.7562 1.87554L51.0168 3.96583C50.1319 3.27924 49.3995 3.06563 48.774 3.06563C48.0263 3.06563 47.6296 3.37078 47.5839 3.798C47.5228 4.22521 47.8433 4.45407 48.6672 4.83551C49.5216 5.24747 50.2387 5.59839 50.7269 5.94932C51.9323 6.78849 52.1612 7.84126 52.0086 8.80249C51.6577 10.9843 49.5979 12.1286 47.3245 12.1286ZM54.9181 0.639674H57.7865L56.1082 11.915H53.2397L54.9181 0.639674ZM63.8541 12.0829C60.4974 12.0829 58.1783 9.68743 58.6513 6.14767C59.1242 2.54687 62.1453 0.441325 65.3036 0.441325C67.4091 0.441325 68.9654 1.3873 69.8961 2.69945L67.8058 4.57613C67.1803 3.76748 66.3564 3.17244 65.1357 3.17244C63.4574 3.17244 61.9011 4.31675 61.657 6.2087C61.4129 8.03961 62.5572 9.30599 64.2661 9.30599C65.4256 9.30599 66.5089 8.71094 67.3939 7.81074L69.1027 9.74846C67.9126 11.0759 66.0207 12.0829 63.8541 12.0829Z" fill="white"/>
</svg>
