<svg width="10" height="6" viewBox="0 0 10 6" fill="none" xmlns="http://www.w3.org/2000/svg">
<path fill-rule="evenodd" clip-rule="evenodd" d="M1.80695 0.547182C1.55701 0.297246 1.15179 0.297246 0.901851 0.547182C0.651916 0.797118 0.651916 1.20234 0.901851 1.45228L4.50638 5.05681C4.51143 5.06222 4.5166 5.06757 4.52188 5.07284C4.7206 5.27157 5.01751 5.31229 5.25647 5.19499C5.31818 5.16475 5.37603 5.12397 5.42733 5.07267C5.43043 5.06957 5.43348 5.06646 5.4365 5.06332L9.04736 1.45246C9.29729 1.20252 9.29729 0.797294 9.04736 0.547359C8.79742 0.297423 8.3922 0.297424 8.14226 0.547359L4.97469 3.71493L1.80695 0.547182Z" fill="#4C5661"/>
</svg>
