<svg width="118" height="19" viewBox="0 0 118 19" fill="none" xmlns="http://www.w3.org/2000/svg">
<path d="M35.0468 5.77835C38.2052 5.77835 39.1206 7.71606 38.8612 9.74532C38.5866 11.9272 37.1371 13.5139 33.9941 13.5139H32.4225L31.8885 17.0537H29.0354L30.7137 5.77835H35.0468ZM35.9318 9.62326C36.0233 8.8909 35.6114 8.3874 34.818 8.3874H33.1854L32.804 10.9507H33.9941C35.2299 10.9507 35.825 10.4472 35.9318 9.62326ZM49.2174 9.54697C49.0496 10.9507 48.3172 12.2933 46.6999 12.9342L48.5003 17.0537H45.2352L43.801 13.3156H42.6872L42.1379 17.0537H39.2847L40.9631 5.77835H45.5098C48.4088 5.77835 49.4615 7.62451 49.2174 9.54697ZM43.4348 8.3874L43.0686 10.8286H44.5638C45.7082 10.8286 46.1811 10.2336 46.288 9.56223C46.3795 8.90615 46.0591 8.3874 45.2657 8.3874H43.4348ZM50.1003 17.0537L51.7786 5.77835H59.9262L59.5295 8.41791H54.2503L54.0062 10.081H58.8887L58.5072 12.7053H53.6248L53.3501 14.4141H58.614L58.2326 17.0537H50.1003ZM60.2751 17.0537L61.9535 5.77835H64.0438L67.2326 11.5762L72.1456 5.77835H74.2816L72.6033 17.0537H69.7806L70.5893 11.6373L67.1868 15.589H66.1188L63.8759 11.6373L63.0673 17.0537H60.2751ZM76.6281 5.77835H79.4966L77.8182 17.0537H74.9498L76.6281 5.77835ZM84.6945 17.2521C82.3296 17.2521 80.1782 15.9704 80.7122 12.4307L81.7192 5.77835H84.5877L83.5502 12.6137C83.3366 13.9869 84.0537 14.5057 84.9691 14.5057C85.9456 14.5057 86.9068 13.9259 87.1357 12.4459L88.1427 5.77835H91.0264L90.0041 12.4459C89.4701 16.062 86.9831 17.2521 84.6945 17.2521ZM91.5745 17.0537L93.2529 5.77835H95.3432L98.532 11.5762L103.445 5.77835H105.581L103.903 17.0537H101.08L101.889 11.6373L98.4862 15.589H97.4182L95.1753 11.6373L94.3667 17.0537H91.5745Z" fill="#1D2B43"/>
<path d="M1.60931 15.1343L0.020221 6.29421C-0.110642 5.77754 0.420483 5.35889 0.84113 5.64731L5.26516 7.52295C5.54048 7.71147 5.90742 7.60052 6.05034 7.28554L10.5082 1.84507C10.7068 1.40714 11.2881 1.4055 11.4889 1.84202L16.0005 7.28648C16.1452 7.60076 16.513 7.70936 16.7872 7.51872L21.0861 5.69652C21.5054 5.40504 22.1111 5.74416 21.9824 6.26201L20.4315 14.8402C20.3677 15.0967 20.1513 15.2749 19.9039 15.2749H2.13627C1.88989 15.2749 1.67397 15.0979 1.60931 14.8428V15.1343Z" fill="#1D2B43"/>
<path d="M1.4533 16.9346L1.28923 17.8549C1.20533 18.1762 1.46626 18.486 1.82075 18.486H20.1806C20.5489 18.486 20.8121 18.1535 20.7033 17.825L20.4951 16.9047C20.4244 16.6908 20.2125 16.5449 19.9724 16.5449H1.98481C1.73245 16.5449 1.51282 16.706 1.4533 16.9346Z" fill="#1D2B43"/>
<path d="M10.7421 7.32307C10.8604 7.12408 11.1363 7.12408 11.2546 7.32307L12.1262 8.78903C12.1679 8.85912 12.234 8.90937 12.3104 8.9291L13.911 9.34243C14.1288 9.39868 14.2144 9.67579 14.0694 9.85558L13.0081 11.1722C12.957 11.2356 12.9316 11.3174 12.9374 11.4002L13.056 13.119C13.0722 13.3534 12.8487 13.5243 12.6413 13.4361L11.1117 12.7857C11.039 12.7547 10.9577 12.7547 10.8849 12.7857L9.35537 13.4361C9.14799 13.5243 8.92446 13.3534 8.94064 13.119L9.05929 11.4002C9.065 11.3174 9.03961 11.2356 8.98854 11.1722L7.92722 9.85558C7.78229 9.67579 7.86786 9.39868 8.08568 9.34243L9.6863 8.9291C9.7627 8.90937 9.82876 8.85912 9.87043 8.78903L10.7421 7.32307Z" fill="white"/>
<path d="M111.113 4.2146L113.079 3.49685L113.816 1.584C113.876 1.43165 114.025 1.33008 114.192 1.33008C114.359 1.33008 114.509 1.43165 114.568 1.584L115.306 3.49685L117.272 4.2146C117.429 4.27215 117.533 4.41773 117.533 4.58024C117.533 4.74275 117.429 4.88833 117.272 4.94589L115.306 5.66363L114.568 7.57649C114.509 7.72884 114.359 7.83041 114.192 7.83041C114.025 7.83041 113.876 7.72884 113.816 7.57649L113.079 5.66363L111.113 4.94589C110.956 4.88833 110.852 4.74275 110.852 4.58024C110.852 4.41773 110.956 4.27215 111.113 4.2146Z" fill="white"/>
<path d="M107.27 1.81375L108.506 1.36244L108.97 0.159661C109.007 0.0638645 109.101 0 109.206 0C109.311 0 109.405 0.0638645 109.442 0.159661L109.906 1.36244L111.143 1.81375C111.241 1.84994 111.307 1.94148 111.307 2.04366C111.307 2.14585 111.241 2.23739 111.143 2.27357L109.906 2.72488L109.442 3.92766C109.405 4.02346 109.311 4.08733 109.206 4.08733C109.101 4.08733 109.007 4.02346 108.97 3.92766L108.506 2.72488L107.27 2.27357C107.171 2.23739 107.105 2.14585 107.105 2.04366C107.105 1.94148 107.171 1.84994 107.27 1.81375Z" fill="white"/>
</svg>
