<svg width="62" height="19" viewBox="0 0 62 19" fill="none" xmlns="http://www.w3.org/2000/svg">
<path d="M9.65034 4.76839C9.8195 4.50559 10.214 4.50559 10.3831 4.76839L11.6293 6.70446C11.6888 6.79702 11.7833 6.86339 11.8925 6.88944L14.1809 7.43532C14.4923 7.50961 14.6146 7.87559 14.4074 8.11304L12.8901 9.85189C12.8171 9.93555 12.7808 10.0436 12.7889 10.153L12.9586 12.423C12.9817 12.7325 12.6621 12.9582 12.3656 12.8417L10.1788 11.9827C10.0749 11.9419 9.95859 11.9419 9.85462 11.9827L7.66782 12.8417C7.37133 12.9582 7.05176 12.7325 7.07489 12.423L7.24452 10.153C7.25269 10.0436 7.21638 9.93555 7.14337 9.85189L5.62602 8.11304C5.41882 7.87559 5.54116 7.50961 5.85256 7.43532L8.14095 6.88944C8.25017 6.86339 8.34462 6.79702 8.4042 6.70446L9.65034 4.76839Z" fill="white"/>
<ellipse cx="10.018" cy="9.17294" rx="8.42429" ry="8.17294" stroke="white" stroke-width="1.46708" stroke-linecap="round" stroke-linejoin="round"/>
<path d="M33.5586 3.68655C36.7169 3.68655 37.6323 5.62426 37.373 7.65352C37.0983 9.83536 35.6489 11.4222 32.5058 11.4222H30.9343L30.4002 14.9619H27.5471L29.2254 3.68655H33.5586ZM34.4435 7.53146C34.535 6.7991 34.1231 6.2956 33.3297 6.2956H31.6971L31.3157 8.85887H32.5058C33.7417 8.85887 34.3367 8.35537 34.4435 7.53146ZM47.7291 7.45518C47.5613 8.85887 46.8289 10.2015 45.2116 10.8424L47.012 14.9619H43.7469L42.3127 11.2238H41.1989L40.6496 14.9619H37.7964L39.4748 3.68655H44.0215C46.9205 3.68655 47.9733 5.53272 47.7291 7.45518ZM41.9465 6.2956L41.5803 8.73681H43.0756C44.2199 8.73681 44.6929 8.14177 44.7997 7.47043C44.8912 6.81436 44.5708 6.2956 43.7774 6.2956H41.9465ZM53.8628 15.145C50.3688 15.145 48.309 12.4902 48.782 9.2098C49.2855 5.85313 52.1997 3.4882 55.4953 3.4882C59.0046 3.4882 61.0491 6.18879 60.5761 9.39289C60.0879 12.658 57.2652 15.145 53.8628 15.145ZM54.1527 12.3223C55.7852 12.3223 57.372 11.0865 57.6314 9.27083C57.8908 7.56198 56.8532 6.31086 55.2054 6.31086C53.5271 6.31086 51.9708 7.59249 51.7267 9.39289C51.4826 11.1017 52.5201 12.3223 54.1527 12.3223Z" fill="white"/>
</svg>
