<svg width="14" height="15" viewBox="0 0 14 15" fill="none" xmlns="http://www.w3.org/2000/svg">
<path fill-rule="evenodd" clip-rule="evenodd" d="M1.74967 9.83453C3.65033 12.0996 6.90601 12.557 9.3364 11.0158L12.0833 14.2894C12.3596 14.6187 12.8694 14.6458 13.222 14.35C13.5746 14.0542 13.6364 13.5474 13.36 13.2181L10.6035 9.93294C12.4751 7.80539 12.5641 4.57258 10.6869 2.33534C8.61601 -0.132596 4.93661 -0.454502 2.46867 1.61634C0.000735384 3.68719 -0.321171 7.36659 1.74967 9.83453ZM9.41012 3.40665C10.8893 5.16946 10.6594 7.79761 8.89655 9.27679C7.13374 10.756 4.50559 10.526 3.02641 8.76322C1.54724 7.0004 1.77717 4.37226 3.53998 2.89308C5.3028 1.41391 7.93094 1.64384 9.41012 3.40665Z" fill="#F4F4F5"/>
</svg>
