<svg xmlns="http://www.w3.org/2000/svg" width="16" height="17" viewBox="0 0 16 17" fill="none">
<path d="M7.99996 5.83329C6.52663 5.83329 5.33329 7.02663 5.33329 8.49996C5.33329 9.97329 6.52663 11.1666 7.99996 11.1666C9.47329 11.1666 10.6666 9.97329 10.6666 8.49996C10.6666 7.02663 9.47329 5.83329 7.99996 5.83329ZM13.96 7.83329C13.6533 5.05329 11.4466 2.84663 8.66663 2.53996V1.16663H7.33329V2.53996C4.55329 2.84663 2.34663 5.05329 2.03996 7.83329H0.666626V9.16663H2.03996C2.34663 11.9466 4.55329 14.1533 7.33329 14.46V15.8333H8.66663V14.46C11.4466 14.1533 13.6533 11.9466 13.96 9.16663H15.3333V7.83329H13.96ZM7.99996 13.1666C5.41996 13.1666 3.33329 11.08 3.33329 8.49996C3.33329 5.91996 5.41996 3.83329 7.99996 3.83329C10.58 3.83329 12.6666 5.91996 12.6666 8.49996C12.6666 11.08 10.58 13.1666 7.99996 13.1666Z" fill="#037EAE"/>
</svg>
