<svg width="20" height="20" viewBox="0 0 20 20" fill="none" xmlns="http://www.w3.org/2000/svg">
<path fill-rule="evenodd" clip-rule="evenodd" d="M17.1159 13.1837L15.6991 4.54569C15.5562 3.67248 14.8824 3.34481 14.4864 3.34189C12.5493 3.25311 10.736 3.86406 8.98903 4.45574C7.282 5.0334 5.67676 5.57426 3.9596 5.51527C3.91742 5.50534 3.87692 5.50242 3.82349 5.51118C3.41065 5.5252 3.17386 5.7197 3.04787 5.87974C2.91569 6.04795 2.77508 6.34642 2.85832 6.85924L4.25657 15.3734C4.2577 15.3874 4.26782 15.4423 4.27007 15.4564C4.41069 16.3115 5.04176 16.6105 5.42816 16.6555C5.57496 16.6625 5.72176 16.6666 5.86743 16.6666C7.66278 16.6666 9.34844 16.0965 10.9784 15.544C12.7215 14.9541 14.3644 14.3904 16.1175 14.4909C16.1412 14.4903 16.1648 14.4915 16.1884 14.4897C16.5883 14.4588 16.8138 14.2643 16.9331 14.1065C17.0585 13.9407 17.1918 13.6451 17.1159 13.1837ZM15.1164 12.8461C15.1181 12.8467 15.1192 12.8478 15.1203 12.8484C14.2339 12.8957 13.3705 13.0809 12.5162 13.3245C12.5173 13.3233 12.5184 13.3221 12.5195 13.321C12.5212 13.3198 12.2136 13.4051 12.1613 13.1311C12.0493 12.4472 11.9368 11.7626 11.8243 11.0787C11.7855 10.7995 12.0904 10.7054 12.0904 10.7054C12.0893 10.706 12.0876 10.7054 12.0864 10.7048C12.9408 10.4613 13.8042 10.2767 14.6906 10.2288C14.6895 10.23 14.6883 10.2306 14.6872 10.2317C14.6878 10.2294 15.0056 10.223 15.0579 10.501C15.1704 11.1855 15.2829 11.8695 15.3948 12.5541C15.4319 12.8286 15.1158 12.8443 15.1164 12.8461ZM8.92266 11.7311C8.92491 11.7287 8.92716 11.7258 8.92941 11.7235C8.92885 11.7241 8.61725 11.8164 8.57001 11.529C8.45921 10.8509 8.34784 10.1733 8.23704 9.49579C8.22466 9.42395 8.23535 9.36438 8.25785 9.31473C8.3259 9.16579 8.50139 9.10972 8.50083 9.10913C9.34844 8.84279 10.1899 8.53731 11.0369 8.27097C11.0369 8.27097 11.3356 8.18336 11.3929 8.44678C11.506 9.13775 11.6196 9.82814 11.7327 10.5185C11.7642 10.789 11.4655 10.8853 11.4666 10.8859C11.47 10.8865 11.4728 10.8871 11.4756 10.8882C10.6224 11.1558 9.7759 11.463 8.92266 11.7311ZM8.61838 11.8245V11.8216C8.6195 11.8222 8.62063 11.8234 8.62175 11.8234C8.62063 11.824 8.62007 11.824 8.61838 11.8245ZM11.7754 10.796C11.776 10.7948 11.7765 10.7936 11.7777 10.7925L11.7782 10.7954L11.7754 10.796ZM14.1985 5.26236C14.3109 5.94632 14.4229 6.63028 14.5348 7.31424C14.5725 7.58935 14.2564 7.60512 14.2564 7.60687C14.2581 7.60745 14.2592 7.60804 14.2609 7.60921C13.3745 7.6571 12.51 7.84167 11.6562 8.08523C11.6573 8.08407 11.659 8.0829 11.6601 8.08173C11.6618 8.08056 11.3541 8.16584 11.3018 7.8919C11.1893 7.20794 11.0768 6.52339 10.9649 5.83943C10.9261 5.56024 11.2304 5.4662 11.2304 5.4662C11.2298 5.46679 11.2281 5.4662 11.2265 5.46562C12.0808 5.22206 12.9447 5.03749 13.8306 4.98959C13.83 4.99076 13.8284 4.99134 13.8278 4.99251C13.8278 4.99251 14.1461 4.98375 14.1985 5.26236ZM4.85109 7.1542C4.84996 7.15304 4.84827 7.15245 4.84715 7.15187C5.73301 7.10397 6.59693 6.9194 7.45073 6.67584C7.44961 6.67701 7.44848 6.67818 7.44736 6.67935C7.44736 6.67935 7.75389 6.59465 7.80564 6.86859C7.91813 7.55313 8.03006 8.2371 8.14255 8.92164C8.18135 9.20083 7.87651 9.29487 7.87651 9.29487C7.87763 9.29429 7.87932 9.29487 7.88101 9.29545C7.02721 9.53843 6.16328 9.72359 5.27686 9.77148C5.27742 9.77031 5.27911 9.76973 5.27967 9.76856C5.27967 9.76856 4.96133 9.77732 4.90846 9.4993C4.79597 8.81475 4.68404 8.13079 4.57155 7.44625C4.53499 7.17114 4.85109 7.15596 4.85109 7.1542ZM5.76844 14.7379C5.65595 14.054 5.54346 13.37 5.43153 12.6855C5.39441 12.411 5.71107 12.3952 5.71051 12.3928C5.70938 12.3923 5.7077 12.3917 5.70657 12.3911C6.59299 12.3432 7.45692 12.158 8.31072 11.9145C8.30959 11.9162 8.30791 11.9174 8.30734 11.9186C8.30678 11.9192 8.61388 11.8345 8.66506 12.1084C8.77755 12.7924 8.89004 13.4763 9.00197 14.1609C9.04078 14.4401 8.73649 14.5341 8.73649 14.5341C8.73762 14.5335 8.73931 14.5341 8.74043 14.5347C7.88663 14.7777 7.02271 14.9628 6.13628 15.0107C6.13741 15.0095 6.13853 15.0084 6.13966 15.0078C6.1391 15.0101 5.82131 15.0166 5.76844 14.7379Z" fill="#309A4D"/>
</svg>
