<svg width="20" height="20" viewBox="0 0 20 20" fill="none" xmlns="http://www.w3.org/2000/svg">
<path fill-rule="evenodd" clip-rule="evenodd" d="M14.1762 8.92528C13.6475 8.44791 14.0285 7.93729 14.0285 7.93729L14.0234 7.93677C15.9683 5.06061 15.6141 4.03107 15.3966 3.74122C15.1441 3.4654 14.8173 3.34592 14.5855 3.34177C12.709 3.25554 10.9614 3.8394 9.27354 4.40351C7.71318 4.92555 6.23934 5.41851 4.68202 5.41903C4.57071 5.41903 4.45889 5.41591 4.29041 5.41071C3.89223 5.42318 3.66303 5.6081 3.54059 5.76134C3.41359 5.92081 3.27749 6.2065 3.35693 6.69738L4.7058 14.8158C4.70681 14.8303 4.71693 14.8849 4.71946 14.8994C4.85505 15.7149 5.46371 15.9996 5.83711 16.0422C5.97877 16.0495 6.11943 16.0531 6.26008 16.0531C7.99196 16.0531 9.6191 15.5087 11.1921 14.9825C12.8754 14.4194 14.4575 13.8896 16.1515 13.9769C16.1742 13.979 16.1975 13.9784 16.2203 13.9764C16.6058 13.9467 16.8234 13.7613 16.9382 13.6112C17.0364 13.4824 17.134 13.2668 17.1305 12.9562C17.0192 11.3121 15.0753 9.75327 14.1762 8.92528Z" fill="#309A4D"/>
</svg>
