<svg width="20" height="20" viewBox="0 0 20 20" fill="none" xmlns="http://www.w3.org/2000/svg">
<path fill-rule="evenodd" clip-rule="evenodd" d="M17.1165 13.1838L15.6997 4.54578C15.5568 3.67258 14.883 3.34491 14.4871 3.34198C12.55 3.2532 10.7366 3.86416 8.98967 4.45583C7.28264 5.03349 5.6774 5.57435 3.96024 5.51536C3.91806 5.50543 3.87756 5.50251 3.82413 5.51127C3.41129 5.52529 3.1745 5.71979 3.04851 5.87983C2.91633 6.04804 2.77572 6.34651 2.85896 6.85933L4.25722 15.3735C4.25834 15.3875 4.26846 15.4424 4.27071 15.4565C4.41133 16.3116 5.0424 16.6106 5.4288 16.6556C5.5756 16.6626 5.7224 16.6667 5.86807 16.6667C7.66342 16.6667 9.34908 16.0966 10.9791 15.5441C12.7221 14.9541 14.365 14.3905 16.1182 14.491C16.1418 14.4904 16.1654 14.4916 16.189 14.4898C16.5889 14.4588 16.8145 14.2643 16.9337 14.1066C17.0592 13.9408 17.1925 13.6452 17.1165 13.1838ZM15.117 12.8462C15.1187 12.8468 15.1198 12.8479 15.1209 12.8485C14.2345 12.8958 13.3712 13.081 12.5168 13.3246C12.5179 13.3234 12.5191 13.3222 12.5202 13.321C12.5219 13.3199 12.2142 13.4052 12.1619 13.1312C12.05 12.4473 11.9375 11.7627 11.825 11.0788C11.7862 10.7996 12.091 10.7055 12.091 10.7055C12.0899 10.7061 12.0882 10.7055 12.0871 10.7049C12.9415 10.4614 13.8048 10.2768 14.6912 10.2289C14.6901 10.2301 14.689 10.2307 14.6879 10.2318C14.6884 10.2295 15.0062 10.2231 15.0585 10.5011C15.171 11.1856 15.2835 11.8696 15.3954 12.5541C15.4325 12.8287 15.1164 12.8444 15.117 12.8462ZM8.92331 11.7312C8.92556 11.7288 8.92781 11.7259 8.93006 11.7236C8.92949 11.7242 8.6179 11.8164 8.57065 11.5291C8.45985 10.851 8.34848 10.1734 8.23768 9.49589C8.2253 9.42404 8.23599 9.36447 8.25849 9.31482C8.32655 9.16588 8.50203 9.10981 8.50147 9.10922C9.34908 8.84288 10.1905 8.53741 11.0376 8.27106C11.0376 8.27106 11.3362 8.18345 11.3936 8.44687C11.5066 9.13784 11.6203 9.82823 11.7333 10.5186C11.7648 10.789 11.4661 10.8854 11.4673 10.886C11.4706 10.8866 11.4735 10.8872 11.4763 10.8883C10.623 11.1559 9.77654 11.4631 8.92331 11.7312ZM8.61902 11.8246V11.8217C8.62014 11.8223 8.62127 11.8235 8.62239 11.8235C8.62127 11.824 8.62071 11.824 8.61902 11.8246ZM11.7761 10.7961C11.7766 10.7949 11.7772 10.7937 11.7783 10.7926L11.7789 10.7955L11.7761 10.7961ZM14.1991 5.26245C14.3116 5.94641 14.4235 6.63037 14.5354 7.31434C14.5731 7.58944 14.257 7.60521 14.257 7.60696C14.2587 7.60755 14.2598 7.60813 14.2615 7.6093C13.3751 7.65719 12.5106 7.84176 11.6568 8.08533C11.6579 8.08416 11.6596 8.08299 11.6608 8.08182C11.6624 8.08065 11.3548 8.16593 11.3025 7.89199C11.19 7.20803 11.0775 6.52349 10.9656 5.83953C10.9268 5.56033 11.231 5.4663 11.231 5.4663C11.2305 5.46688 11.2288 5.4663 11.2271 5.46571C12.0815 5.22215 12.9454 5.03758 13.8312 4.98968C13.8307 4.99085 13.829 4.99144 13.8284 4.9926C13.8284 4.9926 14.1468 4.98384 14.1991 5.26245ZM4.85173 7.1543C4.8506 7.15313 4.84891 7.15254 4.84779 7.15196C5.73365 7.10407 6.59757 6.91949 7.45137 6.67593C7.45025 6.6771 7.44912 6.67827 7.448 6.67944C7.448 6.67944 7.75453 6.59474 7.80628 6.86868C7.91877 7.55323 8.0307 8.23719 8.14319 8.92173C8.182 9.20092 7.87715 9.29496 7.87715 9.29496C7.87827 9.29438 7.87996 9.29496 7.88165 9.29555C7.02785 9.53852 6.16392 9.72368 5.2775 9.77157C5.27806 9.77041 5.27975 9.76982 5.28031 9.76865C5.28031 9.76865 4.96197 9.77741 4.9091 9.49939C4.79661 8.81485 4.68468 8.13088 4.57219 7.44634C4.53563 7.17123 4.85173 7.15605 4.85173 7.1543ZM5.76908 14.738C5.65659 14.0541 5.5441 13.3701 5.43218 12.6856C5.39505 12.411 5.71171 12.3953 5.71115 12.3929C5.71003 12.3924 5.70834 12.3918 5.70721 12.3912C6.59364 12.3433 7.45756 12.1581 8.31136 11.9146C8.31023 11.9163 8.30855 11.9175 8.30798 11.9187C8.30742 11.9192 8.61452 11.8346 8.6657 12.1085C8.77819 12.7925 8.89068 13.4764 9.00261 14.161C9.04142 14.4402 8.73713 14.5342 8.73713 14.5342C8.73826 14.5336 8.73995 14.5342 8.74107 14.5348C7.88727 14.7778 7.02335 14.9629 6.13693 15.0108C6.13805 15.0096 6.13918 15.0085 6.1403 15.0079C6.13974 15.0102 5.82195 15.0166 5.76908 14.738Z" fill="#E12B39"/>
</svg>
