<svg width="20" height="20" viewBox="0 0 20 20" fill="none" xmlns="http://www.w3.org/2000/svg">
<path fill-rule="evenodd" clip-rule="evenodd" d="M14.1769 8.92537C13.6482 8.448 14.0291 7.93738 14.0291 7.93738L14.0241 7.93686C15.969 5.0607 15.6148 4.03116 15.3972 3.74131C15.1448 3.46549 14.8179 3.34601 14.5862 3.34186C12.7096 3.25563 10.9621 3.83949 9.27421 4.4036C7.71385 4.92564 6.24001 5.4186 4.68269 5.41912C4.57138 5.41912 4.45956 5.416 4.29108 5.41081C3.8929 5.42327 3.6637 5.6082 3.54126 5.76143C3.41427 5.9209 3.27816 6.2066 3.3576 6.69747L4.70647 14.8159C4.70748 14.8304 4.7176 14.885 4.72013 14.8995C4.85572 15.715 5.46439 15.9997 5.83778 16.0423C5.97944 16.0495 6.1201 16.0532 6.26075 16.0532C7.99263 16.0532 9.61977 15.5088 11.1928 14.9826C12.8761 14.4195 14.4582 13.8897 16.1521 13.977C16.1749 13.979 16.1982 13.9785 16.2209 13.9764C16.6065 13.9468 16.824 13.7614 16.9389 13.6113C17.037 13.4825 17.1347 13.2669 17.1311 12.9563C17.0198 11.3122 15.076 9.75336 14.1769 8.92537Z" fill="#8296AC"/>
</svg>
